<?xml version="1.0" encoding="UTF-8"?>
<!--Generator: Apple Native CoreSVG 175-->
<!DOCTYPE svg
PUBLIC "-//W3C//DTD SVG 1.1//EN"
       "http://www.w3.org/Graphics/SVG/1.1/DTD/svg11.dtd">
<svg version="1.1" xmlns="http://www.w3.org/2000/svg" xmlns:xlink="http://www.w3.org/1999/xlink" width="3300" height="2200">
 <!--glyph: "uni1002B4.medium", point size: 100.0, font version: "17.0d11e1", template writer version: "65.1"-->
 <style>.multicolor-0:systemRedColor {fill:#FF3B30;opacity:1.0}

.SFSymbolsPreviewFF3B30 {fill:#FF3B30;opacity:1.0}
</style>
 <g id="Notes">
  <rect height="2200" id="artboard" style="fill:white;opacity:1" width="3300" x="0" y="0"/>
  <line style="fill:none;stroke:black;opacity:1;stroke-width:0.5;" x1="263" x2="3036" y1="292" y2="292"/>
  <text style="stroke:none;fill:black;font-family:sans-serif;font-size:13;font-weight:bold;" transform="matrix(1 0 0 1 263 322)">Weight/Scale Variations</text>
  <text style="stroke:none;fill:black;font-family:sans-serif;font-size:13;text-anchor:middle;" transform="matrix(1 0 0 1 559.711 322)">Ultralight</text>
  <text style="stroke:none;fill:black;font-family:sans-serif;font-size:13;text-anchor:middle;" transform="matrix(1 0 0 1 856.422 322)">Thin</text>
  <text style="stroke:none;fill:black;font-family:sans-serif;font-size:13;text-anchor:middle;" transform="matrix(1 0 0 1 1153.13 322)">Light</text>
  <text style="stroke:none;fill:black;font-family:sans-serif;font-size:13;text-anchor:middle;" transform="matrix(1 0 0 1 1449.84 322)">Regular</text>
  <text style="stroke:none;fill:black;font-family:sans-serif;font-size:13;text-anchor:middle;" transform="matrix(1 0 0 1 1746.56 322)">Medium</text>
  <text style="stroke:none;fill:black;font-family:sans-serif;font-size:13;text-anchor:middle;" transform="matrix(1 0 0 1 2043.27 322)">Semibold</text>
  <text style="stroke:none;fill:black;font-family:sans-serif;font-size:13;text-anchor:middle;" transform="matrix(1 0 0 1 2339.98 322)">Bold</text>
  <text style="stroke:none;fill:black;font-family:sans-serif;font-size:13;text-anchor:middle;" transform="matrix(1 0 0 1 2636.69 322)">Heavy</text>
  <text style="stroke:none;fill:black;font-family:sans-serif;font-size:13;text-anchor:middle;" transform="matrix(1 0 0 1 2933.4 322)">Black</text>
  <line style="fill:none;stroke:black;opacity:1;stroke-width:0.5;" x1="263" x2="3036" y1="1903" y2="1903"/>
  <g transform="matrix(1 0 0 1 263 1933)">
   <path d="M9.24805 0.830078Q10.8691 0.830078 12.2949 0.214844Q13.7207-0.400391 14.8096-1.49414Q15.8984-2.58789 16.5186-4.01367Q17.1387-5.43945 17.1387-7.05078Q17.1387-8.66211 16.5186-10.0879Q15.8984-11.5137 14.8047-12.6074Q13.7109-13.7012 12.2852-14.3164Q10.8594-14.9316 9.23828-14.9316Q7.62695-14.9316 6.20117-14.3164Q4.77539-13.7012 3.69141-12.6074Q2.60742-11.5137 1.9873-10.0879Q1.36719-8.66211 1.36719-7.05078Q1.36719-5.43945 1.9873-4.01367Q2.60742-2.58789 3.69629-1.49414Q4.78516-0.400391 6.21094 0.214844Q7.63672 0.830078 9.24805 0.830078ZM9.24805-0.654297Q7.91992-0.654297 6.7627-1.14746Q5.60547-1.64062 4.73145-2.51953Q3.85742-3.39844 3.36426-4.56055Q2.87109-5.72266 2.87109-7.05078Q2.87109-8.37891 3.35938-9.54102Q3.84766-10.7031 4.72168-11.582Q5.5957-12.4609 6.75293-12.9541Q7.91016-13.4473 9.23828-13.4473Q10.5762-13.4473 11.7334-12.9541Q12.8906-12.4609 13.7695-11.582Q14.6484-10.7031 15.1465-9.54102Q15.6445-8.37891 15.6445-7.05078Q15.6445-5.72266 15.1514-4.56055Q14.6582-3.39844 13.7842-2.51953Q12.9102-1.64062 11.748-1.14746Q10.5859-0.654297 9.24805-0.654297ZM5.6543-7.05078Q5.6543-6.72852 5.85938-6.52832Q6.06445-6.32812 6.40625-6.32812L8.51562-6.32812L8.51562-4.20898Q8.51562-3.88672 8.71094-3.67676Q8.90625-3.4668 9.23828-3.4668Q9.56055-3.4668 9.77051-3.67676Q9.98047-3.88672 9.98047-4.20898L9.98047-6.32812L12.0898-6.32812Q12.4219-6.32812 12.627-6.52832Q12.832-6.72852 12.832-7.05078Q12.832-7.38281 12.627-7.58789Q12.4219-7.79297 12.0898-7.79297L9.98047-7.79297L9.98047-9.90234Q9.98047-10.2344 9.77051-10.4443Q9.56055-10.6543 9.23828-10.6543Q8.90625-10.6543 8.71094-10.4443Q8.51562-10.2344 8.51562-9.90234L8.51562-7.79297L6.40625-7.79297Q6.06445-7.79297 5.85938-7.58789Q5.6543-7.38281 5.6543-7.05078Z"/>
  </g>
  <g transform="matrix(1 0 0 1 281.867 1933)">
   <path d="M11.709 2.91016Q13.75 2.91016 15.5518 2.12891Q17.3535 1.34766 18.7305-0.0292969Q20.1074-1.40625 20.8887-3.20801Q21.6699-5.00977 21.6699-7.05078Q21.6699-9.0918 20.8887-10.8936Q20.1074-12.6953 18.7305-14.0723Q17.3535-15.4492 15.5469-16.2305Q13.7402-17.0117 11.6992-17.0117Q9.6582-17.0117 7.85645-16.2305Q6.05469-15.4492 4.68262-14.0723Q3.31055-12.6953 2.5293-10.8936Q1.74805-9.0918 1.74805-7.05078Q1.74805-5.00977 2.5293-3.20801Q3.31055-1.40625 4.6875-0.0292969Q6.06445 1.34766 7.86621 2.12891Q9.66797 2.91016 11.709 2.91016ZM11.709 1.25Q9.98047 1.25 8.47656 0.605469Q6.97266-0.0390625 5.83496-1.17676Q4.69727-2.31445 4.05762-3.81836Q3.41797-5.32227 3.41797-7.05078Q3.41797-8.7793 4.05762-10.2832Q4.69727-11.7871 5.83008-12.9297Q6.96289-14.0723 8.4668-14.7119Q9.9707-15.3516 11.6992-15.3516Q13.4277-15.3516 14.9316-14.7119Q16.4355-14.0723 17.5781-12.9297Q18.7207-11.7871 19.3652-10.2832Q20.0098-8.7793 20.0098-7.05078Q20.0098-5.32227 19.3701-3.81836Q18.7305-2.31445 17.5928-1.17676Q16.4551-0.0390625 14.9463 0.605469Q13.4375 1.25 11.709 1.25ZM7.17773-7.05078Q7.17773-6.69922 7.41211-6.47461Q7.64648-6.25 8.01758-6.25L10.8887-6.25L10.8887-3.36914Q10.8887-2.99805 11.1133-2.76855Q11.3379-2.53906 11.6895-2.53906Q12.0605-2.53906 12.29-2.76855Q12.5195-2.99805 12.5195-3.36914L12.5195-6.25L15.4004-6.25Q15.7715-6.25 16.001-6.47461Q16.2305-6.69922 16.2305-7.05078Q16.2305-7.42188 16.001-7.65137Q15.7715-7.88086 15.4004-7.88086L12.5195-7.88086L12.5195-10.752Q12.5195-11.1328 12.29-11.3623Q12.0605-11.5918 11.6895-11.5918Q11.3379-11.5918 11.1133-11.3574Q10.8887-11.123 10.8887-10.752L10.8887-7.88086L8.01758-7.88086Q7.63672-7.88086 7.40723-7.65137Q7.17773-7.42188 7.17773-7.05078Z"/>
  </g>
  <g transform="matrix(1 0 0 1 305.646 1933)">
   <path d="M14.9707 5.66406Q17.0605 5.66406 18.96 5.01465Q20.8594 4.36523 22.4512 3.19336Q24.043 2.02148 25.2197 0.429688Q26.3965-1.16211 27.0459-3.06641Q27.6953-4.9707 27.6953-7.05078Q27.6953-9.14062 27.0459-11.04Q26.3965-12.9395 25.2197-14.5312Q24.043-16.123 22.4512-17.2998Q20.8594-18.4766 18.9551-19.126Q17.0508-19.7754 14.9609-19.7754Q12.8711-19.7754 10.9717-19.126Q9.07227-18.4766 7.48535-17.2998Q5.89844-16.123 4.72168-14.5312Q3.54492-12.9395 2.90039-11.04Q2.25586-9.14062 2.25586-7.05078Q2.25586-4.9707 2.90527-3.06641Q3.55469-1.16211 4.72656 0.429688Q5.89844 2.02148 7.49023 3.19336Q9.08203 4.36523 10.9814 5.01465Q12.8809 5.66406 14.9707 5.66406ZM14.9707 3.84766Q13.1641 3.84766 11.5283 3.2959Q9.89258 2.74414 8.53516 1.74805Q7.17773 0.751953 6.17676-0.610352Q5.17578-1.97266 4.62891-3.6084Q4.08203-5.24414 4.08203-7.05078Q4.08203-8.86719 4.62891-10.5029Q5.17578-12.1387 6.17188-13.501Q7.16797-14.8633 8.52539-15.8594Q9.88281-16.8555 11.5186-17.4023Q13.1543-17.9492 14.9609-17.9492Q16.7773-17.9492 18.4131-17.4023Q20.0488-16.8555 21.4111-15.8594Q22.7734-14.8633 23.7695-13.501Q24.7656-12.1387 25.3174-10.5029Q25.8691-8.86719 25.8691-7.05078Q25.8789-5.24414 25.332-3.6084Q24.7852-1.97266 23.7842-0.610352Q22.7832 0.751953 21.4209 1.74805Q20.0586 2.74414 18.4229 3.2959Q16.7871 3.84766 14.9707 3.84766ZM9.19922-7.05078Q9.19922-6.66992 9.45801-6.4209Q9.7168-6.17188 10.1172-6.17188L14.0625-6.17188L14.0625-2.2168Q14.0625-1.81641 14.3115-1.55762Q14.5605-1.29883 14.9512-1.29883Q15.3516-1.29883 15.6104-1.55273Q15.8691-1.80664 15.8691-2.2168L15.8691-6.17188L19.8242-6.17188Q20.2246-6.17188 20.4785-6.4209Q20.7324-6.66992 20.7324-7.05078Q20.7324-7.46094 20.4785-7.71484Q20.2246-7.96875 19.8242-7.96875L15.8691-7.96875L15.8691-11.9141Q15.8691-12.3242 15.6104-12.583Q15.3516-12.8418 14.9512-12.8418Q14.5605-12.8418 14.3115-12.583Q14.0625-12.3242 14.0625-11.9141L14.0625-7.96875L10.1172-7.96875Q9.70703-7.96875 9.45312-7.71484Q9.19922-7.46094 9.19922-7.05078Z"/>
  </g>
  <text style="stroke:none;fill:black;font-family:sans-serif;font-size:13;font-weight:bold;" transform="matrix(1 0 0 1 263 1953)">Design Variations</text>
  <text style="stroke:none;fill:black;font-family:sans-serif;font-size:13;" transform="matrix(1 0 0 1 263 1971)">Symbols are supported in up to nine weights and three scales.</text>
  <text style="stroke:none;fill:black;font-family:sans-serif;font-size:13;" transform="matrix(1 0 0 1 263 1989)">For optimal layout with text and other symbols, vertically align</text>
  <text style="stroke:none;fill:black;font-family:sans-serif;font-size:13;" transform="matrix(1 0 0 1 263 2007)">symbols with the adjacent text.</text>
  <line style="fill:none;stroke:#00AEEF;stroke-width:0.5;opacity:1.0;" x1="776" x2="776" y1="1919" y2="1933"/>
  <g transform="matrix(1 0 0 1 776 1933)">
   <path d="M3.31055 0.15625Q3.70117 0.15625 3.91602-0.00976562Q4.13086-0.175781 4.26758-0.585938L5.52734-4.0332L11.2891-4.0332L12.5488-0.585938Q12.6855-0.175781 12.9004-0.00976562Q13.1152 0.15625 13.4961 0.15625Q13.8867 0.15625 14.1162-0.0585938Q14.3457-0.273438 14.3457-0.644531Q14.3457-0.869141 14.2383-1.17188L9.6582-13.3691Q9.48242-13.8184 9.17969-14.043Q8.87695-14.2676 8.4082-14.2676Q7.5-14.2676 7.17773-13.3789L2.59766-1.16211Q2.49023-0.859375 2.49023-0.634766Q2.49023-0.263672 2.70996-0.0537109Q2.92969 0.15625 3.31055 0.15625ZM6.00586-5.51758L8.37891-12.0898L8.42773-12.0898L10.8008-5.51758Z"/>
  </g>
  <line style="fill:none;stroke:#00AEEF;stroke-width:0.5;opacity:1.0;" x1="793.197" x2="793.197" y1="1919" y2="1933"/>
  <text style="stroke:none;fill:black;font-family:sans-serif;font-size:13;font-weight:bold;" transform="matrix(1 0 0 1 776 1953)">Margins</text>
  <text style="stroke:none;fill:black;font-family:sans-serif;font-size:13;" transform="matrix(1 0 0 1 776 1971)">Leading and trailing margins on the left and right side of each symbol</text>
  <text style="stroke:none;fill:black;font-family:sans-serif;font-size:13;" transform="matrix(1 0 0 1 776 1989)">can be adjusted by modifying the x-location of the margin guidelines.</text>
  <text style="stroke:none;fill:black;font-family:sans-serif;font-size:13;" transform="matrix(1 0 0 1 776 2007)">Modifications are automatically applied proportionally to all</text>
  <text style="stroke:none;fill:black;font-family:sans-serif;font-size:13;" transform="matrix(1 0 0 1 776 2025)">scales and weights.</text>
  <g transform="matrix(1 0 0 1 1289 1933)">
   <path d="M2.8418 1.86523L4.54102 3.57422Q5.18555 4.22852 5.90332 4.17969Q6.62109 4.13086 7.31445 3.35938L18.0078-8.42773L17.041-9.4043L6.42578 2.27539Q6.16211 2.57812 5.89355 2.61719Q5.625 2.65625 5.27344 2.30469L4.10156 1.14258Q3.75 0.791016 3.79395 0.522461Q3.83789 0.253906 4.14062-0.0195312L15.6152-10.8203L14.6387-11.7871L3.04688-0.898438Q2.30469-0.214844 2.25098 0.498047Q2.19727 1.21094 2.8418 1.86523ZM9.25781-16.3281Q8.94531-16.0254 8.90625-15.6348Q8.86719-15.2441 9.04297-14.9512Q9.21875-14.6777 9.55566-14.541Q9.89258-14.4043 10.3809-14.5215Q11.4746-14.7754 12.5977-14.7314Q13.7207-14.6875 14.7949-13.9844L14.209-12.5293Q13.9551-11.9043 14.0674-11.4404Q14.1797-10.9766 14.5801-10.5664L16.875-8.25195Q17.2363-7.88086 17.5781-7.82227Q17.9199-7.76367 18.3398-7.8418L19.4043-8.03711L20.0684-7.36328L20.0293-6.80664Q20-6.43555 20.1221-6.12305Q20.2441-5.81055 20.6055-5.44922L21.3672-4.70703Q21.7285-4.3457 22.1533-4.33105Q22.5781-4.31641 22.9297-4.66797L25.8398-7.58789Q26.1914-7.93945 26.1816-8.35449Q26.1719-8.76953 25.8105-9.13086L25.0391-9.89258Q24.6875-10.2539 24.3799-10.3857Q24.0723-10.5176 23.7109-10.4883L23.1348-10.4395L22.4902-11.0742L22.7344-12.1973Q22.832-12.6172 22.6953-12.9834Q22.5586-13.3496 22.1191-13.7891L19.9219-15.9766Q18.6719-17.2168 17.2607-17.8369Q15.8496-18.457 14.4189-18.4814Q12.9883-18.5059 11.665-17.959Q10.3418-17.4121 9.25781-16.3281ZM10.752-15.957Q11.6602-16.6211 12.7002-16.9043Q13.7402-17.1875 14.8047-17.085Q15.8691-16.9824 16.8701-16.5137Q17.8711-16.0449 18.7012-15.2051L21.1328-12.793Q21.3086-12.6172 21.3525-12.4512Q21.3965-12.2852 21.3379-12.0312L21.0156-10.5469L22.5195-9.0625L23.5059-9.12109Q23.6914-9.13086 23.7891-9.09668Q23.8867-9.0625 24.0332-8.91602L24.6094-8.33984L22.168-5.89844L21.5918-6.47461Q21.4453-6.62109 21.4062-6.71875Q21.3672-6.81641 21.377-7.01172L21.4453-7.98828L19.9512-9.47266L18.4277-9.21875Q18.1836-9.16992 18.042-9.2041Q17.9004-9.23828 17.7148-9.41406L15.7129-11.416Q15.5176-11.5918 15.4932-11.7529Q15.4688-11.9141 15.5859-12.1875L16.4648-14.2773Q15.293-15.3711 13.8281-15.791Q12.3633-16.2109 10.8398-15.7617Q10.7227-15.7324 10.6885-15.8057Q10.6543-15.8789 10.752-15.957Z"/>
  </g>
  <text style="stroke:none;fill:black;font-family:sans-serif;font-size:13;font-weight:bold;" transform="matrix(1 0 0 1 1289 1953)">Exporting</text>
  <text style="stroke:none;fill:black;font-family:sans-serif;font-size:13;" transform="matrix(1 0 0 1 1289 1971)">Symbols should be outlined when exporting to ensure the</text>
  <text style="stroke:none;fill:black;font-family:sans-serif;font-size:13;" transform="matrix(1 0 0 1 1289 1989)">design is preserved when submitting to Xcode.</text>
  <text id="template-version" style="stroke:none;fill:black;font-family:sans-serif;font-size:13;text-anchor:end;" transform="matrix(1 0 0 1 3036 1933)">Template v.3.0</text>
  <text style="stroke:none;fill:black;font-family:sans-serif;font-size:13;text-anchor:end;" transform="matrix(1 0 0 1 3036 1951)">Requires Xcode 13 or greater</text>
  <text id="descriptive-name" style="stroke:none;fill:black;font-family:sans-serif;font-size:13;text-anchor:end;" transform="matrix(1 0 0 1 3036 1969)">Generated from heart</text>
  <text style="stroke:none;fill:black;font-family:sans-serif;font-size:13;text-anchor:end;" transform="matrix(1 0 0 1 3036 1987)">Typeset at 100 points</text>
  <text style="stroke:none;fill:black;font-family:sans-serif;font-size:13;" transform="matrix(1 0 0 1 263 726)">Small</text>
  <text style="stroke:none;fill:black;font-family:sans-serif;font-size:13;" transform="matrix(1 0 0 1 263 1156)">Medium</text>
  <text style="stroke:none;fill:black;font-family:sans-serif;font-size:13;" transform="matrix(1 0 0 1 263 1586)">Large</text>
 </g>
 <g id="Guides">
  <g id="H-reference" style="fill:#27AAE1;stroke:none;" transform="matrix(1 0 0 1 339 696)">
   <path d="M0.993347 0L3.6377 0L29.3282-67.1326L30.0301-67.1326L30.0301-70.459L28.1227-70.459ZM11.6882-24.4797L46.9818-24.4797L46.2311-26.7288L12.4382-26.7288ZM55.1193 0L57.7637 0L30.6381-70.459L29.4327-70.459L29.4327-67.1326Z"/>
  </g>
  <line id="Baseline-S" style="fill:none;stroke:#27AAE1;opacity:1;stroke-width:0.5;" x1="263" x2="3036" y1="696" y2="696"/>
  <line id="Capline-S" style="fill:none;stroke:#27AAE1;opacity:1;stroke-width:0.5;" x1="263" x2="3036" y1="625.541" y2="625.541"/>
  <g id="H-reference" style="fill:#27AAE1;stroke:none;" transform="matrix(1 0 0 1 339 1126)">
   <path d="M0.993347 0L3.6377 0L29.3282-67.1326L30.0301-67.1326L30.0301-70.459L28.1227-70.459ZM11.6882-24.4797L46.9818-24.4797L46.2311-26.7288L12.4382-26.7288ZM55.1193 0L57.7637 0L30.6381-70.459L29.4327-70.459L29.4327-67.1326Z"/>
  </g>
  <line id="Baseline-M" style="fill:none;stroke:#27AAE1;opacity:1;stroke-width:0.5;" x1="263" x2="3036" y1="1126" y2="1126"/>
  <line id="Capline-M" style="fill:none;stroke:#27AAE1;opacity:1;stroke-width:0.5;" x1="263" x2="3036" y1="1055.54" y2="1055.54"/>
  <g id="H-reference" style="fill:#27AAE1;stroke:none;" transform="matrix(1 0 0 1 339 1556)">
   <path d="M0.993347 0L3.6377 0L29.3282-67.1326L30.0301-67.1326L30.0301-70.459L28.1227-70.459ZM11.6882-24.4797L46.9818-24.4797L46.2311-26.7288L12.4382-26.7288ZM55.1193 0L57.7637 0L30.6381-70.459L29.4327-70.459L29.4327-67.1326Z"/>
  </g>
  <line id="Baseline-L" style="fill:none;stroke:#27AAE1;opacity:1;stroke-width:0.5;" x1="263" x2="3036" y1="1556" y2="1556"/>
  <line id="Capline-L" style="fill:none;stroke:#27AAE1;opacity:1;stroke-width:0.5;" x1="263" x2="3036" y1="1485.54" y2="1485.54"/>
  <line id="left-margin-Ultralight-S" style="fill:none;stroke:#00AEEF;stroke-width:0.5;opacity:1.0;" x1="515.339" x2="515.339" y1="600.785" y2="720.121"/>
  <line id="right-margin-Ultralight-S" style="fill:none;stroke:#00AEEF;stroke-width:0.5;opacity:1.0;" x1="604.083" x2="604.083" y1="600.785" y2="720.121"/>
  <line id="left-margin-Thin-S" style="fill:none;stroke:#00AEEF;stroke-width:0.5;opacity:1.0;" x1="811.209" x2="811.209" y1="600.785" y2="720.121"/>
  <line id="right-margin-Thin-S" style="fill:none;stroke:#00AEEF;stroke-width:0.5;opacity:1.0;" x1="901.635" x2="901.635" y1="600.785" y2="720.121"/>
  <line id="left-margin-Light-S" style="fill:none;stroke:#00AEEF;stroke-width:0.5;opacity:1.0;" x1="1106.28" x2="1106.28" y1="600.785" y2="720.121"/>
  <line id="right-margin-Light-S" style="fill:none;stroke:#00AEEF;stroke-width:0.5;opacity:1.0;" x1="1199.99" x2="1199.99" y1="600.785" y2="720.121"/>
  <line id="left-margin-Regular-S" style="fill:none;stroke:#00AEEF;stroke-width:0.5;opacity:1.0;" x1="1401.75" x2="1401.75" y1="600.785" y2="720.121"/>
  <line id="right-margin-Regular-S" style="fill:none;stroke:#00AEEF;stroke-width:0.5;opacity:1.0;" x1="1497.94" x2="1497.94" y1="600.785" y2="720.121"/>
  <line id="left-margin-Medium-S" style="fill:none;stroke:#00AEEF;stroke-width:0.5;opacity:1.0;" x1="1698.08" x2="1698.08" y1="600.785" y2="720.121"/>
  <line id="right-margin-Medium-S" style="fill:none;stroke:#00AEEF;stroke-width:0.5;opacity:1.0;" x1="1795.03" x2="1795.03" y1="600.785" y2="720.121"/>
  <line id="left-margin-Semibold-S" style="fill:none;stroke:#00AEEF;stroke-width:0.5;opacity:1.0;" x1="1994.5" x2="1994.5" y1="600.785" y2="720.121"/>
  <line id="right-margin-Semibold-S" style="fill:none;stroke:#00AEEF;stroke-width:0.5;opacity:1.0;" x1="2092.03" x2="2092.03" y1="600.785" y2="720.121"/>
  <line id="left-margin-Bold-S" style="fill:none;stroke:#00AEEF;stroke-width:0.5;opacity:1.0;" x1="2290.83" x2="2290.83" y1="600.785" y2="720.121"/>
  <line id="right-margin-Bold-S" style="fill:none;stroke:#00AEEF;stroke-width:0.5;opacity:1.0;" x1="2389.12" x2="2389.12" y1="600.785" y2="720.121"/>
  <line id="left-margin-Heavy-S" style="fill:none;stroke:#00AEEF;stroke-width:0.5;opacity:1.0;" x1="2586.99" x2="2586.99" y1="600.785" y2="720.121"/>
  <line id="right-margin-Heavy-S" style="fill:none;stroke:#00AEEF;stroke-width:0.5;opacity:1.0;" x1="2686.39" x2="2686.39" y1="600.785" y2="720.121"/>
  <line id="left-margin-Black-S" style="fill:none;stroke:#00AEEF;stroke-width:0.5;opacity:1.0;" x1="2883.2" x2="2883.2" y1="600.785" y2="720.121"/>
  <line id="right-margin-Black-S" style="fill:none;stroke:#00AEEF;stroke-width:0.5;opacity:1.0;" x1="2983.6" x2="2983.6" y1="600.785" y2="720.121"/>
  <line id="left-margin-Ultralight-M" style="fill:none;stroke:#00AEEF;stroke-width:0.5;opacity:1.0;" x1="503.387" x2="503.387" y1="1030.79" y2="1150.12"/>
  <line id="right-margin-Ultralight-M" style="fill:none;stroke:#00AEEF;stroke-width:0.5;opacity:1.0;" x1="616.035" x2="616.035" y1="1030.79" y2="1150.12"/>
  <line id="left-margin-Thin-M" style="fill:none;stroke:#00AEEF;stroke-width:0.5;opacity:1.0;" x1="799.145" x2="799.145" y1="1030.79" y2="1150.12"/>
  <line id="right-margin-Thin-M" style="fill:none;stroke:#00AEEF;stroke-width:0.5;opacity:1.0;" x1="913.7" x2="913.7" y1="1030.79" y2="1150.12"/>
  <line id="left-margin-Light-M" style="fill:none;stroke:#00AEEF;stroke-width:0.5;opacity:1.0;" x1="1093.99" x2="1093.99" y1="1030.79" y2="1150.12"/>
  <line id="right-margin-Light-M" style="fill:none;stroke:#00AEEF;stroke-width:0.5;opacity:1.0;" x1="1212.27" x2="1212.27" y1="1030.79" y2="1150.12"/>
  <line id="left-margin-Regular-M" style="fill:none;stroke:#00AEEF;stroke-width:0.5;opacity:1.0;" x1="1389.3" x2="1389.3" y1="1030.79" y2="1150.12"/>
  <line id="right-margin-Regular-M" style="fill:none;stroke:#00AEEF;stroke-width:0.5;opacity:1.0;" x1="1510.39" x2="1510.39" y1="1030.79" y2="1150.12"/>
  <line id="left-margin-Medium-M" style="fill:none;stroke:#00AEEF;stroke-width:0.5;opacity:1.0;" x1="1685.41" x2="1685.41" y1="1030.79" y2="1150.12"/>
  <line id="right-margin-Medium-M" style="fill:none;stroke:#00AEEF;stroke-width:0.5;opacity:1.0;" x1="1807.7" x2="1807.7" y1="1030.79" y2="1150.12"/>
  <line id="left-margin-Semibold-M" style="fill:none;stroke:#00AEEF;stroke-width:0.5;opacity:1.0;" x1="1981.66" x2="1981.66" y1="1030.79" y2="1150.12"/>
  <line id="right-margin-Semibold-M" style="fill:none;stroke:#00AEEF;stroke-width:0.5;opacity:1.0;" x1="2104.87" x2="2104.87" y1="1030.79" y2="1150.12"/>
  <line id="left-margin-Bold-M" style="fill:none;stroke:#00AEEF;stroke-width:0.5;opacity:1.0;" x1="2277.77" x2="2277.77" y1="1030.79" y2="1150.12"/>
  <line id="right-margin-Bold-M" style="fill:none;stroke:#00AEEF;stroke-width:0.5;opacity:1.0;" x1="2402.18" x2="2402.18" y1="1030.79" y2="1150.12"/>
  <line id="left-margin-Heavy-M" style="fill:none;stroke:#00AEEF;stroke-width:0.5;opacity:1.0;" x1="2573.61" x2="2573.61" y1="1030.79" y2="1150.12"/>
  <line id="right-margin-Heavy-M" style="fill:none;stroke:#00AEEF;stroke-width:0.5;opacity:1.0;" x1="2699.77" x2="2699.77" y1="1030.79" y2="1150.12"/>
  <line id="left-margin-Black-M" style="fill:none;stroke:#00AEEF;stroke-width:0.5;opacity:1.0;" x1="2869.53" x2="2869.53" y1="1030.79" y2="1150.12"/>
  <line id="right-margin-Black-M" style="fill:none;stroke:#00AEEF;stroke-width:0.5;opacity:1.0;" x1="2997.27" x2="2997.27" y1="1030.79" y2="1150.12"/>
  <line id="left-margin-Ultralight-L" style="fill:none;stroke:#00AEEF;stroke-width:0.5;opacity:1.0;" x1="487.435" x2="487.435" y1="1460.79" y2="1580.12"/>
  <line id="right-margin-Ultralight-L" style="fill:none;stroke:#00AEEF;stroke-width:0.5;opacity:1.0;" x1="631.987" x2="631.987" y1="1460.79" y2="1580.12"/>
  <line id="left-margin-Thin-L" style="fill:none;stroke:#00AEEF;stroke-width:0.5;opacity:1.0;" x1="783.09" x2="783.09" y1="1460.79" y2="1580.12"/>
  <line id="right-margin-Thin-L" style="fill:none;stroke:#00AEEF;stroke-width:0.5;opacity:1.0;" x1="929.754" x2="929.754" y1="1460.79" y2="1580.12"/>
  <line id="left-margin-Light-L" style="fill:none;stroke:#00AEEF;stroke-width:0.5;opacity:1.0;" x1="1077.74" x2="1077.74" y1="1460.79" y2="1580.12"/>
  <line id="right-margin-Light-L" style="fill:none;stroke:#00AEEF;stroke-width:0.5;opacity:1.0;" x1="1228.53" x2="1228.53" y1="1460.79" y2="1580.12"/>
  <line id="left-margin-Regular-L" style="fill:none;stroke:#00AEEF;stroke-width:0.5;opacity:1.0;" x1="1372.89" x2="1372.89" y1="1460.79" y2="1580.12"/>
  <line id="right-margin-Regular-L" style="fill:none;stroke:#00AEEF;stroke-width:0.5;opacity:1.0;" x1="1526.8" x2="1526.8" y1="1460.79" y2="1580.12"/>
  <line id="left-margin-Medium-L" style="fill:none;stroke:#00AEEF;stroke-width:0.5;opacity:1.0;" x1="1668.72" x2="1668.72" y1="1460.79" y2="1580.12"/>
  <line id="right-margin-Medium-L" style="fill:none;stroke:#00AEEF;stroke-width:0.5;opacity:1.0;" x1="1824.39" x2="1824.39" y1="1460.79" y2="1580.12"/>
  <line id="left-margin-Semibold-L" style="fill:none;stroke:#00AEEF;stroke-width:0.5;opacity:1.0;" x1="1964.75" x2="1964.75" y1="1460.79" y2="1580.12"/>
  <line id="right-margin-Semibold-L" style="fill:none;stroke:#00AEEF;stroke-width:0.5;opacity:1.0;" x1="2121.78" x2="2121.78" y1="1460.79" y2="1580.12"/>
  <line id="left-margin-Bold-L" style="fill:none;stroke:#00AEEF;stroke-width:0.5;opacity:1.0;" x1="2260.57" x2="2260.57" y1="1460.79" y2="1580.12"/>
  <line id="right-margin-Bold-L" style="fill:none;stroke:#00AEEF;stroke-width:0.5;opacity:1.0;" x1="2419.38" x2="2419.38" y1="1460.79" y2="1580.12"/>
  <line id="left-margin-Heavy-L" style="fill:none;stroke:#00AEEF;stroke-width:0.5;opacity:1.0;" x1="2555.99" x2="2555.99" y1="1460.79" y2="1580.12"/>
  <line id="right-margin-Heavy-L" style="fill:none;stroke:#00AEEF;stroke-width:0.5;opacity:1.0;" x1="2717.39" x2="2717.39" y1="1460.79" y2="1580.12"/>
  <line id="left-margin-Black-L" style="fill:none;stroke:#00AEEF;stroke-width:0.5;opacity:1.0;" x1="2851.54" x2="2851.54" y1="1460.79" y2="1580.12"/>
  <line id="right-margin-Black-L" style="fill:none;stroke:#00AEEF;stroke-width:0.5;opacity:1.0;" x1="3015.26" x2="3015.26" y1="1460.79" y2="1580.12"/>
 </g>
 <g id="Symbols">
  <g id="Black-L" transform="matrix(1 0 0 1 2851.54 1556)">
   <path class="multicolor-0:systemRedColor SFSymbolsPreviewFF3B30" d="M14.3555-52.5879Q14.3555-42.3828 18.4326-32.2266Q22.5098-22.0703 30.0537-12.2314Q37.5977-2.39258 48.1201 6.90918Q58.6426 16.2109 71.5332 24.707Q74.3652 26.6113 77.124 28.1006Q79.8828 29.5898 81.8359 29.5898Q83.8379 29.5898 86.5967 28.1006Q89.3555 26.6113 92.1875 24.707Q105.078 16.2109 115.601 6.90918Q126.123-2.39258 133.667-12.2314Q141.211-22.0703 145.288-32.2266Q149.365-42.3828 149.365-52.5879Q149.365-62.4512 146.191-70.459Q143.018-78.4668 137.476-84.2285Q131.934-89.9902 124.756-93.0664Q117.578-96.1426 109.57-96.1426Q103.027-96.1426 97.7783-94.4824Q92.5293-92.8223 88.5742-89.917Q84.6191-87.0117 81.8359-83.252Q79.1504-87.0117 75.1709-89.917Q71.1914-92.8223 65.9424-94.4824Q60.6934-96.1426 54.1504-96.1426Q46.1426-96.1426 38.9648-93.0664Q31.7871-89.9902 26.2451-84.2285Q20.7031-78.4668 17.5293-70.459Q14.3555-62.4512 14.3555-52.5879ZM36.1328-52.832Q36.1328-59.4727 38.9404-64.5508Q41.748-69.6289 46.6064-72.4854Q51.4648-75.3418 57.5684-75.3418Q62.4512-75.3418 65.918-73.8037Q69.3848-72.2656 71.8018-69.9219Q74.2188-67.5781 76.0742-65.0879Q77.4902-63.1348 78.833-62.1582Q80.1758-61.1816 81.8359-61.1816Q83.4961-61.1816 84.79-62.1582Q86.084-63.1348 87.5977-65.0879Q89.5508-67.5781 91.9922-69.9219Q94.4336-72.2656 97.8516-73.8037Q101.27-75.3418 106.152-75.3418Q112.256-75.3418 117.114-72.4854Q121.973-69.6289 124.78-64.5508Q127.588-59.4727 127.588-52.832Q127.588-45.9473 124.365-38.4277Q121.143-30.9082 115.21-23.2422Q109.277-15.5762 101.025-8.1543Q92.7734-0.732422 82.7148 5.95703Q82.1289 6.34766 81.8359 6.34766Q81.5918 6.34766 81.0059 5.95703Q70.9473-0.732422 62.6953-8.1543Q54.4434-15.5762 48.4863-23.2422Q42.5293-30.9082 39.3311-38.4277Q36.1328-45.9473 36.1328-52.832Z"/>
  </g>
  <g id="Heavy-L" transform="matrix(1 0 0 1 2555.99 1556)">
   <path class="multicolor-0:systemRedColor SFSymbolsPreviewFF3B30" d="M14.5401-52.7145Q14.5401-42.5674 18.6172-32.4974Q22.6944-22.4274 30.2498-12.6751Q37.8052-2.92282 48.3505 6.31561Q58.8959 15.554 71.8445 24.0387Q74.2157 25.6317 76.5999 26.8848Q78.9841 28.138 80.6831 28.138Q82.4318 28.138 84.8103 26.8848Q87.1887 25.6317 89.5714 24.0387Q102.508 15.554 113.054 6.31561Q123.599-2.92282 131.155-12.6751Q138.71-22.4274 142.787-32.4974Q146.864-42.5674 146.864-52.7145Q146.864-62.1742 143.823-69.9055Q140.782-77.6367 135.424-83.2199Q130.067-88.8031 123.073-91.7988Q116.08-94.7945 108.187-94.7945Q101.829-94.7945 96.6259-93.0996Q91.423-91.4047 87.4447-88.4071Q83.4663-85.4095 80.6831-81.5002Q77.9861-85.4095 73.9895-88.4014Q69.9928-91.3933 64.7842-93.0939Q59.5757-94.7945 53.2166-94.7945Q45.3247-94.7945 38.3312-91.7988Q31.3377-88.8031 25.9857-83.2199Q20.6337-77.6367 17.5869-69.9055Q14.5401-62.1742 14.5401-52.7145ZM33.2169-52.9015Q33.2169-59.9915 36.1744-65.3923Q39.1319-70.7932 44.244-73.8281Q49.3561-76.8631 55.8052-76.8631Q60.9299-76.8631 64.6156-75.1865Q68.3014-73.51 70.8855-70.953Q73.4695-68.396 75.3944-65.6754Q76.7296-63.7917 77.9514-62.8956Q79.1733-61.9995 80.6831-61.9995Q82.1938-61.9995 83.3668-62.9013Q84.5398-63.8031 85.984-65.6754Q87.9951-68.3846 90.6036-70.9415Q93.2121-73.4985 96.8491-75.1808Q100.486-76.8631 105.599-76.8631Q112.048-76.8631 117.166-73.8281Q122.284-70.7932 125.235-65.3923Q128.187-59.9915 128.187-52.9015Q128.187-45.5551 124.728-37.6957Q121.269-29.8363 115.014-21.9341Q108.759-14.032 100.248-6.48346Q91.7366 1.06506 81.6315 7.78961Q80.9647 8.23746 80.6831 8.23746Q80.439 8.23746 79.7729 7.78961Q69.6793 1.06506 61.1683-6.48346Q52.6573-14.032 46.3776-21.9341Q40.0978-29.8363 36.6573-37.6957Q33.2169-45.5551 33.2169-52.9015Z"/>
  </g>
  <g id="Bold-L" transform="matrix(1 0 0 1 2260.57 1556)">
   <path class="multicolor-0:systemRedColor SFSymbolsPreviewFF3B30" d="M14.7461-52.8564Q14.7461-42.7734 18.8232-32.8003Q22.9004-22.8271 30.4688-13.1714Q38.0371-3.51562 48.6084 5.65186Q59.1797 14.8193 72.1924 23.291Q74.0479 24.5361 76.0132 25.5249Q77.9785 26.5137 79.3945 26.5137Q80.8594 26.5137 82.8125 25.5249Q84.7656 24.5361 86.6455 23.291Q99.6338 14.8193 110.205 5.65186Q120.776-3.51562 128.345-13.1714Q135.913-22.8271 139.99-32.8003Q144.067-42.7734 144.067-52.8564Q144.067-61.8652 141.174-69.2871Q138.281-76.709 133.13-82.0923Q127.979-87.4756 121.191-90.3809Q114.404-93.2861 106.641-93.2861Q100.488-93.2861 95.3369-91.5527Q90.1855-89.8193 86.1816-86.7188Q82.1777-83.6182 79.3945-79.541Q76.6846-83.6182 72.6685-86.7065Q68.6523-89.7949 63.4888-91.5405Q58.3252-93.2861 52.1729-93.2861Q44.4092-93.2861 37.6221-90.3809Q30.835-87.4756 25.6958-82.0923Q20.5566-76.709 17.6514-69.2871Q14.7461-61.8652 14.7461-52.8564ZM29.9561-52.9785Q29.9561-60.5713 33.0811-66.333Q36.2061-72.0947 41.6016-75.3296Q46.9971-78.5645 53.833-78.5645Q59.2285-78.5645 63.1592-76.7334Q67.0898-74.9023 69.8608-72.1069Q72.6318-69.3115 74.6338-66.333Q75.8789-64.5264 76.9653-63.7207Q78.0518-62.915 79.3945-62.915Q80.7373-62.915 81.7749-63.7329Q82.8125-64.5508 84.1797-66.333Q86.2549-69.2871 89.0503-72.0825Q91.8457-74.8779 95.7275-76.7212Q99.6094-78.5645 104.98-78.5645Q111.816-78.5645 117.224-75.3296Q122.632-72.0947 125.745-66.333Q128.857-60.5713 128.857-52.9785Q128.857-45.1172 125.134-36.8774Q121.411-28.6377 114.795-20.4712Q108.179-12.3047 99.3774-4.61426Q90.5762 3.07617 80.4199 9.83887Q79.6631 10.3516 79.3945 10.3516Q79.1504 10.3516 78.3936 9.83887Q68.2617 3.07617 59.4604-4.61426Q50.6592-12.3047 44.0186-20.4712Q37.3779-28.6377 33.667-36.8774Q29.9561-45.1172 29.9561-52.9785Z"/>
  </g>
  <g id="Semibold-L" transform="matrix(1 0 0 1 1964.75 1556)">
   <path class="multicolor-0:systemRedColor SFSymbolsPreviewFF3B30" d="M14.888-52.9541Q14.888-42.9153 18.9651-33.009Q23.0423-23.1026 30.6198-13.5136Q38.1973-3.92456 48.7862 5.19409Q59.375 14.3127 72.4327 22.7753Q73.9326 23.7808 75.6088 24.5872Q77.285 25.3937 78.5057 25.3937Q79.7752 25.3937 81.435 24.5872Q83.0948 23.7808 84.6283 22.7753Q97.6517 14.3127 108.241 5.19409Q118.83-3.92456 126.407-13.5136Q133.984-23.1026 138.062-33.009Q142.139-42.9153 142.139-52.9541Q142.139-61.6516 139.348-68.8602Q136.557-76.0689 131.548-81.3145Q126.539-86.5601 119.894-89.4032Q113.249-92.2462 105.574-92.2462Q99.5644-92.2462 94.4485-90.4861Q89.3326-88.726 85.3107-85.5545Q81.2889-82.383 78.5057-78.1898Q75.7874-82.383 71.7579-85.5381Q67.7284-88.6932 62.5957-90.4697Q57.4631-92.2462 51.4526-92.2462Q43.7782-92.2462 37.1334-89.4032Q30.4886-86.5601 25.4959-81.3145Q20.5032-76.0689 17.6956-68.8602Q14.888-61.6516 14.888-52.9541ZM27.7077-53.0319Q27.7077-60.9711 30.9483-66.9815Q34.1888-72.9919 39.7797-76.3649Q45.3705-79.7379 52.4734-79.7379Q58.0551-79.7379 62.1548-77.8Q66.2544-75.8621 69.1544-72.9023Q72.0543-69.9425 74.1096-66.7862Q75.2922-65.033 76.2856-64.2895Q77.2789-63.546 78.5057-63.546Q79.7333-63.546 80.6774-64.3063Q81.6216-65.0665 82.9353-66.7862Q85.0548-69.9089 87.9791-72.8687Q90.9035-75.8286 94.9543-77.7832Q99.0051-79.7379 104.554-79.7379Q111.656-79.7379 117.264-76.3649Q122.872-72.9919 126.096-66.9815Q129.32-60.9711 129.32-53.0319Q129.32-44.8151 125.414-36.3132Q121.509-27.8114 114.644-19.4626Q107.779-11.1137 98.7778-3.32565Q89.7766 4.46243 79.5845 11.2518Q78.7659 11.8088 78.5057 11.8088Q78.2616 11.8088 77.4429 11.2518Q67.2844 4.46243 58.2829-3.32565Q49.2813-11.1137 42.392-19.4626Q35.5026-27.8114 31.6051-36.3132Q27.7077-44.8151 27.7077-53.0319Z"/>
  </g>
  <g id="Medium-L" transform="matrix(1 0 0 1 1668.72 1556)">
   <path class="multicolor-0:systemRedColor SFSymbolsPreviewFF3B30" d="M14.9963-53.0281Q14.9963-43.0237 19.0735-33.1676Q23.1506-23.3116 30.7346-13.773Q38.3186-4.23431 48.9212 4.84734Q59.5238 13.929 72.6143 22.3846Q73.8449 23.2079 75.3025 23.8762Q76.7601 24.5445 77.832 24.5445Q78.9528 24.5445 80.3905 23.8762Q81.8283 23.2079 83.0986 22.3846Q96.1494 13.929 106.752 4.84734Q117.355-4.23431 124.939-13.773Q132.523-23.3116 136.6-33.1676Q140.677-43.0237 140.677-53.0281Q140.677-61.4899 137.963-68.5368Q135.25-75.5836 130.349-80.7251Q125.447-85.8665 118.91-88.6623Q112.373-91.4581 104.765-91.4581Q98.8632-91.4581 93.7744-89.6778Q88.6856-87.8975 84.6504-84.6718Q80.6152-81.4461 77.832-77.166Q75.106-81.4461 71.0667-84.6516Q67.0273-87.8571 61.9183-89.6576Q56.8092-91.4581 50.9071-91.4581Q43.2999-91.4581 36.7626-88.6623Q30.2254-85.8665 25.3441-80.7251Q20.4628-75.5836 17.7296-68.5368Q14.9963-61.4899 14.9963-53.0281ZM26.0025-53.0724Q26.0025-61.2747 29.3308-67.474Q32.6591-73.6732 38.3984-77.15Q44.1376-80.6267 51.442-80.6267Q57.1663-80.6267 61.3937-78.6083Q65.6212-76.59 68.6188-73.5054Q71.6164-70.4208 73.7122-67.1303Q74.8474-65.4167 75.7698-64.7205Q76.6922-64.0244 77.832-64.0244Q78.9719-64.0244 79.8454-64.7408Q80.719-65.4572 81.9923-67.1303Q84.1454-70.3812 87.1674-73.4653Q90.1894-76.5495 94.368-78.5881Q98.5466-80.6267 104.23-80.6267Q111.535-80.6267 117.294-77.15Q123.054-73.6732 126.362-67.474Q129.67-61.2747 129.67-53.0724Q129.67-44.5862 125.626-35.8852Q121.583-27.1843 114.529-18.6977Q107.475-10.2112 98.3227-2.34871Q89.1701 5.51376 78.9513 12.323Q78.0846 12.9143 77.832 12.9143Q77.5879 12.9143 76.722 12.323Q66.5428 5.51376 57.3902-2.34871Q48.2376-10.2112 41.1594-18.6977Q34.0813-27.1843 30.0419-35.8852Q26.0025-44.5862 26.0025-53.0724Z"/>
  </g>
  <g id="Regular-L" transform="matrix(1 0 0 1 1372.89 1556)">
   <path class="multicolor-0:systemRedColor SFSymbolsPreviewFF3B30" d="M15.1367-53.125Q15.1367-43.1641 19.2139-33.374Q23.291-23.584 30.8838-14.1113Q38.4766-4.63867 49.0967 4.39453Q59.7168 13.4277 72.8516 21.875Q73.7305 22.4609 74.9023 22.9492Q76.0742 23.4375 76.9531 23.4375Q77.8809 23.4375 79.0283 22.9492Q80.1758 22.4609 81.1035 21.875Q94.1895 13.4277 104.81 4.39453Q115.43-4.63867 123.022-14.1113Q130.615-23.584 134.692-33.374Q138.77-43.1641 138.77-53.125Q138.77-61.2793 136.157-68.1152Q133.545-74.9512 128.784-79.9561Q124.023-84.9609 117.627-87.6953Q111.23-90.4297 103.711-90.4297Q97.9492-90.4297 92.8955-88.623Q87.8418-86.8164 83.7891-83.5205Q79.7363-80.2246 76.9531-75.8301Q74.2188-80.2246 70.166-83.4961Q66.1133-86.7676 61.0352-88.5986Q55.957-90.4297 50.1953-90.4297Q42.6758-90.4297 36.2793-87.6953Q29.8828-84.9609 25.1465-79.9561Q20.4102-74.9512 17.7734-68.1152Q15.1367-61.2793 15.1367-53.125ZM23.7793-53.125Q23.7793-61.6699 27.2217-68.1152Q30.6641-74.5605 36.5967-78.1738Q42.5293-81.7871 50.0977-81.7871Q56.0059-81.7871 60.4004-79.6631Q64.7949-77.5391 67.9199-74.292Q71.0449-71.0449 73.1934-67.5781Q74.2676-65.918 75.0977-65.2832Q75.9277-64.6484 76.9531-64.6484Q77.9785-64.6484 78.7598-65.3076Q79.541-65.9668 80.7617-67.5781Q82.959-70.9961 86.1084-74.2432Q89.2578-77.4902 93.6035-79.6387Q97.9492-81.7871 103.809-81.7871Q111.377-81.7871 117.334-78.1738Q123.291-74.5605 126.709-68.1152Q130.127-61.6699 130.127-53.125Q130.127-44.2871 125.903-35.3271Q121.68-26.3672 114.38-17.7002Q107.08-9.0332 97.7295-1.07422Q88.3789 6.88477 78.125 13.7207Q77.1973 14.3555 76.9531 14.3555Q76.709 14.3555 75.7812 13.7207Q65.5762 6.88477 56.2256-1.07422Q46.875-9.0332 39.5508-17.7002Q32.2266-26.3672 28.0029-35.3271Q23.7793-44.2871 23.7793-53.125Z"/>
  </g>
  <g id="Light-L" transform="matrix(1 0 0 1 1077.74 1556)">
   <path class="multicolor-0:systemRedColor SFSymbolsPreviewFF3B30" d="M14.592-53.125Q14.592-43.3609 18.7145-33.7524Q22.8371-24.144 30.4375-14.838Q38.0379-5.53207 48.5519 3.36494Q59.066 12.262 71.8979 20.6184Q72.641 21.1288 73.6309 21.534Q74.6208 21.9391 75.3944 21.9391Q76.2009 21.9391 77.174 21.534Q78.1471 21.1288 78.9238 20.6184Q91.7221 12.262 102.236 3.36494Q112.75-5.53207 120.351-14.838Q127.951-24.144 132.074-33.7524Q136.196-43.3609 136.196-53.125Q136.196-61.0519 133.652-67.6914Q131.108-74.3309 126.476-79.2068Q121.844-84.0828 115.606-86.7493Q109.369-89.4157 102.046-89.4157Q96.405-89.4157 91.3136-87.5256Q86.2221-85.6354 82.1316-82.1884Q78.0411-78.7415 75.3944-74.1043Q72.7806-78.7415 68.6901-82.1716Q64.5996-85.6018 59.4913-87.5088Q54.3831-89.4157 48.7419-89.4157Q41.4192-89.4157 35.1818-86.7493Q28.9444-84.0828 24.329-79.2068Q19.7136-74.3309 17.1528-67.6914Q14.592-61.0519 14.592-53.125ZM21.2059-53.125Q21.2059-61.9118 24.7921-68.5917Q28.3783-75.2716 34.576-79.0363Q40.7738-82.8011 48.69-82.8011Q54.5227-82.8011 59.008-80.677Q63.4933-78.553 66.7698-75.1621Q70.0462-71.7712 72.2855-67.9108Q73.1476-66.5382 73.8338-65.9946Q74.5201-65.451 75.3944-65.451Q76.268-65.451 76.9283-66.0118Q77.5887-66.5726 78.537-67.9108Q80.8098-71.7377 84.103-75.1286Q87.3962-78.5194 91.8476-80.6602Q96.299-82.8011 102.098-82.8011Q110.014-82.8011 116.229-79.0363Q122.443-75.2716 126.013-68.5917Q129.582-61.9118 129.582-53.125Q129.582-44.2268 125.351-35.2592Q121.12-26.2917 113.721-17.5793Q106.323-8.86688 96.7228-0.764084Q87.1223 7.33871 76.3992 14.4928Q75.6386 15.0215 75.3944 15.0215Q75.1503 15.0215 74.3889 14.4928Q63.6993 7.33871 54.0989-0.764084Q44.4984-8.86688 37.0834-17.5793Q29.6684-26.2917 25.4372-35.2592Q21.2059-44.2268 21.2059-53.125Z"/>
  </g>
  <g id="Thin-L" transform="matrix(1 0 0 1 783.09 1556)">
   <path class="multicolor-0:systemRedColor SFSymbolsPreviewFF3B30" d="M13.871-53.125Q13.871-43.6211 18.0538-34.2529Q22.2366-24.8848 29.847-15.799Q37.4573-6.7131 47.8313 2.00386Q58.2054 10.7208 70.6367 18.9575Q71.199 19.3672 71.9494 19.6621Q72.6997 19.957 73.3322 19.957Q73.9784 19.957 74.7219 19.6621Q75.4654 19.3672 76.0414 18.9575Q88.459 10.7208 98.8331 2.00386Q109.207-6.7131 116.817-15.799Q124.428-24.8848 128.611-34.2529Q132.793-43.6211 132.793-53.125Q132.793-60.7521 130.339-67.131Q127.885-73.51 123.423-78.2158Q118.961-82.9216 112.934-85.498Q106.906-88.0745 99.8436-88.0745Q94.3634-88.0745 89.222-86.0744Q84.0805-84.0744 79.9397-80.4268Q75.7988-76.7792 73.3322-71.8224Q70.8794-76.7792 66.7385-80.4199Q62.5977-84.0607 57.4493-86.0676Q52.301-88.0745 46.8208-88.0745Q39.7583-88.0745 33.7307-85.498Q27.7031-82.9216 23.2479-78.2158Q18.7927-73.51 16.3319-67.131Q13.871-60.7521 13.871-53.125ZM17.8032-53.125Q17.8032-62.2322 21.5794-69.2226Q25.3555-76.2131 31.9035-80.1777Q38.4514-84.1423 46.8285-84.1423Q52.5604-84.1423 57.1659-82.0183Q61.7714-79.8943 65.2481-76.3134Q68.7248-72.7325 71.0838-68.3517Q71.666-67.3592 72.1622-66.9353Q72.6585-66.5115 73.3322-66.5115Q74.0059-66.5115 74.506-66.9422Q75.0061-67.3729 75.5943-68.3517Q77.9671-72.7188 81.4503-76.2997Q84.9335-79.8805 89.5252-82.0114Q94.117-84.1423 99.836-84.1423Q108.213-84.1423 114.768-80.1777Q121.323-76.2131 125.092-69.2226Q128.861-62.2322 128.861-53.125Q128.861-44.1467 124.62-35.1692Q120.379-26.1917 112.851-17.4191Q105.322-8.64639 95.3918-0.353622Q85.4614 7.93915 74.1173 15.5136Q73.5764 15.9019 73.3322 15.9019Q73.0881 15.9019 72.5471 15.5136Q61.2167 7.93915 51.2863-0.353622Q41.3559-8.64639 33.8207-17.4191Q26.2856-26.1917 22.0444-35.1692Q17.8032-44.1467 17.8032-53.125Z"/>
  </g>
  <g id="Ultralight-L" transform="matrix(1 0 0 1 487.435 1556)">
   <path class="multicolor-0:systemRedColor SFSymbolsPreviewFF3B30" d="M13.5017-53.125Q13.5017-43.7546 17.7151-34.5093Q21.9284-25.264 29.5441-16.291Q37.1597-7.31812 47.4621 1.30653Q57.7644 9.93118 69.9905 18.1061Q70.4613 18.4647 71.088 18.7035Q71.7148 18.9423 72.2755 18.9423Q72.8401 18.9423 73.4653 18.7035Q74.0906 18.4647 74.5644 18.1061Q86.7874 9.93118 97.0898 1.30653Q107.392-7.31812 115.008-16.291Q122.623-25.264 126.837-34.5093Q131.05-43.7546 131.05-53.125Q131.05-60.598 128.642-66.8438Q126.234-73.0896 121.859-77.7084Q117.484-82.3273 111.565-84.8572Q105.645-87.3871 98.716-87.3871Q93.3174-87.3871 88.15-85.3306Q82.9826-83.2741 78.8166-79.5242Q74.6506-75.7744 72.2755-70.6535Q69.9051-75.7744 65.7387-79.5227Q61.5723-83.271 56.4034-85.3291Q51.2344-87.3871 45.8359-87.3871Q38.9069-87.3871 32.9872-84.8572Q27.0676-82.3273 22.6944-77.7084Q18.3212-73.0896 15.9115-66.8438Q13.5017-60.598 13.5017-53.125ZM16.0599-53.125Q16.0599-62.3962 19.9337-69.5454Q23.8075-76.6945 30.5347-80.7621Q37.262-84.8297 45.8748-84.8297Q51.5556-84.8297 56.2225-82.7057Q60.8894-80.5817 64.4688-76.9032Q68.0481-73.2246 70.4689-68.5768Q70.9076-67.7795 71.3062-67.4175Q71.7049-67.0555 72.2755-67.0555Q72.847-67.0555 73.2651-67.4194Q73.6832-67.7834 74.0868-68.5768Q76.5106-73.2208 80.0915-76.8993Q83.6723-80.5779 88.3358-82.7038Q92.9993-84.8297 98.6771-84.8297Q107.29-84.8297 114.019-80.7621Q120.748-76.6945 124.62-69.5454Q128.492-62.3962 128.492-53.125Q128.492-44.1055 124.246-35.1227Q120-26.1398 112.405-17.3367Q104.81-8.53348 94.7098-0.143051Q84.61 8.24738 72.9485 16.0362Q72.5197 16.3536 72.2755 16.3536Q72.0314 16.3536 71.6034 16.0362Q59.9457 8.24738 49.8455-0.143051Q39.7453-8.53348 32.1487-17.3367Q24.5522-26.1398 20.306-35.1227Q16.0599-44.1055 16.0599-53.125Z"/>
  </g>
  <g id="Black-M" transform="matrix(1 0 0 1 2869.53 1126)">
   <path class="multicolor-0:systemRedColor SFSymbolsPreviewFF3B30" d="M10.7422-48.584Q10.7422-38.0371 16.2842-27.5635Q21.8262-17.0898 31.7627-7.25098Q41.6992 2.58789 54.7852 11.377Q57.3242 13.0859 59.7412 14.4287Q62.1582 15.7715 63.8672 15.7715Q65.5762 15.7715 67.9688 14.4287Q70.3613 13.0859 72.9492 11.377Q86.0352 2.58789 95.9473-7.25098Q105.859-17.0898 111.426-27.5635Q116.992-38.0371 116.992-48.584Q116.992-56.4941 114.429-62.8906Q111.865-69.2871 107.471-73.8281Q103.076-78.3691 97.4121-80.8105Q91.748-83.252 85.498-83.252Q77.6855-83.252 72.3389-80.4443Q66.9922-77.6367 63.8672-73.3887Q60.7422-77.6367 55.3711-80.4443Q50-83.252 42.2363-83.252Q35.9863-83.252 30.3223-80.8105Q24.6582-78.3691 20.2393-73.8281Q15.8203-69.2871 13.2812-62.8906Q10.7422-56.4941 10.7422-48.584ZM29.541-48.8281Q29.541-53.6621 31.665-57.3975Q33.7891-61.1328 37.4268-63.2324Q41.0645-65.332 45.6055-65.332Q49.1699-65.332 51.6846-64.2578Q54.1992-63.1836 56.0059-61.499Q57.8125-59.8145 59.1797-58.0078Q60.3027-56.4941 61.4014-55.6885Q62.5-54.8828 63.8672-54.8828Q65.2344-54.8828 66.2842-55.6885Q67.334-56.4941 68.457-58.0078Q69.9707-59.8633 71.7529-61.5479Q73.5352-63.2324 76.0254-64.2822Q78.5156-65.332 82.1289-65.332Q86.6699-65.332 90.2832-63.2324Q93.8965-61.1328 96.0205-57.3975Q98.1445-53.6621 98.1445-48.8281Q98.1445-43.8477 95.8496-38.3057Q93.5547-32.7637 89.1846-27.002Q84.8145-21.2402 78.5645-15.5762Q72.3145-9.91211 64.4043-4.63867Q64.0625-4.39453 63.8672-4.39453Q63.623-4.39453 63.3301-4.63867Q55.3711-9.91211 49.1211-15.5762Q42.8711-21.2402 38.501-27.002Q34.1309-32.7637 31.8359-38.3057Q29.541-43.8477 29.541-48.8281Z"/>
  </g>
  <g id="Heavy-M" transform="matrix(1 0 0 1 2573.61 1126)">
   <path class="multicolor-0:systemRedColor SFSymbolsPreviewFF3B30" d="M11.0535-48.6992Q11.0535-38.1866 16.584-27.7824Q22.1146-17.3782 32.0911-7.58514Q42.0677 2.20795 55.3154 10.997Q57.4394 12.4176 59.5222 13.5414Q61.6051 14.6652 63.0836 14.6652Q64.5737 14.6652 66.6378 13.5414Q68.7019 12.4176 70.8633 10.997Q84.1103 2.20795 94.0628-7.58514Q104.015-17.3782 109.565-27.7824Q115.114-38.1866 115.114-48.6992Q115.114-56.2752 112.666-62.4355Q110.217-68.5959 105.978-72.9984Q101.74-77.401 96.2193-79.7733Q90.699-82.1457 84.5184-82.1457Q76.9478-82.1457 71.6011-79.2976Q66.2544-76.4496 63.0836-72.0406Q59.9243-76.4496 54.5532-79.2976Q49.1821-82.1457 41.6489-82.1457Q35.479-82.1457 29.9591-79.7733Q24.4392-77.401 20.1759-72.9984Q15.9126-68.5959 13.483-62.4355Q11.0535-56.2752 11.0535-48.6992ZM27.2705-48.8861Q27.2705-54.1115 29.4983-58.112Q31.7261-62.1124 35.5598-64.3562Q39.3936-66.6 44.1994-66.6Q48.0057-66.6 50.7221-65.3931Q53.4386-64.1861 55.3719-62.323Q57.3051-60.4599 58.7189-58.5037Q59.819-57.0015 60.8253-56.2649Q61.8317-55.5283 63.0836-55.5283Q64.3356-55.5283 65.2988-56.2706Q66.2621-57.0129 67.3737-58.5037Q68.9217-60.4858 70.8424-62.3547Q72.7631-64.2235 75.4433-65.4118Q78.1235-66.6 81.9679-66.6Q86.7737-66.6 90.5888-64.3562Q94.4038-62.1124 96.6316-58.112Q98.8594-54.1115 98.8594-48.8861Q98.8594-43.4792 96.3337-37.603Q93.808-31.7268 89.1499-25.7462Q84.4917-19.7655 78.0399-14.0034Q71.5881-8.24127 63.736-3.01361Q63.279-2.6886 63.0836-2.6886Q62.851-2.6886 62.4428-3.01361Q54.5532-8.24127 48.1014-14.0034Q41.6496-19.7655 36.9854-25.7462Q32.3212-31.7268 29.7958-37.603Q27.2705-43.4792 27.2705-48.8861Z"/>
  </g>
  <g id="Bold-M" transform="matrix(1 0 0 1 2277.77 1126)">
   <path class="multicolor-0:systemRedColor SFSymbolsPreviewFF3B30" d="M11.4014-48.8281Q11.4014-38.3545 16.9189-28.0273Q22.4365-17.7002 32.4585-7.95898Q42.4805 1.78223 55.9082 10.5713Q57.5684 11.6699 59.2773 12.5488Q60.9863 13.4277 62.207 13.4277Q63.4521 13.4277 65.1489 12.5488Q66.8457 11.6699 68.5303 10.5713Q81.958 1.78223 91.9556-7.95898Q101.953-17.7002 107.483-28.0273Q113.013-38.3545 113.013-48.8281Q113.013-56.0303 110.693-61.9263Q108.374-67.8223 104.309-72.0703Q100.244-76.3184 94.8853-78.6133Q89.5264-80.9082 83.4229-80.9082Q76.123-80.9082 70.7764-78.0151Q65.4297-75.1221 62.207-70.5322Q59.0088-75.1221 53.6377-78.0151Q48.2666-80.9082 40.9912-80.9082Q34.9121-80.9082 29.5532-78.6133Q24.1943-76.3184 20.105-72.0703Q16.0156-67.8223 13.7085-61.9263Q11.4014-56.0303 11.4014-48.8281ZM24.7314-48.9502Q24.7314-54.6143 27.0752-58.9111Q29.4189-63.208 33.4717-65.6128Q37.5244-68.0176 42.627-68.0176Q46.7041-68.0176 49.646-66.6626Q52.5879-65.3076 54.6631-63.2446Q56.7383-61.1816 58.2031-59.0576Q59.2773-57.5684 60.1807-56.9092Q61.084-56.25 62.207-56.25Q63.3301-56.25 64.1968-56.9214Q65.0635-57.5928 66.1621-59.0576Q67.749-61.1816 69.8242-63.2568Q71.8994-65.332 74.7925-66.6748Q77.6855-68.0176 81.7871-68.0176Q86.8896-68.0176 90.9302-65.6128Q94.9707-63.208 97.3145-58.9111Q99.6582-54.6143 99.6582-48.9502Q99.6582-43.0664 96.875-36.8164Q94.0918-30.5664 89.1113-24.3408Q84.1309-18.1152 77.4536-12.2437Q70.7764-6.37207 62.9883-1.19629Q62.4023-0.78125 62.207-0.78125Q61.9873-0.78125 61.4502-1.19629Q53.6377-6.37207 46.9604-12.2437Q40.2832-18.1152 35.2905-24.3408Q30.2979-30.5664 27.5146-36.8164Q24.7314-43.0664 24.7314-48.9502Z"/>
  </g>
  <g id="Semibold-M" transform="matrix(1 0 0 1 1981.66 1126)">
   <path class="multicolor-0:systemRedColor SFSymbolsPreviewFF3B30" d="M11.6417-48.9166Q11.6417-38.4697 17.1501-28.196Q22.6585-17.9222 32.7118-8.21648Q42.765 1.48926 56.3171 10.2783Q57.6569 11.1542 59.1084 11.8645Q60.5598 12.5748 61.6028 12.5748Q62.6793 12.5748 64.1228 11.8645Q65.5663 11.1542 66.922 10.2783Q80.4741 1.48926 90.5025-8.21648Q100.531-17.9222 106.047-28.196Q111.564-38.4697 111.564-48.9166Q111.564-55.8617 109.333-61.5753Q107.103-67.289 103.158-71.4306Q99.2134-75.5722 93.9655-77.8137Q88.7177-80.0552 82.6675-80.0552Q75.5547-80.0552 70.208-77.1309Q64.8613-74.2065 61.6028-69.4923Q58.3778-74.2065 53.0067-77.1309Q47.6357-80.0552 40.538-80.0552Q34.5207-80.0552 29.2732-77.8137Q24.0257-75.5722 20.0562-71.4306Q16.0866-67.289 13.8641-61.5753Q11.6417-55.8617 11.6417-48.9166ZM22.9805-48.9944Q22.9805-54.9606 25.4044-59.462Q27.8282-63.9633 32.032-66.4791Q36.2358-68.9949 41.5428-68.9949Q45.8069-68.9949 48.904-67.5377Q52.0012-66.0805 54.174-63.8798Q56.3469-61.6791 57.8476-59.4398Q58.9043-57.9597 59.7363-57.3536Q60.5682-56.7474 61.6028-56.7474Q62.6366-56.7474 63.4369-57.37Q64.2372-57.9926 65.3267-59.4398Q66.9403-61.6615 69.1223-63.879Q71.3043-66.0965 74.3439-67.5457Q77.3834-68.9949 81.6628-68.9949Q86.9698-68.9949 91.1659-66.4791Q95.3621-63.9633 97.7856-59.462Q100.209-54.9606 100.209-48.9944Q100.209-42.7818 97.2481-36.2743Q94.2871-29.7668 89.0846-23.3723Q83.8821-16.9777 77.0493-11.0306Q70.2164-5.08347 62.4725 0.0564575Q61.7981 0.534058 61.6028 0.534058Q61.3922 0.534058 60.7658 0.0564575Q53.0067-5.08347 46.1739-11.0306Q39.341-16.9777 34.1217-23.3723Q28.9024-29.7668 25.9415-36.2743Q22.9805-42.7818 22.9805-48.9944Z"/>
  </g>
  <g id="Medium-M" transform="matrix(1 0 0 1 1685.41 1126)">
   <path class="multicolor-0:systemRedColor SFSymbolsPreviewFF3B30" d="M11.8233-48.9845Q11.8233-38.5574 17.3252-28.3241Q22.8271-18.0908 32.9037-8.41217Q42.9802 1.26648 56.6269 10.0555Q57.7248 10.7635 58.9806 11.3457Q60.2364 11.9278 61.1443 11.9278Q62.0926 11.9278 63.3442 11.3457Q64.5958 10.7635 65.7021 10.0555Q79.3488 1.26648 89.4009-8.41217Q99.453-18.0908 104.959-28.3241Q110.466-38.5574 110.466-48.9845Q110.466-55.7335 108.303-61.3091Q106.139-66.8846 102.285-70.9454Q98.4314-75.0061 93.2678-77.2072Q88.1042-79.4083 82.0946-79.4083Q75.1228-79.4083 69.7762-76.4606Q64.4295-73.513 61.1443-68.7042Q57.8995-73.513 52.5284-76.4606Q47.1573-79.4083 40.1939-79.4083Q34.2247-79.4083 29.0611-77.2072Q23.8976-75.0061 20.0191-70.9454Q16.1407-66.8846 13.982-61.3091Q11.8233-55.7335 11.8233-48.9845ZM21.653-49.028Q21.653-55.2238 24.1375-59.8801Q26.622-64.5363 30.9402-67.1364Q35.2585-69.7365 40.7204-69.7365Q45.1256-69.7365 48.341-68.2018Q51.5564-66.6672 53.8036-64.362Q56.0509-62.0567 57.5783-59.7298Q58.6212-58.2558 59.3994-57.6904Q60.1776-57.1251 61.1443-57.1251Q62.1117-57.1251 62.8609-57.7106Q63.6101-58.2962 64.6935-59.7298Q66.3269-62.0255 68.5898-64.3505Q70.8527-66.6756 74.0036-68.206Q77.1545-69.7365 81.5681-69.7365Q87.03-69.7365 91.3441-67.1364Q95.6581-64.5363 98.1426-59.8801Q100.627-55.2238 100.627-49.028Q100.627-42.5667 97.5315-35.8635Q94.4359-29.1603 89.0648-22.6379Q83.6937-16.1156 76.7429-10.1109Q69.7922-4.10614 62.0819 1.00708Q61.3396 1.53122 61.1443 1.53122Q60.9406 1.53122 60.247 1.00708Q52.5284-4.10614 45.5776-10.1109Q38.6269-16.1156 33.2359-22.6379Q27.845-29.1603 24.749-35.8635Q21.653-42.5667 21.653-49.028Z"/>
  </g>
  <g id="Regular-M" transform="matrix(1 0 0 1 1389.3 1126)">
   <path class="multicolor-0:systemRedColor SFSymbolsPreviewFF3B30" d="M12.0605-49.0723Q12.0605-38.6719 17.5537-28.4912Q23.0469-18.3105 33.1543-8.66699Q43.2617 0.976562 57.0312 9.76562Q57.8125 10.2539 58.8135 10.6689Q59.8145 11.084 60.5469 11.084Q61.3281 11.084 62.3291 10.6689Q63.3301 10.2539 64.1113 9.76562Q77.8809 0.976562 87.9639-8.66699Q98.0469-18.3105 103.54-28.4912Q109.033-38.6719 109.033-49.0723Q109.033-55.5664 106.958-60.9619Q104.883-66.3574 101.147-70.3125Q97.4121-74.2676 92.3584-76.416Q87.3047-78.5645 81.3477-78.5645Q74.5605-78.5645 69.2139-75.5859Q63.8672-72.6074 60.5469-67.6758Q57.2754-72.6074 51.9043-75.5859Q46.5332-78.5645 39.7461-78.5645Q33.8379-78.5645 28.7842-76.416Q23.7305-74.2676 19.9707-70.3125Q16.2109-66.3574 14.1357-60.9619Q12.0605-55.5664 12.0605-49.0723ZM19.9219-49.0723Q19.9219-55.5664 22.4854-60.4248Q25.0488-65.2832 29.5166-67.9932Q33.9844-70.7031 39.6484-70.7031Q44.2383-70.7031 47.6074-69.0674Q50.9766-67.4316 53.3203-64.9902Q55.6641-62.5488 57.2266-60.1074Q58.252-58.6426 58.96-58.1299Q59.668-57.6172 60.5469-57.6172Q61.4258-57.6172 62.1094-58.1543Q62.793-58.6914 63.8672-60.1074Q65.5273-62.5 67.8955-64.9658Q70.2637-67.4316 73.5596-69.0674Q76.8555-70.7031 81.4453-70.7031Q87.1094-70.7031 91.5771-67.9932Q96.0449-65.2832 98.6084-60.4248Q101.172-55.5664 101.172-49.0723Q101.172-42.2852 97.9004-35.3271Q94.6289-28.3691 89.0381-21.6797Q83.4473-14.9902 76.3428-8.91113Q69.2383-2.83203 61.5723 2.24609Q60.7422 2.83203 60.5469 2.83203Q60.3516 2.83203 59.5703 2.24609Q51.9043-2.83203 44.7998-8.91113Q37.6953-14.9902 32.0801-21.6797Q26.4648-28.3691 23.1934-35.3271Q19.9219-42.2852 19.9219-49.0723Z"/>
  </g>
  <g id="Light-M" transform="matrix(1 0 0 1 1093.99 1126)">
   <path class="multicolor-0:systemRedColor SFSymbolsPreviewFF3B30" d="M11.5608-49.0723Q11.5608-38.8992 17.1146-28.9379Q22.6685-18.9766 32.7076-9.51462Q42.7467-0.0526428 56.1531 8.63037Q56.8138 9.05838 57.6557 9.39751Q58.4976 9.73663 59.1393 9.73663Q59.8145 9.73663 60.6491 9.39751Q61.4838 9.05838 62.1437 8.63037Q75.5653-0.0526428 85.5877-9.51462Q95.61-18.9766 101.164-28.9379Q106.718-38.8992 106.718-49.0723Q106.718-55.3543 104.703-60.5835Q102.688-65.8127 99.0585-69.6465Q95.4292-73.4802 90.527-75.5684Q85.6247-77.6566 79.834-77.6566Q73.2132-77.6566 67.7456-74.5113Q62.278-71.3661 59.1393-66.1316Q56.0188-71.3661 50.5421-74.5113Q45.0653-77.6566 38.4445-77.6566Q32.6874-77.6566 27.7851-75.5684Q22.8828-73.4802 19.2368-69.6465Q15.5907-65.8127 13.5757-60.5835Q11.5608-55.3543 11.5608-49.0723ZM17.6064-49.0723Q17.6064-55.7938 20.2984-60.8639Q22.9904-65.934 27.6928-68.7801Q32.3952-71.6263 38.3766-71.6263Q42.9062-71.6263 46.3509-69.9829Q49.7955-68.3395 52.2758-65.7772Q54.7562-63.2149 56.4095-60.4103Q57.2227-59.2026 57.8094-58.7654Q58.3961-58.3282 59.1393-58.3282Q59.8816-58.3282 60.4519-58.7822Q61.0222-59.2361 61.8538-60.4103Q63.5902-63.1813 66.087-65.7604Q68.5837-68.3395 71.978-69.9829Q75.3723-71.6263 79.9011-71.6263Q85.8833-71.6263 90.5781-68.7801Q95.2728-65.934 97.9725-60.8639Q100.672-55.7938 100.672-49.0723Q100.672-42.2394 97.393-35.2741Q94.1139-28.3089 88.4323-21.5813Q82.7507-14.8537 75.4269-8.63838Q68.103-2.4231 60.0136 2.94266Q59.3346 3.42255 59.1393 3.42255Q58.9439 3.42255 58.2985 2.94266Q50.209-2.4231 42.8852-8.63838Q35.5614-14.8537 29.8626-21.5813Q24.1638-28.3089 20.8851-35.2741Q17.6064-42.2394 17.6064-49.0723Z"/>
  </g>
  <g id="Thin-M" transform="matrix(1 0 0 1 799.145 1126)">
   <path class="multicolor-0:systemRedColor SFSymbolsPreviewFF3B30" d="M10.9001-49.0723Q10.9001-39.1991 16.534-29.528Q22.168-19.857 32.1171-10.6354Q42.0662-1.41373 54.9919 7.12891Q55.4924 7.47681 56.1241 7.71599Q56.7558 7.95517 57.2777 7.95517Q57.8125 7.95517 58.4267 7.71599Q59.0408 7.47681 59.5413 7.12891Q72.5021-1.41373 82.4444-10.6354Q92.3866-19.857 98.0206-29.528Q103.654-39.1991 103.654-49.0723Q103.654-55.0743 101.72-60.083Q99.7856-65.0917 96.2963-68.7656Q92.807-72.4396 88.1046-74.4473Q83.4023-76.4549 77.832-76.4549Q71.4317-76.4549 65.8039-73.09Q60.1761-69.725 57.2777-64.09Q54.3579-69.725 48.7404-73.09Q43.1229-76.4549 36.7226-76.4549Q31.1661-76.4549 26.4641-74.4473Q21.7621-72.4396 18.2659-68.7656Q14.7697-65.0917 12.8349-60.083Q10.9001-55.0743 10.9001-49.0723ZM14.5432-49.0723Q14.5432-56.0936 17.4053-61.4441Q20.2675-66.7946 25.2804-69.8212Q30.2933-72.8477 36.6951-72.8477Q41.1446-72.8477 44.6896-71.1945Q48.2346-69.5412 50.8945-66.8182Q53.5545-64.0953 55.3284-60.8109Q55.8617-59.9434 56.2881-59.6066Q56.7146-59.2697 57.2777-59.2697Q57.84-59.2697 58.26-59.6134Q58.68-59.9571 59.1919-60.8109Q61.0275-64.0823 63.6944-66.8118Q66.3612-69.5412 69.8856-71.1945Q73.41-72.8477 77.8595-72.8477Q84.2621-72.8477 89.257-69.8212Q94.252-66.7946 97.1317-61.4441Q100.011-56.0936 100.011-49.0723Q100.011-42.1799 96.7224-35.2043Q93.4334-28.2288 87.6316-21.4512Q81.8298-14.6736 74.2157-8.27827Q66.6016-1.88293 57.9514 3.86353Q57.473 4.20303 57.2777 4.20303Q57.0824 4.20303 56.617 3.86353Q47.9668-1.88293 40.3526-8.27827Q32.7385-14.6736 26.9299-21.4512Q21.1212-28.2288 17.8322-35.2043Q14.5432-42.1799 14.5432-49.0723Z"/>
  </g>
  <g id="Ultralight-M" transform="matrix(1 0 0 1 503.387 1126)">
   <path class="multicolor-0:systemRedColor SFSymbolsPreviewFF3B30" d="M10.5621-49.0723Q10.5621-39.3532 16.2369-29.8309Q21.9116-20.3087 31.8146-11.2099Q41.7175-2.11105 54.3976 6.35986Q54.8157 6.66656 55.3398 6.85463Q55.864 7.04269 56.324 7.04269Q56.7871 7.04269 57.2887 6.85463Q57.7904 6.66656 58.2077 6.35986Q70.9335-2.11105 80.8346-11.2099Q90.7356-20.3087 96.4108-29.8309Q102.086-39.3532 102.086-49.0723Q102.086-54.9309 100.192-59.8267Q98.2986-64.7224 94.8811-68.3144Q91.4635-71.9063 86.8637-73.8731Q82.2639-75.84 76.8066-75.84Q70.5193-75.84 64.809-72.3618Q59.0988-68.8835 56.324-63.044Q53.5065-68.8835 47.8176-72.3618Q42.1288-75.84 35.8406-75.84Q30.3871-75.84 25.7874-73.8731Q21.1876-71.9063 17.7685-68.3144Q14.3494-64.7224 12.4557-59.8267Q10.5621-54.9309 10.5621-49.0723ZM12.9745-49.0723Q12.9745-56.2477 15.9237-61.7416Q18.8728-67.2356 24.0444-70.3545Q29.216-73.4734 35.8337-73.4734Q40.242-73.4734 43.8381-71.8147Q47.4342-70.1561 50.1869-67.3515Q52.9396-64.547 54.7745-61.0153Q55.1643-60.3226 55.5088-60.0368Q55.8533-59.7511 56.324-59.7511Q56.794-59.7511 57.1369-60.0388Q57.4799-60.3264 57.8278-61.0153Q59.7153-64.5432 62.4691-67.3496Q65.2229-70.1561 68.8141-71.8147Q72.4052-73.4734 76.8135-73.4734Q83.4312-73.4734 88.5803-70.3545Q93.7294-67.2356 96.7014-61.7416Q99.6735-56.2477 99.6735-49.0723Q99.6735-42.1486 96.3791-35.1681Q93.0847-28.1876 87.2215-21.3844Q81.3583-14.5813 73.5954-8.09364Q65.8325-1.60599 56.8947 4.33502Q56.5193 4.60281 56.324 4.60281Q56.1287 4.60281 55.7556 4.33502Q46.8185-1.60599 39.0556-8.09364Q31.2927-14.5813 25.4276-21.3844Q19.5625-28.1876 16.2685-35.1681Q12.9745-42.1486 12.9745-49.0723Z"/>
  </g>
  <g id="Black-S" transform="matrix(1 0 0 1 2883.2 696)">
   <path class="multicolor-0:systemRedColor SFSymbolsPreviewFF3B30" d="M8.30078-45.6543Q8.30078-37.4023 12.6465-29.1992Q16.9922-20.9961 24.7559-13.2812Q32.5195-5.56641 42.7246 1.31836Q44.873 2.73438 46.8506 3.85742Q48.8281 4.98047 50.1953 4.98047Q51.6113 4.98047 53.5889 3.85742Q55.5664 2.73438 57.666 1.31836Q67.8711-5.56641 75.6348-13.2812Q83.3984-20.9961 87.7441-29.1992Q92.0898-37.4023 92.0898-45.6543Q92.0898-54.0527 88.5986-60.2051Q85.1074-66.3574 79.4189-69.751Q73.7305-73.1445 67.1875-73.1445Q61.0352-73.1445 56.8359-70.9473Q52.6367-68.75 50.1953-65.4297Q47.8027-68.75 43.5791-70.9473Q39.3555-73.1445 33.2031-73.1445Q26.6602-73.1445 20.9717-69.751Q15.2832-66.3574 11.792-60.2051Q8.30078-54.0527 8.30078-45.6543ZM23.7305-45.8496Q23.7305-49.5605 25.3662-52.3926Q27.002-55.2246 29.8096-56.8604Q32.6172-58.4961 36.084-58.4961Q38.8184-58.4961 40.7227-57.6904Q42.627-56.8848 44.0186-55.6152Q45.4102-54.3457 46.4844-52.9297Q47.3145-51.7578 48.2178-51.123Q49.1211-50.4883 50.1953-50.4883Q51.3184-50.4883 52.1484-51.123Q52.9785-51.7578 53.8574-52.9297Q55.0293-54.3945 56.3965-55.6641Q57.7637-56.9336 59.668-57.7148Q61.5723-58.4961 64.3066-58.4961Q67.8223-58.4961 70.6055-56.8604Q73.3887-55.2246 75.0244-52.3926Q76.6602-49.5605 76.6602-45.8496Q76.6602-42.0898 74.9268-37.8418Q73.1934-33.5938 69.8486-29.1504Q66.5039-24.707 61.6699-20.2881Q56.8359-15.8691 50.5859-11.7188Q50.3906-11.5723 50.1953-11.5723Q50.0488-11.5723 49.8047-11.7188Q43.5547-15.8691 38.7207-20.2881Q33.8867-24.707 30.542-29.1504Q27.1973-33.5938 25.4639-37.8418Q23.7305-42.0898 23.7305-45.8496Z"/>
  </g>
  <g id="Heavy-S" transform="matrix(1 0 0 1 2586.99 696)">
   <path class="multicolor-0:systemRedColor SFSymbolsPreviewFF3B30" d="M8.6235-45.7581Q8.6235-37.5061 12.952-29.3316Q17.2806-21.1571 25.0843-13.4598Q32.888-5.76248 43.2777 1.13373Q45.0806 2.31934 46.793 3.26385Q48.5054 4.20837 49.6994 4.20837Q50.9315 4.20837 52.6497 3.26385Q54.3678 2.31934 56.1218 1.13373Q66.5115-5.76248 74.3153-13.4598Q82.119-21.1571 86.4475-29.3316Q90.7761-37.5061 90.7761-45.7581Q90.7761-53.7994 87.429-59.7557Q84.082-65.712 78.5549-69.0132Q73.0278-72.3145 66.5421-72.3145Q60.5629-72.3145 56.3808-70.1057Q52.1988-67.897 49.6994-64.473Q47.2496-67.8856 43.0431-70.1Q38.8367-72.3145 32.8575-72.3145Q26.3718-72.3145 20.8447-69.0132Q15.3175-65.712 11.9705-59.7557Q8.6235-53.7994 8.6235-45.7581ZM22.0711-45.9076Q22.0711-49.9176 23.7816-52.9572Q25.4921-55.9967 28.4382-57.7305Q31.3843-59.4643 35.0471-59.4643Q37.9883-59.4643 40.0539-58.5491Q42.1196-57.634 43.6035-56.226Q45.0874-54.818 46.1845-53.3218Q47.0261-52.1263 47.8661-51.532Q48.7061-50.9377 49.6994-50.9377Q50.7309-50.9377 51.5091-51.532Q52.2873-52.1263 53.1776-53.3218Q54.3724-54.8439 55.8376-56.2519Q57.3029-57.6599 59.3628-58.5621Q61.4227-59.4643 64.3646-59.4643Q68.0641-59.4643 70.9858-57.7305Q73.9075-55.9967 75.618-52.9572Q77.3285-49.9176 77.3285-45.9076Q77.3285-41.7786 75.3994-37.2482Q73.4703-32.7179 69.8891-28.0903Q66.3078-23.4627 61.3239-18.98Q56.34-14.4974 50.206-10.4164Q49.8833-10.1891 49.6994-10.1891Q49.5529-10.1891 49.2058-10.4164Q43.0588-14.4974 38.0753-18.98Q33.0917-23.4627 29.5105-28.0903Q25.9293-32.7179 24.0002-37.2482Q22.0711-41.7786 22.0711-45.9076Z"/>
  </g>
  <g id="Bold-S" transform="matrix(1 0 0 1 2290.83 696)">
   <path class="multicolor-0:systemRedColor SFSymbolsPreviewFF3B30" d="M8.98438-45.874Q8.98438-37.6221 13.2935-29.48Q17.6025-21.3379 25.4517-13.6597Q33.3008-5.98145 43.8965 0.927734Q45.3125 1.85547 46.7285 2.6001Q48.1445 3.34473 49.1455 3.34473Q50.1709 3.34473 51.5991 2.6001Q53.0273 1.85547 54.3945 0.927734Q64.9902-5.98145 72.8394-13.6597Q80.6885-21.3379 84.9976-29.48Q89.3066-37.6221 89.3066-45.874Q89.3066-53.5156 86.1206-59.2529Q82.9346-64.9902 77.5879-68.1885Q72.2412-71.3867 65.8203-71.3867Q60.0342-71.3867 55.8716-69.165Q51.709-66.9434 49.1455-63.4033Q46.6309-66.9189 42.4438-69.1528Q38.2568-71.3867 32.4707-71.3867Q26.0498-71.3867 20.7031-68.1885Q15.3564-64.9902 12.1704-59.2529Q8.98438-53.5156 8.98438-45.874ZM20.2148-45.9717Q20.2148-50.3174 22.0093-53.5889Q23.8037-56.8604 26.9043-58.7036Q30.0049-60.5469 33.8867-60.5469Q37.0605-60.5469 39.3066-59.5093Q41.5527-58.4717 43.1396-56.9092Q44.7266-55.3467 45.8496-53.7598Q46.7041-52.5391 47.4731-51.9897Q48.2422-51.4404 49.1455-51.4404Q50.0732-51.4404 50.7935-51.9897Q51.5137-52.5391 52.417-53.7598Q53.6377-55.3467 55.2124-56.9092Q56.7871-58.4717 59.021-59.5093Q61.2549-60.5469 64.4287-60.5469Q68.335-60.5469 71.4111-58.7036Q74.4873-56.8604 76.2817-53.5889Q78.0762-50.3174 78.0762-45.9717Q78.0762-41.4307 75.9277-36.5845Q73.7793-31.7383 69.9341-26.9043Q66.0889-22.0703 60.9375-17.5171Q55.7861-12.9639 49.7803-8.95996Q49.3164-8.64258 49.1455-8.64258Q48.999-8.64258 48.5352-8.95996Q42.5049-12.9639 37.3535-17.5171Q32.2021-22.0703 28.3569-26.9043Q24.5117-31.7383 22.3633-36.5845Q20.2148-41.4307 20.2148-45.9717Z"/>
  </g>
  <g id="Semibold-S" transform="matrix(1 0 0 1 1994.5 696)">
   <path class="multicolor-0:systemRedColor SFSymbolsPreviewFF3B30" d="M9.23309-45.9541Q9.23309-37.7022 13.5288-29.5822Q17.8246-21.4622 25.705-13.7974Q33.5854-6.13251 44.323 0.785828Q45.4727 1.5358 46.6843 2.14272Q47.8958 2.74963 48.7633 2.74963Q49.6468 2.74963 50.8751 2.14272Q52.1034 1.5358 53.2036 0.785828Q63.9412-6.13251 71.8216-13.7974Q79.702-21.4622 83.9977-29.5822Q88.2935-37.7022 88.2935-45.9541Q88.2935-53.3203 85.2184-58.9066Q82.1434-64.4928 76.9211-67.6197Q71.6988-70.7466 65.3229-70.7466Q59.6695-70.7466 55.5202-68.5162Q51.371-66.2857 48.7633-62.6656Q46.2044-66.2521 42.0307-68.4994Q37.8571-70.7466 32.2044-70.7466Q25.8278-70.7466 20.6055-67.6197Q15.3831-64.4928 12.3081-58.9066Q9.23309-53.3203 9.23309-45.9541ZM18.9354-46.0159Q18.9354-50.5928 20.7874-54.0241Q22.6395-57.4554 25.8469-59.3742Q29.0543-61.293 33.0872-61.293Q36.4204-61.293 38.7909-60.1711Q41.1613-59.0492 42.8196-57.3803Q44.4778-55.7114 45.6184-54.0619Q46.4821-52.8236 47.2023-52.3052Q47.9225-51.7868 48.7633-51.7868Q49.6201-51.7868 50.3002-52.3052Q50.9804-52.8236 51.8929-54.0619Q53.1311-55.6931 54.7813-57.3624Q56.4316-59.0317 58.7856-60.1624Q61.1397-61.293 64.473-61.293Q68.5219-61.293 71.7045-59.3742Q74.8871-57.4554 76.7395-54.0241Q78.5919-50.5928 78.5919-46.0159Q78.5919-41.1903 76.2924-36.1267Q73.9929-31.0631 69.9654-26.0868Q65.9378-21.1105 60.6709-16.5085Q55.4039-11.9064 49.4873-7.95593Q48.925-7.57599 48.7633-7.57599Q48.6168-7.57599 48.0728-7.95593Q42.1227-11.9064 36.8557-16.5085Q31.5887-21.1105 27.5616-26.0868Q23.5344-31.0631 21.2349-36.1267Q18.9354-41.1903 18.9354-46.0159Z"/>
  </g>
  <g id="Medium-S" transform="matrix(1 0 0 1 1698.08 696)">
   <path class="multicolor-0:systemRedColor SFSymbolsPreviewFF3B30" d="M9.42154-46.0144Q9.42154-37.7625 13.7074-29.6597Q17.9932-21.5569 25.8968-13.9019Q33.8005-6.24695 44.6465 0.67749Q45.594 1.29318 46.6507 1.79558Q47.7074 2.29797 48.4734 2.29797Q49.2493 2.29797 50.3258 1.79558Q51.4023 1.29318 52.301 0.67749Q63.1462-6.24695 71.0503-13.9019Q78.9543-21.5569 83.2397-29.6597Q87.5252-37.7625 87.5252-46.0144Q87.5252-53.1715 84.5345-58.6433Q81.5437-64.1151 76.416-67.1883Q71.2883-70.2614 64.9452-70.2614Q59.3933-70.2614 55.2544-68.0241Q51.1154-65.7867 48.4734-62.1063Q45.8809-65.7471 41.7171-68.0042Q37.5534-70.2614 32.0023-70.2614Q25.6592-70.2614 20.5311-67.1883Q15.403-64.1151 12.4123-58.6433Q9.42154-53.1715 9.42154-46.0144ZM17.9649-46.0495Q17.9649-50.8018 19.8608-54.3545Q21.7567-57.9071 25.045-59.8831Q28.3333-61.8591 32.4806-61.8591Q35.9352-61.8591 38.4003-60.6731Q40.8653-59.4872 42.5774-57.7374Q44.2894-55.9875 45.4437-54.2908Q46.3135-53.0388 46.9967-52.5444Q47.6799-52.05 48.4734-52.05Q49.276-52.05 49.926-52.5444Q50.576-53.0388 51.4954-54.2908Q52.7473-55.9563 54.4548-57.7061Q56.1623-59.4559 58.6071-60.6575Q61.0519-61.8591 64.5065-61.8591Q68.663-61.8591 71.9269-59.8831Q75.1907-57.9071 77.0866-54.3545Q78.9825-50.8018 78.9825-46.0495Q78.9825-41.0088 76.5686-35.7796Q74.1547-30.5504 69.989-25.4665Q65.8234-20.3827 60.4687-15.7436Q55.114-11.1046 49.2645-7.19452Q48.629-6.76727 48.4734-6.76727Q48.3269-6.76727 47.7226-7.19452Q41.8327-11.1046 36.4784-15.7436Q31.1241-20.3827 26.9585-25.4665Q22.7928-30.5504 20.3789-35.7796Q17.9649-41.0088 17.9649-46.0495Z"/>
  </g>
  <g id="Regular-S" transform="matrix(1 0 0 1 1401.75 696)">
   <path class="multicolor-0:systemRedColor SFSymbolsPreviewFF3B30" d="M9.66797-46.0938Q9.66797-37.8418 13.9404-29.7607Q18.2129-21.6797 26.1475-14.0381Q34.082-6.39648 45.0684 0.537109Q45.752 0.976562 46.6064 1.34277Q47.4609 1.70898 48.0957 1.70898Q48.7305 1.70898 49.6094 1.34277Q50.4883 0.976562 51.123 0.537109Q62.1094-6.39648 70.0439-14.0381Q77.9785-21.6797 82.251-29.7607Q86.5234-37.8418 86.5234-46.0938Q86.5234-52.9785 83.6426-58.3008Q80.7617-63.623 75.7568-66.626Q70.752-69.6289 64.4531-69.6289Q59.0332-69.6289 54.9072-67.3828Q50.7812-65.1367 48.0957-61.377Q45.459-65.0879 41.3086-67.3584Q37.1582-69.6289 31.7383-69.6289Q25.4395-69.6289 20.4346-66.626Q15.4297-63.623 12.5488-58.3008Q9.66797-52.9785 9.66797-46.0938ZM16.6992-46.0938Q16.6992-51.0742 18.6523-54.7852Q20.6055-58.4961 23.999-60.5469Q27.3926-62.5977 31.6895-62.5977Q35.3027-62.5977 37.8906-61.3281Q40.4785-60.0586 42.2607-58.2031Q44.043-56.3477 45.2148-54.5898Q46.0938-53.3203 46.7285-52.8564Q47.3633-52.3926 48.0957-52.3926Q48.8281-52.3926 49.4385-52.8564Q50.0488-53.3203 50.9766-54.5898Q52.2461-56.2988 54.0283-58.1543Q55.8105-60.0098 58.374-61.3037Q60.9375-62.5977 64.5508-62.5977Q68.8477-62.5977 72.2168-60.5469Q75.5859-58.4961 77.5391-54.7852Q79.4922-51.0742 79.4922-46.0938Q79.4922-40.7715 76.9287-35.3271Q74.3652-29.8828 70.0195-24.6582Q65.6738-19.4336 60.2051-14.7461Q54.7363-10.0586 48.9746-6.20117Q48.2422-5.71289 48.0957-5.71289Q47.9492-5.71289 47.2656-6.20117Q41.4551-10.0586 35.9863-14.7461Q30.5176-19.4336 26.1719-24.6582Q21.8262-29.8828 19.2627-35.3271Q16.6992-40.7715 16.6992-46.0938Z"/>
  </g>
  <g id="Light-S" transform="matrix(1 0 0 1 1106.28 696)">
   <path class="multicolor-0:systemRedColor SFSymbolsPreviewFF3B30" d="M9.22928-46.0938Q9.22928-38.0386 13.5548-30.1468Q17.8802-22.2549 25.7618-14.7724Q33.6433-7.28989 44.3115-0.447083Q44.8738-0.0831604 45.5845 0.215149Q46.2952 0.513458 46.8544 0.513458Q47.3984 0.513458 48.1335 0.215149Q48.8686-0.0831604 49.3973-0.447083Q60.0662-7.28989 67.9478-14.7724Q75.8293-22.2549 80.1548-30.1468Q84.4803-38.0386 84.4803-46.0938Q84.4803-52.7367 81.6902-57.8697Q78.9001-63.0028 74.0616-65.9145Q69.223-68.8263 63.121-68.8263Q57.8522-68.8263 53.6205-66.4291Q49.3889-64.032 46.8544-60.0143Q44.3542-63.9984 40.1054-66.4124Q35.8566-68.8263 30.5878-68.8263Q24.4858-68.8263 19.6476-65.9145Q14.8094-63.0028 12.0193-57.8697Q9.22928-52.7367 9.22928-46.0938ZM14.6561-46.0938Q14.6561-51.2711 16.7225-55.1636Q18.7889-59.0561 22.3869-61.2282Q25.985-63.4003 30.5542-63.4003Q34.1217-63.4003 36.7779-62.1231Q39.4341-60.8459 41.33-58.8844Q43.2259-56.9229 44.5038-54.847Q45.1859-53.8048 45.7146-53.4164Q46.2433-53.0281 46.8544-53.0281Q47.4655-53.0281 47.9702-53.4164Q48.4749-53.8048 49.2058-54.847Q50.5356-56.8893 52.4315-58.8509Q54.3274-60.8124 56.974-62.1063Q59.6207-63.4003 63.1882-63.4003Q67.7582-63.4003 71.339-61.2282Q74.9199-59.0561 76.9867-55.1636Q79.0535-51.2711 79.0535-46.0938Q79.0535-40.7257 76.4824-35.2741Q73.9113-29.8225 69.4897-24.5674Q65.0681-19.3123 59.4028-14.5039Q53.7376-9.69543 47.5975-5.5809Q47.0009-5.18341 46.8544-5.18341Q46.7079-5.18341 46.1456-5.5809Q39.9567-9.69543 34.2987-14.5039Q28.6407-19.3123 24.2119-24.5674Q19.783-29.8225 17.2195-35.2741Q14.6561-40.7257 14.6561-46.0938Z"/>
  </g>
  <g id="Thin-S" transform="matrix(1 0 0 1 811.209 696)">
   <path class="multicolor-0:systemRedColor SFSymbolsPreviewFF3B30" d="M8.64868-46.0938Q8.64868-38.2988 13.044-30.6572Q17.4393-23.0156 25.251-15.7433Q33.0627-8.47092 43.3105-1.74789Q43.7126-1.48392 44.2333-1.27602Q44.754-1.06812 45.2133-1.06812Q45.6367-1.06812 46.1819-1.27602Q46.727-1.48392 47.1153-1.74789Q57.3631-8.47092 65.1749-15.7433Q72.9866-23.0156 77.3819-30.6572Q81.7772-38.2988 81.7772-46.0938Q81.7772-52.4162 79.1073-57.299Q76.4374-62.1819 71.8193-64.9738Q67.2012-67.7658 61.3594-67.7658Q56.2912-67.7658 51.9192-65.168Q47.5471-62.5702 45.2133-58.213Q42.8925-62.5565 38.5136-65.1611Q34.1347-67.7658 29.0665-67.7658Q23.2246-67.7658 18.6066-64.9738Q13.9885-62.1819 11.3186-57.299Q8.64868-52.4162 8.64868-46.0938ZM11.953-46.0938Q11.953-51.5312 14.1701-55.6641Q16.3872-59.7969 20.2553-62.1288Q24.1234-64.4608 29.0527-64.4608Q32.5607-64.4608 35.3069-63.1737Q38.0531-61.8866 40.099-59.7851Q42.1448-57.6836 43.5623-55.1872Q43.9842-54.4456 44.3729-54.1573Q44.7617-53.8689 45.2133-53.8689Q45.6642-53.8689 46.0285-54.1573Q46.3928-54.4456 46.8636-55.1872Q48.2735-57.6698 50.3193-59.7713Q52.3651-61.8729 55.122-63.1668Q57.8789-64.4608 61.3869-64.4608Q66.3162-64.4608 70.1778-62.1288Q74.0395-59.7969 76.2562-55.6641Q78.4729-51.5312 78.4729-46.0938Q78.4729-40.6662 75.8919-35.2043Q73.3109-29.7424 68.7893-24.4473Q64.2677-19.1521 58.342-14.1834Q52.4162-9.21478 45.7756-4.75998Q45.3598-4.48227 45.2133-4.48227Q45.0668-4.48227 44.664-4.75998Q37.9745-9.21478 32.0663-14.1834Q26.1581-19.1521 21.619-24.4473Q17.0799-29.7424 14.5164-35.2043Q11.953-40.6662 11.953-46.0938Z"/>
  </g>
  <g id="Ultralight-S" transform="matrix(1 0 0 1 515.339 696)">
   <path class="multicolor-0:systemRedColor SFSymbolsPreviewFF3B30" d="M8.35114-46.0938Q8.35114-38.4323 12.7827-30.9189Q17.2142-23.4055 24.9897-16.2407Q32.7652-9.07593 42.7979-2.4147Q43.1183-2.20184 43.5413-2.0401Q43.9644-1.87836 44.3718-1.87836Q44.7342-1.87836 45.1817-2.0401Q45.6291-2.20184 45.9465-2.4147Q55.9792-9.07593 63.7547-16.2407Q71.5302-23.4055 75.9617-30.9189Q80.3932-38.4323 80.3932-46.0938Q80.3932-52.2522 77.7847-57.0068Q75.1762-61.7615 70.6711-64.4917Q66.1659-67.2218 60.4568-67.2218Q55.4909-67.2218 51.0471-64.5218Q46.6034-61.8217 44.3718-57.2899Q42.144-61.8187 37.6984-64.5203Q33.2527-67.2218 28.2875-67.2218Q22.5784-67.2218 18.0733-64.4917Q13.5681-61.7615 10.9596-57.0068Q8.35114-52.2522 8.35114-46.0938ZM10.569-46.0938Q10.569-51.6647 12.8628-55.9204Q15.1566-60.1761 19.1631-62.5904Q23.1697-65.0047 28.2837-65.0047Q31.7604-65.0047 34.5528-63.7123Q37.3451-62.4199 39.468-60.2467Q41.5909-58.0734 43.0809-55.3619Q43.3693-54.7737 43.6863-54.5368Q44.0033-54.2999 44.3718-54.2999Q44.7411-54.2999 45.0336-54.5368Q45.3262-54.7737 45.6635-55.3619Q47.1146-58.0696 49.2374-60.2432Q51.3603-62.4168 54.1737-63.7108Q56.987-65.0047 60.4637-65.0047Q65.5785-65.0047 69.5831-62.5904Q73.5878-60.1761 75.8816-55.9204Q78.1754-51.6647 78.1754-46.0938Q78.1754-40.6349 75.589-35.1681Q73.0026-29.7012 68.4299-24.3858Q63.8573-19.0704 57.7984-14.0198Q51.7395-8.96912 44.8425-4.3396Q44.5183-4.12369 44.3718-4.12369Q44.2253-4.12369 43.9056-4.3396Q36.9598-8.96912 30.9235-14.0198Q24.8871-19.0704 20.2915-24.3858Q15.696-29.7012 13.1325-35.1681Q10.569-40.6349 10.569-46.0938Z"/>
  </g>
 </g>
</svg>
