<?xml version="1.0" encoding="UTF-8"?>
<!--Generator: Apple Native CoreSVG 175-->
<!DOCTYPE svg
PUBLIC "-//W3C//DTD SVG 1.1//EN"
       "http://www.w3.org/Graphics/SVG/1.1/DTD/svg11.dtd">
<svg version="1.1" xmlns="http://www.w3.org/2000/svg" xmlns:xlink="http://www.w3.org/1999/xlink" width="3300" height="2200">
 <!--glyph: "uni1002B5.medium", point size: 100.0, font version: "17.0d11e1", template writer version: "65.1"-->
 <style>.multicolor-0:systemRedColor {fill:#FF3B30;opacity:1.0}

.SFSymbolsPreviewFF3B30 {fill:#FF3B30;opacity:1.0}
</style>
 <g id="Notes">
  <rect height="2200" id="artboard" style="fill:white;opacity:1" width="3300" x="0" y="0"/>
  <line style="fill:none;stroke:black;opacity:1;stroke-width:0.5;" x1="263" x2="3036" y1="292" y2="292"/>
  <text style="stroke:none;fill:black;font-family:sans-serif;font-size:13;font-weight:bold;" transform="matrix(1 0 0 1 263 322)">Weight/Scale Variations</text>
  <text style="stroke:none;fill:black;font-family:sans-serif;font-size:13;text-anchor:middle;" transform="matrix(1 0 0 1 559.711 322)">Ultralight</text>
  <text style="stroke:none;fill:black;font-family:sans-serif;font-size:13;text-anchor:middle;" transform="matrix(1 0 0 1 856.422 322)">Thin</text>
  <text style="stroke:none;fill:black;font-family:sans-serif;font-size:13;text-anchor:middle;" transform="matrix(1 0 0 1 1153.13 322)">Light</text>
  <text style="stroke:none;fill:black;font-family:sans-serif;font-size:13;text-anchor:middle;" transform="matrix(1 0 0 1 1449.84 322)">Regular</text>
  <text style="stroke:none;fill:black;font-family:sans-serif;font-size:13;text-anchor:middle;" transform="matrix(1 0 0 1 1746.56 322)">Medium</text>
  <text style="stroke:none;fill:black;font-family:sans-serif;font-size:13;text-anchor:middle;" transform="matrix(1 0 0 1 2043.27 322)">Semibold</text>
  <text style="stroke:none;fill:black;font-family:sans-serif;font-size:13;text-anchor:middle;" transform="matrix(1 0 0 1 2339.98 322)">Bold</text>
  <text style="stroke:none;fill:black;font-family:sans-serif;font-size:13;text-anchor:middle;" transform="matrix(1 0 0 1 2636.69 322)">Heavy</text>
  <text style="stroke:none;fill:black;font-family:sans-serif;font-size:13;text-anchor:middle;" transform="matrix(1 0 0 1 2933.4 322)">Black</text>
  <line style="fill:none;stroke:black;opacity:1;stroke-width:0.5;" x1="263" x2="3036" y1="1903" y2="1903"/>
  <g transform="matrix(1 0 0 1 263 1933)">
   <path d="M9.24805 0.830078Q10.8691 0.830078 12.2949 0.214844Q13.7207-0.400391 14.8096-1.49414Q15.8984-2.58789 16.5186-4.01367Q17.1387-5.43945 17.1387-7.05078Q17.1387-8.66211 16.5186-10.0879Q15.8984-11.5137 14.8047-12.6074Q13.7109-13.7012 12.2852-14.3164Q10.8594-14.9316 9.23828-14.9316Q7.62695-14.9316 6.20117-14.3164Q4.77539-13.7012 3.69141-12.6074Q2.60742-11.5137 1.9873-10.0879Q1.36719-8.66211 1.36719-7.05078Q1.36719-5.43945 1.9873-4.01367Q2.60742-2.58789 3.69629-1.49414Q4.78516-0.400391 6.21094 0.214844Q7.63672 0.830078 9.24805 0.830078ZM9.24805-0.654297Q7.91992-0.654297 6.7627-1.14746Q5.60547-1.64062 4.73145-2.51953Q3.85742-3.39844 3.36426-4.56055Q2.87109-5.72266 2.87109-7.05078Q2.87109-8.37891 3.35938-9.54102Q3.84766-10.7031 4.72168-11.582Q5.5957-12.4609 6.75293-12.9541Q7.91016-13.4473 9.23828-13.4473Q10.5762-13.4473 11.7334-12.9541Q12.8906-12.4609 13.7695-11.582Q14.6484-10.7031 15.1465-9.54102Q15.6445-8.37891 15.6445-7.05078Q15.6445-5.72266 15.1514-4.56055Q14.6582-3.39844 13.7842-2.51953Q12.9102-1.64062 11.748-1.14746Q10.5859-0.654297 9.24805-0.654297ZM5.6543-7.05078Q5.6543-6.72852 5.85938-6.52832Q6.06445-6.32812 6.40625-6.32812L8.51562-6.32812L8.51562-4.20898Q8.51562-3.88672 8.71094-3.67676Q8.90625-3.4668 9.23828-3.4668Q9.56055-3.4668 9.77051-3.67676Q9.98047-3.88672 9.98047-4.20898L9.98047-6.32812L12.0898-6.32812Q12.4219-6.32812 12.627-6.52832Q12.832-6.72852 12.832-7.05078Q12.832-7.38281 12.627-7.58789Q12.4219-7.79297 12.0898-7.79297L9.98047-7.79297L9.98047-9.90234Q9.98047-10.2344 9.77051-10.4443Q9.56055-10.6543 9.23828-10.6543Q8.90625-10.6543 8.71094-10.4443Q8.51562-10.2344 8.51562-9.90234L8.51562-7.79297L6.40625-7.79297Q6.06445-7.79297 5.85938-7.58789Q5.6543-7.38281 5.6543-7.05078Z"/>
  </g>
  <g transform="matrix(1 0 0 1 281.867 1933)">
   <path d="M11.709 2.91016Q13.75 2.91016 15.5518 2.12891Q17.3535 1.34766 18.7305-0.0292969Q20.1074-1.40625 20.8887-3.20801Q21.6699-5.00977 21.6699-7.05078Q21.6699-9.0918 20.8887-10.8936Q20.1074-12.6953 18.7305-14.0723Q17.3535-15.4492 15.5469-16.2305Q13.7402-17.0117 11.6992-17.0117Q9.6582-17.0117 7.85645-16.2305Q6.05469-15.4492 4.68262-14.0723Q3.31055-12.6953 2.5293-10.8936Q1.74805-9.0918 1.74805-7.05078Q1.74805-5.00977 2.5293-3.20801Q3.31055-1.40625 4.6875-0.0292969Q6.06445 1.34766 7.86621 2.12891Q9.66797 2.91016 11.709 2.91016ZM11.709 1.25Q9.98047 1.25 8.47656 0.605469Q6.97266-0.0390625 5.83496-1.17676Q4.69727-2.31445 4.05762-3.81836Q3.41797-5.32227 3.41797-7.05078Q3.41797-8.7793 4.05762-10.2832Q4.69727-11.7871 5.83008-12.9297Q6.96289-14.0723 8.4668-14.7119Q9.9707-15.3516 11.6992-15.3516Q13.4277-15.3516 14.9316-14.7119Q16.4355-14.0723 17.5781-12.9297Q18.7207-11.7871 19.3652-10.2832Q20.0098-8.7793 20.0098-7.05078Q20.0098-5.32227 19.3701-3.81836Q18.7305-2.31445 17.5928-1.17676Q16.4551-0.0390625 14.9463 0.605469Q13.4375 1.25 11.709 1.25ZM7.17773-7.05078Q7.17773-6.69922 7.41211-6.47461Q7.64648-6.25 8.01758-6.25L10.8887-6.25L10.8887-3.36914Q10.8887-2.99805 11.1133-2.76855Q11.3379-2.53906 11.6895-2.53906Q12.0605-2.53906 12.29-2.76855Q12.5195-2.99805 12.5195-3.36914L12.5195-6.25L15.4004-6.25Q15.7715-6.25 16.001-6.47461Q16.2305-6.69922 16.2305-7.05078Q16.2305-7.42188 16.001-7.65137Q15.7715-7.88086 15.4004-7.88086L12.5195-7.88086L12.5195-10.752Q12.5195-11.1328 12.29-11.3623Q12.0605-11.5918 11.6895-11.5918Q11.3379-11.5918 11.1133-11.3574Q10.8887-11.123 10.8887-10.752L10.8887-7.88086L8.01758-7.88086Q7.63672-7.88086 7.40723-7.65137Q7.17773-7.42188 7.17773-7.05078Z"/>
  </g>
  <g transform="matrix(1 0 0 1 305.646 1933)">
   <path d="M14.9707 5.66406Q17.0605 5.66406 18.96 5.01465Q20.8594 4.36523 22.4512 3.19336Q24.043 2.02148 25.2197 0.429688Q26.3965-1.16211 27.0459-3.06641Q27.6953-4.9707 27.6953-7.05078Q27.6953-9.14062 27.0459-11.04Q26.3965-12.9395 25.2197-14.5312Q24.043-16.123 22.4512-17.2998Q20.8594-18.4766 18.9551-19.126Q17.0508-19.7754 14.9609-19.7754Q12.8711-19.7754 10.9717-19.126Q9.07227-18.4766 7.48535-17.2998Q5.89844-16.123 4.72168-14.5312Q3.54492-12.9395 2.90039-11.04Q2.25586-9.14062 2.25586-7.05078Q2.25586-4.9707 2.90527-3.06641Q3.55469-1.16211 4.72656 0.429688Q5.89844 2.02148 7.49023 3.19336Q9.08203 4.36523 10.9814 5.01465Q12.8809 5.66406 14.9707 5.66406ZM14.9707 3.84766Q13.1641 3.84766 11.5283 3.2959Q9.89258 2.74414 8.53516 1.74805Q7.17773 0.751953 6.17676-0.610352Q5.17578-1.97266 4.62891-3.6084Q4.08203-5.24414 4.08203-7.05078Q4.08203-8.86719 4.62891-10.5029Q5.17578-12.1387 6.17188-13.501Q7.16797-14.8633 8.52539-15.8594Q9.88281-16.8555 11.5186-17.4023Q13.1543-17.9492 14.9609-17.9492Q16.7773-17.9492 18.4131-17.4023Q20.0488-16.8555 21.4111-15.8594Q22.7734-14.8633 23.7695-13.501Q24.7656-12.1387 25.3174-10.5029Q25.8691-8.86719 25.8691-7.05078Q25.8789-5.24414 25.332-3.6084Q24.7852-1.97266 23.7842-0.610352Q22.7832 0.751953 21.4209 1.74805Q20.0586 2.74414 18.4229 3.2959Q16.7871 3.84766 14.9707 3.84766ZM9.19922-7.05078Q9.19922-6.66992 9.45801-6.4209Q9.7168-6.17188 10.1172-6.17188L14.0625-6.17188L14.0625-2.2168Q14.0625-1.81641 14.3115-1.55762Q14.5605-1.29883 14.9512-1.29883Q15.3516-1.29883 15.6104-1.55273Q15.8691-1.80664 15.8691-2.2168L15.8691-6.17188L19.8242-6.17188Q20.2246-6.17188 20.4785-6.4209Q20.7324-6.66992 20.7324-7.05078Q20.7324-7.46094 20.4785-7.71484Q20.2246-7.96875 19.8242-7.96875L15.8691-7.96875L15.8691-11.9141Q15.8691-12.3242 15.6104-12.583Q15.3516-12.8418 14.9512-12.8418Q14.5605-12.8418 14.3115-12.583Q14.0625-12.3242 14.0625-11.9141L14.0625-7.96875L10.1172-7.96875Q9.70703-7.96875 9.45312-7.71484Q9.19922-7.46094 9.19922-7.05078Z"/>
  </g>
  <text style="stroke:none;fill:black;font-family:sans-serif;font-size:13;font-weight:bold;" transform="matrix(1 0 0 1 263 1953)">Design Variations</text>
  <text style="stroke:none;fill:black;font-family:sans-serif;font-size:13;" transform="matrix(1 0 0 1 263 1971)">Symbols are supported in up to nine weights and three scales.</text>
  <text style="stroke:none;fill:black;font-family:sans-serif;font-size:13;" transform="matrix(1 0 0 1 263 1989)">For optimal layout with text and other symbols, vertically align</text>
  <text style="stroke:none;fill:black;font-family:sans-serif;font-size:13;" transform="matrix(1 0 0 1 263 2007)">symbols with the adjacent text.</text>
  <line style="fill:none;stroke:#00AEEF;stroke-width:0.5;opacity:1.0;" x1="776" x2="776" y1="1919" y2="1933"/>
  <g transform="matrix(1 0 0 1 776 1933)">
   <path d="M3.31055 0.15625Q3.70117 0.15625 3.91602-0.00976562Q4.13086-0.175781 4.26758-0.585938L5.52734-4.0332L11.2891-4.0332L12.5488-0.585938Q12.6855-0.175781 12.9004-0.00976562Q13.1152 0.15625 13.4961 0.15625Q13.8867 0.15625 14.1162-0.0585938Q14.3457-0.273438 14.3457-0.644531Q14.3457-0.869141 14.2383-1.17188L9.6582-13.3691Q9.48242-13.8184 9.17969-14.043Q8.87695-14.2676 8.4082-14.2676Q7.5-14.2676 7.17773-13.3789L2.59766-1.16211Q2.49023-0.859375 2.49023-0.634766Q2.49023-0.263672 2.70996-0.0537109Q2.92969 0.15625 3.31055 0.15625ZM6.00586-5.51758L8.37891-12.0898L8.42773-12.0898L10.8008-5.51758Z"/>
  </g>
  <line style="fill:none;stroke:#00AEEF;stroke-width:0.5;opacity:1.0;" x1="793.197" x2="793.197" y1="1919" y2="1933"/>
  <text style="stroke:none;fill:black;font-family:sans-serif;font-size:13;font-weight:bold;" transform="matrix(1 0 0 1 776 1953)">Margins</text>
  <text style="stroke:none;fill:black;font-family:sans-serif;font-size:13;" transform="matrix(1 0 0 1 776 1971)">Leading and trailing margins on the left and right side of each symbol</text>
  <text style="stroke:none;fill:black;font-family:sans-serif;font-size:13;" transform="matrix(1 0 0 1 776 1989)">can be adjusted by modifying the x-location of the margin guidelines.</text>
  <text style="stroke:none;fill:black;font-family:sans-serif;font-size:13;" transform="matrix(1 0 0 1 776 2007)">Modifications are automatically applied proportionally to all</text>
  <text style="stroke:none;fill:black;font-family:sans-serif;font-size:13;" transform="matrix(1 0 0 1 776 2025)">scales and weights.</text>
  <g transform="matrix(1 0 0 1 1289 1933)">
   <path d="M2.8418 1.86523L4.54102 3.57422Q5.18555 4.22852 5.90332 4.17969Q6.62109 4.13086 7.31445 3.35938L18.0078-8.42773L17.041-9.4043L6.42578 2.27539Q6.16211 2.57812 5.89355 2.61719Q5.625 2.65625 5.27344 2.30469L4.10156 1.14258Q3.75 0.791016 3.79395 0.522461Q3.83789 0.253906 4.14062-0.0195312L15.6152-10.8203L14.6387-11.7871L3.04688-0.898438Q2.30469-0.214844 2.25098 0.498047Q2.19727 1.21094 2.8418 1.86523ZM9.25781-16.3281Q8.94531-16.0254 8.90625-15.6348Q8.86719-15.2441 9.04297-14.9512Q9.21875-14.6777 9.55566-14.541Q9.89258-14.4043 10.3809-14.5215Q11.4746-14.7754 12.5977-14.7314Q13.7207-14.6875 14.7949-13.9844L14.209-12.5293Q13.9551-11.9043 14.0674-11.4404Q14.1797-10.9766 14.5801-10.5664L16.875-8.25195Q17.2363-7.88086 17.5781-7.82227Q17.9199-7.76367 18.3398-7.8418L19.4043-8.03711L20.0684-7.36328L20.0293-6.80664Q20-6.43555 20.1221-6.12305Q20.2441-5.81055 20.6055-5.44922L21.3672-4.70703Q21.7285-4.3457 22.1533-4.33105Q22.5781-4.31641 22.9297-4.66797L25.8398-7.58789Q26.1914-7.93945 26.1816-8.35449Q26.1719-8.76953 25.8105-9.13086L25.0391-9.89258Q24.6875-10.2539 24.3799-10.3857Q24.0723-10.5176 23.7109-10.4883L23.1348-10.4395L22.4902-11.0742L22.7344-12.1973Q22.832-12.6172 22.6953-12.9834Q22.5586-13.3496 22.1191-13.7891L19.9219-15.9766Q18.6719-17.2168 17.2607-17.8369Q15.8496-18.457 14.4189-18.4814Q12.9883-18.5059 11.665-17.959Q10.3418-17.4121 9.25781-16.3281ZM10.752-15.957Q11.6602-16.6211 12.7002-16.9043Q13.7402-17.1875 14.8047-17.085Q15.8691-16.9824 16.8701-16.5137Q17.8711-16.0449 18.7012-15.2051L21.1328-12.793Q21.3086-12.6172 21.3525-12.4512Q21.3965-12.2852 21.3379-12.0312L21.0156-10.5469L22.5195-9.0625L23.5059-9.12109Q23.6914-9.13086 23.7891-9.09668Q23.8867-9.0625 24.0332-8.91602L24.6094-8.33984L22.168-5.89844L21.5918-6.47461Q21.4453-6.62109 21.4062-6.71875Q21.3672-6.81641 21.377-7.01172L21.4453-7.98828L19.9512-9.47266L18.4277-9.21875Q18.1836-9.16992 18.042-9.2041Q17.9004-9.23828 17.7148-9.41406L15.7129-11.416Q15.5176-11.5918 15.4932-11.7529Q15.4688-11.9141 15.5859-12.1875L16.4648-14.2773Q15.293-15.3711 13.8281-15.791Q12.3633-16.2109 10.8398-15.7617Q10.7227-15.7324 10.6885-15.8057Q10.6543-15.8789 10.752-15.957Z"/>
  </g>
  <text style="stroke:none;fill:black;font-family:sans-serif;font-size:13;font-weight:bold;" transform="matrix(1 0 0 1 1289 1953)">Exporting</text>
  <text style="stroke:none;fill:black;font-family:sans-serif;font-size:13;" transform="matrix(1 0 0 1 1289 1971)">Symbols should be outlined when exporting to ensure the</text>
  <text style="stroke:none;fill:black;font-family:sans-serif;font-size:13;" transform="matrix(1 0 0 1 1289 1989)">design is preserved when submitting to Xcode.</text>
  <text id="template-version" style="stroke:none;fill:black;font-family:sans-serif;font-size:13;text-anchor:end;" transform="matrix(1 0 0 1 3036 1933)">Template v.3.0</text>
  <text style="stroke:none;fill:black;font-family:sans-serif;font-size:13;text-anchor:end;" transform="matrix(1 0 0 1 3036 1951)">Requires Xcode 13 or greater</text>
  <text id="descriptive-name" style="stroke:none;fill:black;font-family:sans-serif;font-size:13;text-anchor:end;" transform="matrix(1 0 0 1 3036 1969)">Generated from heart.fill</text>
  <text style="stroke:none;fill:black;font-family:sans-serif;font-size:13;text-anchor:end;" transform="matrix(1 0 0 1 3036 1987)">Typeset at 100 points</text>
  <text style="stroke:none;fill:black;font-family:sans-serif;font-size:13;" transform="matrix(1 0 0 1 263 726)">Small</text>
  <text style="stroke:none;fill:black;font-family:sans-serif;font-size:13;" transform="matrix(1 0 0 1 263 1156)">Medium</text>
  <text style="stroke:none;fill:black;font-family:sans-serif;font-size:13;" transform="matrix(1 0 0 1 263 1586)">Large</text>
 </g>
 <g id="Guides">
  <g id="H-reference" style="fill:#27AAE1;stroke:none;" transform="matrix(1 0 0 1 339 696)">
   <path d="M0.993347 0L3.6377 0L29.3282-67.1326L30.0301-67.1326L30.0301-70.459L28.1227-70.459ZM11.6882-24.4797L46.9818-24.4797L46.2311-26.7288L12.4382-26.7288ZM55.1193 0L57.7637 0L30.6381-70.459L29.4327-70.459L29.4327-67.1326Z"/>
  </g>
  <line id="Baseline-S" style="fill:none;stroke:#27AAE1;opacity:1;stroke-width:0.5;" x1="263" x2="3036" y1="696" y2="696"/>
  <line id="Capline-S" style="fill:none;stroke:#27AAE1;opacity:1;stroke-width:0.5;" x1="263" x2="3036" y1="625.541" y2="625.541"/>
  <g id="H-reference" style="fill:#27AAE1;stroke:none;" transform="matrix(1 0 0 1 339 1126)">
   <path d="M0.993347 0L3.6377 0L29.3282-67.1326L30.0301-67.1326L30.0301-70.459L28.1227-70.459ZM11.6882-24.4797L46.9818-24.4797L46.2311-26.7288L12.4382-26.7288ZM55.1193 0L57.7637 0L30.6381-70.459L29.4327-70.459L29.4327-67.1326Z"/>
  </g>
  <line id="Baseline-M" style="fill:none;stroke:#27AAE1;opacity:1;stroke-width:0.5;" x1="263" x2="3036" y1="1126" y2="1126"/>
  <line id="Capline-M" style="fill:none;stroke:#27AAE1;opacity:1;stroke-width:0.5;" x1="263" x2="3036" y1="1055.54" y2="1055.54"/>
  <g id="H-reference" style="fill:#27AAE1;stroke:none;" transform="matrix(1 0 0 1 339 1556)">
   <path d="M0.993347 0L3.6377 0L29.3282-67.1326L30.0301-67.1326L30.0301-70.459L28.1227-70.459ZM11.6882-24.4797L46.9818-24.4797L46.2311-26.7288L12.4382-26.7288ZM55.1193 0L57.7637 0L30.6381-70.459L29.4327-70.459L29.4327-67.1326Z"/>
  </g>
  <line id="Baseline-L" style="fill:none;stroke:#27AAE1;opacity:1;stroke-width:0.5;" x1="263" x2="3036" y1="1556" y2="1556"/>
  <line id="Capline-L" style="fill:none;stroke:#27AAE1;opacity:1;stroke-width:0.5;" x1="263" x2="3036" y1="1485.54" y2="1485.54"/>
  <line id="left-margin-Ultralight-S" style="fill:none;stroke:#00AEEF;stroke-width:0.5;opacity:1.0;" x1="515.339" x2="515.339" y1="600.785" y2="720.121"/>
  <line id="right-margin-Ultralight-S" style="fill:none;stroke:#00AEEF;stroke-width:0.5;opacity:1.0;" x1="604.083" x2="604.083" y1="600.785" y2="720.121"/>
  <line id="left-margin-Thin-S" style="fill:none;stroke:#00AEEF;stroke-width:0.5;opacity:1.0;" x1="811.209" x2="811.209" y1="600.785" y2="720.121"/>
  <line id="right-margin-Thin-S" style="fill:none;stroke:#00AEEF;stroke-width:0.5;opacity:1.0;" x1="901.635" x2="901.635" y1="600.785" y2="720.121"/>
  <line id="left-margin-Light-S" style="fill:none;stroke:#00AEEF;stroke-width:0.5;opacity:1.0;" x1="1106.28" x2="1106.28" y1="600.785" y2="720.121"/>
  <line id="right-margin-Light-S" style="fill:none;stroke:#00AEEF;stroke-width:0.5;opacity:1.0;" x1="1199.99" x2="1199.99" y1="600.785" y2="720.121"/>
  <line id="left-margin-Regular-S" style="fill:none;stroke:#00AEEF;stroke-width:0.5;opacity:1.0;" x1="1401.75" x2="1401.75" y1="600.785" y2="720.121"/>
  <line id="right-margin-Regular-S" style="fill:none;stroke:#00AEEF;stroke-width:0.5;opacity:1.0;" x1="1497.94" x2="1497.94" y1="600.785" y2="720.121"/>
  <line id="left-margin-Medium-S" style="fill:none;stroke:#00AEEF;stroke-width:0.5;opacity:1.0;" x1="1698.08" x2="1698.08" y1="600.785" y2="720.121"/>
  <line id="right-margin-Medium-S" style="fill:none;stroke:#00AEEF;stroke-width:0.5;opacity:1.0;" x1="1795.03" x2="1795.03" y1="600.785" y2="720.121"/>
  <line id="left-margin-Semibold-S" style="fill:none;stroke:#00AEEF;stroke-width:0.5;opacity:1.0;" x1="1994.5" x2="1994.5" y1="600.785" y2="720.121"/>
  <line id="right-margin-Semibold-S" style="fill:none;stroke:#00AEEF;stroke-width:0.5;opacity:1.0;" x1="2092.03" x2="2092.03" y1="600.785" y2="720.121"/>
  <line id="left-margin-Bold-S" style="fill:none;stroke:#00AEEF;stroke-width:0.5;opacity:1.0;" x1="2290.83" x2="2290.83" y1="600.785" y2="720.121"/>
  <line id="right-margin-Bold-S" style="fill:none;stroke:#00AEEF;stroke-width:0.5;opacity:1.0;" x1="2389.12" x2="2389.12" y1="600.785" y2="720.121"/>
  <line id="left-margin-Heavy-S" style="fill:none;stroke:#00AEEF;stroke-width:0.5;opacity:1.0;" x1="2586.99" x2="2586.99" y1="600.785" y2="720.121"/>
  <line id="right-margin-Heavy-S" style="fill:none;stroke:#00AEEF;stroke-width:0.5;opacity:1.0;" x1="2686.39" x2="2686.39" y1="600.785" y2="720.121"/>
  <line id="left-margin-Black-S" style="fill:none;stroke:#00AEEF;stroke-width:0.5;opacity:1.0;" x1="2883.2" x2="2883.2" y1="600.785" y2="720.121"/>
  <line id="right-margin-Black-S" style="fill:none;stroke:#00AEEF;stroke-width:0.5;opacity:1.0;" x1="2983.6" x2="2983.6" y1="600.785" y2="720.121"/>
  <line id="left-margin-Ultralight-M" style="fill:none;stroke:#00AEEF;stroke-width:0.5;opacity:1.0;" x1="503.387" x2="503.387" y1="1030.79" y2="1150.12"/>
  <line id="right-margin-Ultralight-M" style="fill:none;stroke:#00AEEF;stroke-width:0.5;opacity:1.0;" x1="616.035" x2="616.035" y1="1030.79" y2="1150.12"/>
  <line id="left-margin-Thin-M" style="fill:none;stroke:#00AEEF;stroke-width:0.5;opacity:1.0;" x1="799.145" x2="799.145" y1="1030.79" y2="1150.12"/>
  <line id="right-margin-Thin-M" style="fill:none;stroke:#00AEEF;stroke-width:0.5;opacity:1.0;" x1="913.7" x2="913.7" y1="1030.79" y2="1150.12"/>
  <line id="left-margin-Light-M" style="fill:none;stroke:#00AEEF;stroke-width:0.5;opacity:1.0;" x1="1093.99" x2="1093.99" y1="1030.79" y2="1150.12"/>
  <line id="right-margin-Light-M" style="fill:none;stroke:#00AEEF;stroke-width:0.5;opacity:1.0;" x1="1212.27" x2="1212.27" y1="1030.79" y2="1150.12"/>
  <line id="left-margin-Regular-M" style="fill:none;stroke:#00AEEF;stroke-width:0.5;opacity:1.0;" x1="1389.3" x2="1389.3" y1="1030.79" y2="1150.12"/>
  <line id="right-margin-Regular-M" style="fill:none;stroke:#00AEEF;stroke-width:0.5;opacity:1.0;" x1="1510.39" x2="1510.39" y1="1030.79" y2="1150.12"/>
  <line id="left-margin-Medium-M" style="fill:none;stroke:#00AEEF;stroke-width:0.5;opacity:1.0;" x1="1685.41" x2="1685.41" y1="1030.79" y2="1150.12"/>
  <line id="right-margin-Medium-M" style="fill:none;stroke:#00AEEF;stroke-width:0.5;opacity:1.0;" x1="1807.7" x2="1807.7" y1="1030.79" y2="1150.12"/>
  <line id="left-margin-Semibold-M" style="fill:none;stroke:#00AEEF;stroke-width:0.5;opacity:1.0;" x1="1981.66" x2="1981.66" y1="1030.79" y2="1150.12"/>
  <line id="right-margin-Semibold-M" style="fill:none;stroke:#00AEEF;stroke-width:0.5;opacity:1.0;" x1="2104.87" x2="2104.87" y1="1030.79" y2="1150.12"/>
  <line id="left-margin-Bold-M" style="fill:none;stroke:#00AEEF;stroke-width:0.5;opacity:1.0;" x1="2277.77" x2="2277.77" y1="1030.79" y2="1150.12"/>
  <line id="right-margin-Bold-M" style="fill:none;stroke:#00AEEF;stroke-width:0.5;opacity:1.0;" x1="2402.18" x2="2402.18" y1="1030.79" y2="1150.12"/>
  <line id="left-margin-Heavy-M" style="fill:none;stroke:#00AEEF;stroke-width:0.5;opacity:1.0;" x1="2573.61" x2="2573.61" y1="1030.79" y2="1150.12"/>
  <line id="right-margin-Heavy-M" style="fill:none;stroke:#00AEEF;stroke-width:0.5;opacity:1.0;" x1="2699.77" x2="2699.77" y1="1030.79" y2="1150.12"/>
  <line id="left-margin-Black-M" style="fill:none;stroke:#00AEEF;stroke-width:0.5;opacity:1.0;" x1="2869.53" x2="2869.53" y1="1030.79" y2="1150.12"/>
  <line id="right-margin-Black-M" style="fill:none;stroke:#00AEEF;stroke-width:0.5;opacity:1.0;" x1="2997.27" x2="2997.27" y1="1030.79" y2="1150.12"/>
  <line id="left-margin-Ultralight-L" style="fill:none;stroke:#00AEEF;stroke-width:0.5;opacity:1.0;" x1="487.435" x2="487.435" y1="1460.79" y2="1580.12"/>
  <line id="right-margin-Ultralight-L" style="fill:none;stroke:#00AEEF;stroke-width:0.5;opacity:1.0;" x1="631.987" x2="631.987" y1="1460.79" y2="1580.12"/>
  <line id="left-margin-Thin-L" style="fill:none;stroke:#00AEEF;stroke-width:0.5;opacity:1.0;" x1="783.09" x2="783.09" y1="1460.79" y2="1580.12"/>
  <line id="right-margin-Thin-L" style="fill:none;stroke:#00AEEF;stroke-width:0.5;opacity:1.0;" x1="929.754" x2="929.754" y1="1460.79" y2="1580.12"/>
  <line id="left-margin-Light-L" style="fill:none;stroke:#00AEEF;stroke-width:0.5;opacity:1.0;" x1="1077.74" x2="1077.74" y1="1460.79" y2="1580.12"/>
  <line id="right-margin-Light-L" style="fill:none;stroke:#00AEEF;stroke-width:0.5;opacity:1.0;" x1="1228.53" x2="1228.53" y1="1460.79" y2="1580.12"/>
  <line id="left-margin-Regular-L" style="fill:none;stroke:#00AEEF;stroke-width:0.5;opacity:1.0;" x1="1372.89" x2="1372.89" y1="1460.79" y2="1580.12"/>
  <line id="right-margin-Regular-L" style="fill:none;stroke:#00AEEF;stroke-width:0.5;opacity:1.0;" x1="1526.8" x2="1526.8" y1="1460.79" y2="1580.12"/>
  <line id="left-margin-Medium-L" style="fill:none;stroke:#00AEEF;stroke-width:0.5;opacity:1.0;" x1="1668.72" x2="1668.72" y1="1460.79" y2="1580.12"/>
  <line id="right-margin-Medium-L" style="fill:none;stroke:#00AEEF;stroke-width:0.5;opacity:1.0;" x1="1824.39" x2="1824.39" y1="1460.79" y2="1580.12"/>
  <line id="left-margin-Semibold-L" style="fill:none;stroke:#00AEEF;stroke-width:0.5;opacity:1.0;" x1="1964.75" x2="1964.75" y1="1460.79" y2="1580.12"/>
  <line id="right-margin-Semibold-L" style="fill:none;stroke:#00AEEF;stroke-width:0.5;opacity:1.0;" x1="2121.78" x2="2121.78" y1="1460.79" y2="1580.12"/>
  <line id="left-margin-Bold-L" style="fill:none;stroke:#00AEEF;stroke-width:0.5;opacity:1.0;" x1="2260.57" x2="2260.57" y1="1460.79" y2="1580.12"/>
  <line id="right-margin-Bold-L" style="fill:none;stroke:#00AEEF;stroke-width:0.5;opacity:1.0;" x1="2419.38" x2="2419.38" y1="1460.79" y2="1580.12"/>
  <line id="left-margin-Heavy-L" style="fill:none;stroke:#00AEEF;stroke-width:0.5;opacity:1.0;" x1="2555.99" x2="2555.99" y1="1460.79" y2="1580.12"/>
  <line id="right-margin-Heavy-L" style="fill:none;stroke:#00AEEF;stroke-width:0.5;opacity:1.0;" x1="2717.39" x2="2717.39" y1="1460.79" y2="1580.12"/>
  <line id="left-margin-Black-L" style="fill:none;stroke:#00AEEF;stroke-width:0.5;opacity:1.0;" x1="2851.54" x2="2851.54" y1="1460.79" y2="1580.12"/>
  <line id="right-margin-Black-L" style="fill:none;stroke:#00AEEF;stroke-width:0.5;opacity:1.0;" x1="3015.26" x2="3015.26" y1="1460.79" y2="1580.12"/>
 </g>
 <g id="Symbols">
  <g id="Black-L" transform="matrix(1 0 0 1 2851.54 1556)">
   <path class="multicolor-0:systemRedColor SFSymbolsPreviewFF3B30" d="M81.8359 29.5898Q83.8379 29.5898 86.5967 28.1006Q89.3555 26.6113 92.1875 24.707Q105.078 16.2109 115.601 6.90918Q126.123-2.39258 133.667-12.2314Q141.211-22.0703 145.288-32.2266Q149.365-42.3828 149.365-52.5879Q149.365-62.4512 146.191-70.459Q143.018-78.4668 137.5-84.2285Q131.982-89.9902 124.854-93.0664Q117.725-96.1426 109.766-96.1426Q103.125-96.1426 97.8516-93.8965Q92.5781-91.6504 88.5986-87.7197Q84.6191-83.7891 81.8359-78.6621Q79.1504-83.7402 75.1465-87.6953Q71.1426-91.6504 65.8691-93.8965Q60.5957-96.1426 53.9551-96.1426Q45.9961-96.1426 38.8672-93.0664Q31.7383-89.9902 26.2207-84.2285Q20.7031-78.4668 17.5293-70.459Q14.3555-62.4512 14.3555-52.5879Q14.3555-42.3828 18.4326-32.2266Q22.5098-22.0703 30.0537-12.2314Q37.5977-2.39258 48.1201 6.90918Q58.6426 16.2109 71.5332 24.707Q74.3652 26.6113 77.124 28.1006Q79.8828 29.5898 81.8359 29.5898Z"/>
  </g>
  <g id="Heavy-L" transform="matrix(1 0 0 1 2555.99 1556)">
   <path class="multicolor-0:systemRedColor SFSymbolsPreviewFF3B30" d="M80.6831 28.138Q82.4318 28.138 84.8103 26.8848Q87.1887 25.6317 89.5714 24.0387Q102.508 15.554 113.054 6.31561Q123.599-2.92282 131.155-12.6751Q138.71-22.4274 142.787-32.4974Q146.864-42.5674 146.864-52.7145Q146.864-62.1742 143.823-69.9055Q140.782-77.6367 135.455-83.2199Q130.127-88.8031 123.2-91.7988Q116.273-94.7945 108.452-94.7945Q101.961-94.7945 96.7163-92.577Q91.4719-90.3595 87.4691-86.4521Q83.4663-82.5447 80.6831-77.4063Q77.9861-82.5073 73.9651-86.4334Q69.944-90.3595 64.6935-92.577Q59.4429-94.7945 52.9526-94.7945Q45.1431-94.7945 38.2103-91.7988Q31.2775-88.8031 25.9499-83.2199Q20.6223-77.6367 17.5812-69.9055Q14.5401-62.1742 14.5401-52.7145Q14.5401-42.5674 18.6172-32.4974Q22.6944-22.4274 30.2498-12.6751Q37.8052-2.92282 48.3505 6.31561Q58.8959 15.554 71.8445 24.0387Q74.2157 25.6317 76.5999 26.8848Q78.9841 28.138 80.6831 28.138Z"/>
  </g>
  <g id="Bold-L" transform="matrix(1 0 0 1 2260.57 1556)">
   <path class="multicolor-0:systemRedColor SFSymbolsPreviewFF3B30" d="M79.3945 26.5137Q80.8594 26.5137 82.8125 25.5249Q84.7656 24.5361 86.6455 23.291Q99.6338 14.8193 110.205 5.65186Q120.776-3.51562 128.345-13.1714Q135.913-22.8271 139.99-32.8003Q144.067-42.7734 144.067-52.8564Q144.067-61.8652 141.174-69.2871Q138.281-76.709 133.167-82.0923Q128.052-87.4756 121.35-90.3809Q114.648-93.2861 106.982-93.2861Q100.659-93.2861 95.4468-91.1011Q90.2344-88.916 86.2061-85.0342Q82.1777-81.1523 79.3945-76.001Q76.6846-81.1279 72.644-85.022Q68.6035-88.916 63.3789-91.1011Q58.1543-93.2861 51.8311-93.2861Q44.1895-93.2861 37.4756-90.3809Q30.7617-87.4756 25.647-82.0923Q20.5322-76.709 17.6392-69.2871Q14.7461-61.8652 14.7461-52.8564Q14.7461-42.7734 18.8232-32.8003Q22.9004-22.8271 30.4688-13.1714Q38.0371-3.51562 48.6084 5.65186Q59.1797 14.8193 72.1924 23.291Q74.0479 24.5361 76.0132 25.5249Q77.9785 26.5137 79.3945 26.5137Z"/>
  </g>
  <g id="Semibold-L" transform="matrix(1 0 0 1 1964.75 1556)">
   <path class="multicolor-0:systemRedColor SFSymbolsPreviewFF3B30" d="M78.5057 25.3937Q79.7752 25.3937 81.435 24.5872Q83.0948 23.7808 84.6283 22.7753Q97.6517 14.3127 108.241 5.19409Q118.83-3.92456 126.407-13.5136Q133.984-23.1026 138.062-33.009Q142.139-42.9153 142.139-52.9541Q142.139-61.6516 139.348-68.8602Q136.557-76.0689 131.589-81.3145Q126.621-86.5601 120.075-89.4032Q113.528-92.2462 105.969-92.2462Q99.762-92.2462 94.5717-90.0833Q89.3814-87.9204 85.3352-84.0565Q81.2889-80.1926 78.5057-75.032Q75.7874-80.1773 71.7335-84.0488Q67.6796-87.9204 62.4725-90.0833Q57.2655-92.2462 51.0582-92.2462Q43.5318-92.2462 36.969-89.4032Q30.4062-86.5601 25.4379-81.3145Q20.4697-76.0689 17.6788-68.8602Q14.888-61.6516 14.888-52.9541Q14.888-42.9153 18.9651-33.009Q23.0423-23.1026 30.6198-13.5136Q38.1973-3.92456 48.7862 5.19409Q59.375 14.3127 72.4327 22.7753Q73.9326 23.7808 75.6088 24.5872Q77.285 25.3937 78.5057 25.3937Z"/>
  </g>
  <g id="Medium-L" transform="matrix(1 0 0 1 1668.72 1556)">
   <path class="multicolor-0:systemRedColor SFSymbolsPreviewFF3B30" d="M77.832 24.5445Q78.9528 24.5445 80.3905 23.8762Q81.8283 23.2079 83.0986 22.3846Q96.1494 13.929 106.752 4.84734Q117.355-4.23431 124.939-13.773Q132.523-23.3116 136.6-33.1676Q140.677-43.0237 140.677-53.0281Q140.677-61.4899 137.963-68.5368Q135.25-75.5836 130.393-80.7251Q125.536-85.8665 119.108-88.6623Q112.679-91.4581 105.201-91.4581Q99.0807-91.4581 93.9075-89.312Q88.7344-87.1658 84.6748-83.3153Q80.6152-79.4647 77.832-74.2981Q75.106-79.4563 71.0423-83.3111Q66.9785-87.1658 61.7851-89.312Q56.5918-91.4581 50.4715-91.4581Q43.0328-91.4581 36.5849-88.6623Q30.1369-85.8665 25.28-80.7251Q20.4231-75.5836 17.7097-68.5368Q14.9963-61.4899 14.9963-53.0281Q14.9963-43.0237 19.0735-33.1676Q23.1506-23.3116 30.7346-13.773Q38.3186-4.23431 48.9212 4.84734Q59.5238 13.929 72.6143 22.3846Q73.8449 23.2079 75.3025 23.8762Q76.7601 24.5445 77.832 24.5445Z"/>
  </g>
  <g id="Regular-L" transform="matrix(1 0 0 1 1372.89 1556)">
   <path class="multicolor-0:systemRedColor SFSymbolsPreviewFF3B30" d="M76.9531 23.4375Q77.8809 23.4375 79.0283 22.9492Q80.1758 22.4609 81.1035 21.875Q94.1895 13.4277 104.81 4.39453Q115.43-4.63867 123.022-14.1113Q130.615-23.584 134.692-33.374Q138.77-43.1641 138.77-53.125Q138.77-61.2793 136.157-68.1152Q133.545-74.9512 128.833-79.9561Q124.121-84.9609 117.847-87.6953Q111.572-90.4297 104.199-90.4297Q98.1934-90.4297 93.042-88.3057Q87.8906-86.1816 83.8135-82.3486Q79.7363-78.5156 76.9531-73.3398Q74.2188-78.5156 70.1416-82.3486Q66.0645-86.1816 60.8887-88.3057Q55.7129-90.4297 49.707-90.4297Q42.3828-90.4297 36.084-87.6953Q29.7852-84.9609 25.0732-79.9561Q20.3613-74.9512 17.749-68.1152Q15.1367-61.2793 15.1367-53.125Q15.1367-43.1641 19.2139-33.374Q23.291-23.584 30.8838-14.1113Q38.4766-4.63867 49.0967 4.39453Q59.7168 13.4277 72.8516 21.875Q73.7305 22.4609 74.9023 22.9492Q76.0742 23.4375 76.9531 23.4375Z"/>
  </g>
  <g id="Light-L" transform="matrix(1 0 0 1 1077.74 1556)">
   <path class="multicolor-0:systemRedColor SFSymbolsPreviewFF3B30" d="M75.3944 21.9391Q76.2009 21.9391 77.174 21.534Q78.1471 21.1288 78.9238 20.6184Q91.7221 12.262 102.236 3.36494Q112.75-5.53207 120.351-14.838Q127.951-24.144 132.074-33.7524Q136.196-43.3609 136.196-53.125Q136.196-61.0519 133.652-67.6914Q131.108-74.3309 126.502-79.2068Q121.896-84.0828 115.743-86.7493Q109.589-89.4157 102.353-89.4157Q96.5584-89.4157 91.407-87.3219Q86.2556-85.228 82.1484-81.448Q78.0411-77.668 75.3944-72.5525Q72.7806-77.668 68.6733-81.448Q64.566-85.228 59.3979-87.3219Q54.2297-89.4157 48.4505-89.4157Q41.2323-89.4157 35.062-86.7493Q28.8918-84.0828 24.2935-79.2068Q19.6953-74.3309 17.1436-67.6914Q14.592-61.0519 14.592-53.125Q14.592-43.3609 18.7145-33.7524Q22.8371-24.144 30.4375-14.838Q38.0379-5.53207 48.5519 3.36494Q59.066 12.262 71.8979 20.6184Q72.641 21.1288 73.6309 21.534Q74.6208 21.9391 75.3944 21.9391Z"/>
  </g>
  <g id="Thin-L" transform="matrix(1 0 0 1 783.09 1556)">
   <path class="multicolor-0:systemRedColor SFSymbolsPreviewFF3B30" d="M73.3322 19.957Q73.9784 19.957 74.7219 19.6621Q75.4654 19.3672 76.0414 18.9575Q88.459 10.7208 98.8331 2.00386Q109.207-6.7131 116.817-15.799Q124.428-24.8848 128.611-34.2529Q132.793-43.6211 132.793-53.125Q132.793-60.7521 130.339-67.131Q127.885-73.51 123.419-78.2158Q118.954-82.9216 112.96-85.498Q106.967-88.0745 99.91-88.0745Q94.397-88.0745 89.2456-86.0207Q84.0942-83.9668 79.9465-80.257Q75.7988-76.5472 73.3322-71.5118Q70.8794-76.5472 66.7316-80.257Q62.5839-83.9668 57.4257-86.0207Q52.2675-88.0745 46.7896-88.0745Q39.711-88.0745 33.7109-85.498Q27.7107-82.9216 23.2628-78.2158Q18.8148-73.51 16.3429-67.131Q13.871-60.7521 13.871-53.125Q13.871-43.6211 18.0538-34.2529Q22.2366-24.8848 29.847-15.799Q37.4573-6.7131 47.8313 2.00386Q58.2054 10.7208 70.6367 18.9575Q71.199 19.3672 71.9494 19.6621Q72.6997 19.957 73.3322 19.957Z"/>
  </g>
  <g id="Ultralight-L" transform="matrix(1 0 0 1 487.435 1556)">
   <path class="multicolor-0:systemRedColor SFSymbolsPreviewFF3B30" d="M72.2755 18.9423Q72.8401 18.9423 73.4653 18.7035Q74.0906 18.4647 74.5644 18.1061Q86.7874 9.93118 97.0898 1.30653Q107.392-7.31812 115.008-16.291Q122.623-25.264 126.837-34.5093Q131.05-43.7546 131.05-53.125Q131.05-60.598 128.642-66.8438Q126.234-73.0896 121.84-77.7084Q117.446-82.3273 111.535-84.8572Q105.624-87.3871 98.6595-87.3871Q93.2892-87.3871 88.1378-85.3539Q82.9865-83.3206 78.8185-79.6467Q74.6506-75.9727 72.2755-70.9785Q69.9051-75.9727 65.7372-79.6467Q61.5692-83.3206 56.4159-85.3539Q51.2627-87.3871 45.9381-87.3871Q38.932-87.3871 33.0189-84.8572Q27.1057-82.3273 22.7345-77.7084Q18.3632-73.0896 15.9325-66.8438Q13.5017-60.598 13.5017-53.125Q13.5017-43.7546 17.7151-34.5093Q21.9284-25.264 29.5441-16.291Q37.1597-7.31812 47.4621 1.30653Q57.7644 9.93118 69.9905 18.1061Q70.4613 18.4647 71.088 18.7035Q71.7148 18.9423 72.2755 18.9423Z"/>
  </g>
  <g id="Black-M" transform="matrix(1 0 0 1 2869.53 1126)">
   <path class="multicolor-0:systemRedColor SFSymbolsPreviewFF3B30" d="M63.8672 15.7715Q65.5762 15.7715 67.9688 14.4287Q70.3613 13.0859 72.9492 11.377Q86.0352 2.58789 95.9473-7.25098Q105.859-17.0898 111.426-27.5635Q116.992-38.0371 116.992-48.584Q116.992-56.4941 114.429-62.8906Q111.865-69.2871 107.471-73.8281Q103.076-78.3691 97.4121-80.8105Q91.748-83.252 85.5469-83.252Q77.7344-83.252 72.3633-79.4189Q66.9922-75.5859 63.8672-69.6777Q60.7422-75.5859 55.3711-79.4189Q50-83.252 42.1875-83.252Q35.9375-83.252 30.2979-80.8105Q24.6582-78.3691 20.2393-73.8281Q15.8203-69.2871 13.2812-62.8906Q10.7422-56.4941 10.7422-48.584Q10.7422-38.0371 16.2842-27.5635Q21.8262-17.0898 31.7627-7.25098Q41.6992 2.58789 54.7852 11.377Q57.3242 13.0859 59.7412 14.4287Q62.1582 15.7715 63.8672 15.7715Z"/>
  </g>
  <g id="Heavy-M" transform="matrix(1 0 0 1 2573.61 1126)">
   <path class="multicolor-0:systemRedColor SFSymbolsPreviewFF3B30" d="M63.0836 14.6652Q64.5737 14.6652 66.6378 13.5414Q68.7019 12.4176 70.8633 10.997Q84.1103 2.20795 94.0628-7.58514Q104.015-17.3782 109.565-27.7824Q115.114-38.1866 115.114-48.6992Q115.114-56.2752 112.666-62.4355Q110.217-68.5959 105.99-72.9984Q101.762-77.401 96.2654-79.7733Q90.7684-82.1457 84.671-82.1457Q77.0195-82.1457 71.637-78.3588Q66.2544-74.572 63.0836-68.6287Q59.9243-74.5605 54.5414-78.3531Q49.1585-82.1457 41.4963-82.1457Q35.3615-82.1457 29.8889-79.7733Q24.4164-77.401 20.1645-72.9984Q15.9126-68.5959 13.483-62.4355Q11.0535-56.2752 11.0535-48.6992Q11.0535-38.1866 16.584-27.7824Q22.1146-17.3782 32.0911-7.58514Q42.0677 2.20795 55.3154 10.997Q57.4394 12.4176 59.5222 13.5414Q61.6051 14.6652 63.0836 14.6652Z"/>
  </g>
  <g id="Bold-M" transform="matrix(1 0 0 1 2277.77 1126)">
   <path class="multicolor-0:systemRedColor SFSymbolsPreviewFF3B30" d="M62.207 13.4277Q63.4521 13.4277 65.1489 12.5488Q66.8457 11.6699 68.5303 10.5713Q81.958 1.78223 91.9556-7.95898Q101.953-17.7002 107.483-28.0273Q113.013-38.3545 113.013-48.8281Q113.013-56.0303 110.693-61.9263Q108.374-67.8223 104.333-72.0703Q100.293-76.3184 94.9829-78.6133Q89.6729-80.9082 83.6914-80.9082Q76.2207-80.9082 70.8252-77.1729Q65.4297-73.4375 62.207-67.4561Q59.0088-73.4131 53.6133-77.1606Q48.2178-80.9082 40.7227-80.9082Q34.7168-80.9082 29.4312-78.6133Q24.1455-76.3184 20.0806-72.0703Q16.0156-67.8223 13.7085-61.9263Q11.4014-56.0303 11.4014-48.8281Q11.4014-38.3545 16.9189-28.0273Q22.4365-17.7002 32.4585-7.95898Q42.4805 1.78223 55.9082 10.5713Q57.5684 11.6699 59.2773 12.5488Q60.9863 13.4277 62.207 13.4277Z"/>
  </g>
  <g id="Semibold-M" transform="matrix(1 0 0 1 1981.66 1126)">
   <path class="multicolor-0:systemRedColor SFSymbolsPreviewFF3B30" d="M61.6028 12.5748Q62.6793 12.5748 64.1228 11.8645Q65.5663 11.1542 66.922 10.2783Q80.4741 1.48926 90.5025-8.21648Q100.531-17.9222 106.047-28.196Q111.564-38.4697 111.564-48.9166Q111.564-55.8617 109.333-61.5753Q107.103-67.289 103.191-71.4306Q99.2798-75.5722 94.0987-77.8137Q88.9175-80.0552 83.0162-80.0552Q75.6699-80.0552 70.2656-76.3554Q64.8613-72.6555 61.6028-66.6473Q58.3778-72.6219 52.9736-76.3386Q47.5693-80.0552 40.1894-80.0552Q34.2728-80.0552 29.1157-77.8137Q23.9586-75.5722 20.0226-71.4306Q16.0866-67.289 13.8641-61.5753Q11.6417-55.8617 11.6417-48.9166Q11.6417-38.4697 17.1501-28.196Q22.6585-17.9222 32.7118-8.21648Q42.765 1.48926 56.3171 10.2783Q57.6569 11.1542 59.1084 11.8645Q60.5598 12.5748 61.6028 12.5748Z"/>
  </g>
  <g id="Medium-M" transform="matrix(1 0 0 1 1685.41 1126)">
   <path class="multicolor-0:systemRedColor SFSymbolsPreviewFF3B30" d="M61.1443 11.9278Q62.0926 11.9278 63.3442 11.3457Q64.5958 10.7635 65.7021 10.0555Q79.3488 1.26648 89.4009-8.41217Q99.453-18.0908 104.959-28.3241Q110.466-38.5574 110.466-48.9845Q110.466-55.7335 108.303-61.3091Q106.139-66.8846 102.325-70.9454Q98.5115-75.0061 93.428-77.2072Q88.3446-79.4083 82.5035-79.4083Q75.2518-79.4083 69.8406-75.7355Q64.4295-72.0627 61.1443-66.0339Q57.8995-72.0222 52.4883-75.7153Q47.0772-79.4083 39.785-79.4083Q33.9355-79.4083 28.8765-77.2072Q23.8174-75.0061 19.9791-70.9454Q16.1407-66.8846 13.982-61.3091Q11.8233-55.7335 11.8233-48.9845Q11.8233-38.5574 17.3252-28.3241Q22.8271-18.0908 32.9037-8.41217Q42.9802 1.26648 56.6269 10.0555Q57.7248 10.7635 58.9806 11.3457Q60.2364 11.9278 61.1443 11.9278Z"/>
  </g>
  <g id="Regular-M" transform="matrix(1 0 0 1 1389.3 1126)">
   <path class="multicolor-0:systemRedColor SFSymbolsPreviewFF3B30" d="M60.5469 11.084Q61.3281 11.084 62.3291 10.6689Q63.3301 10.2539 64.1113 9.76562Q77.8809 0.976562 87.9639-8.66699Q98.0469-18.3105 103.54-28.4912Q109.033-38.6719 109.033-49.0723Q109.033-55.5664 106.958-60.9619Q104.883-66.3574 101.196-70.3125Q97.5098-74.2676 92.5537-76.416Q87.5977-78.5645 81.8359-78.5645Q74.707-78.5645 69.2871-74.9268Q63.8672-71.2891 60.5469-65.2344Q57.2754-71.2402 51.8555-74.9023Q46.4355-78.5645 39.2578-78.5645Q33.4961-78.5645 28.5645-76.416Q23.6328-74.2676 19.9219-70.3125Q16.2109-66.3574 14.1357-60.9619Q12.0605-55.5664 12.0605-49.0723Q12.0605-38.6719 17.5537-28.4912Q23.0469-18.3105 33.1543-8.66699Q43.2617 0.976562 57.0312 9.76562Q57.8125 10.2539 58.8135 10.6689Q59.8145 11.084 60.5469 11.084Z"/>
  </g>
  <g id="Light-M" transform="matrix(1 0 0 1 1093.99 1126)">
   <path class="multicolor-0:systemRedColor SFSymbolsPreviewFF3B30" d="M59.1393 9.73663Q59.8145 9.73663 60.6491 9.39751Q61.4838 9.05838 62.1437 8.63037Q75.5653-0.0526428 85.5877-9.51462Q95.61-18.9766 101.164-28.9379Q106.718-38.8992 106.718-49.0723Q106.718-55.3543 104.703-60.5835Q102.688-65.8127 99.0921-69.6465Q95.4964-73.4802 90.654-75.5684Q85.8116-77.6566 80.1559-77.6566Q73.3147-77.6566 67.7963-74.0791Q62.278-70.5017 59.1393-64.5233Q56.0188-70.4681 50.5081-74.0623Q44.9974-77.6566 38.1226-77.6566Q32.4669-77.6566 27.6413-75.5684Q22.8157-73.4802 19.2032-69.6465Q15.5907-65.8127 13.5757-60.5835Q11.5608-55.3543 11.5608-49.0723Q11.5608-38.8992 17.1146-28.9379Q22.6685-18.9766 32.7076-9.51462Q42.7467-0.0526428 56.1531 8.63037Q56.8138 9.05838 57.6557 9.39751Q58.4976 9.73663 59.1393 9.73663Z"/>
  </g>
  <g id="Thin-M" transform="matrix(1 0 0 1 799.145 1126)">
   <path class="multicolor-0:systemRedColor SFSymbolsPreviewFF3B30" d="M57.2777 7.95517Q57.8125 7.95517 58.4267 7.71599Q59.0408 7.47681 59.5413 7.12891Q72.5021-1.41373 82.4444-10.6354Q92.3866-19.857 98.0206-29.528Q103.654-39.1991 103.654-49.0723Q103.654-55.0743 101.72-60.083Q99.7856-65.0917 96.31-68.7656Q92.8345-72.4396 88.142-74.4473Q83.4496-76.4549 77.9335-76.4549Q71.4729-76.4549 65.8245-72.958Q60.1761-69.4611 57.2777-63.5818Q54.3579-69.4473 48.727-72.9511Q43.0962-76.4549 36.6211-76.4549Q31.1058-76.4549 26.4202-74.4473Q21.7346-72.4396 18.2522-68.7656Q14.7697-65.0917 12.8349-60.083Q10.9001-55.0743 10.9001-49.0723Q10.9001-39.1991 16.534-29.528Q22.168-19.857 32.1171-10.6354Q42.0662-1.41373 54.9919 7.12891Q55.4924 7.47681 56.1241 7.71599Q56.7558 7.95517 57.2777 7.95517Z"/>
  </g>
  <g id="Ultralight-M" transform="matrix(1 0 0 1 503.387 1126)">
   <path class="multicolor-0:systemRedColor SFSymbolsPreviewFF3B30" d="M56.324 7.04269Q56.7871 7.04269 57.2887 6.85463Q57.7904 6.66656 58.2077 6.35986Q70.9335-2.11105 80.8346-11.2099Q90.7356-20.3087 96.4108-29.8309Q102.086-39.3532 102.086-49.0723Q102.086-54.9309 100.192-59.8267Q98.2986-64.7224 94.8845-68.3144Q91.4703-71.9063 86.8549-73.8731Q82.2395-75.84 76.7952-75.84Q70.5292-75.84 64.814-72.3839Q59.0988-68.9278 56.324-63.1004Q53.5065-68.9247 47.8142-72.3824Q42.1219-75.84 35.8521-75.84Q30.4085-75.84 25.7946-73.8731Q21.1807-71.9063 17.765-68.3144Q14.3494-64.7224 12.4557-59.8267Q10.5621-54.9309 10.5621-49.0723Q10.5621-39.3532 16.2369-29.8309Q21.9116-20.3087 31.8146-11.2099Q41.7175-2.11105 54.3976 6.35986Q54.8157 6.66656 55.3398 6.85463Q55.864 7.04269 56.324 7.04269Z"/>
  </g>
  <g id="Black-S" transform="matrix(1 0 0 1 2883.2 696)">
   <path class="multicolor-0:systemRedColor SFSymbolsPreviewFF3B30" d="M50.1953 4.98047Q51.6113 4.98047 53.5889 3.85742Q55.5664 2.73438 57.666 1.31836Q67.8711-5.56641 75.6348-13.2812Q83.3984-20.9961 87.7441-29.1992Q92.0898-37.4023 92.0898-45.6543Q92.0898-54.0527 88.5986-60.2051Q85.1074-66.3574 79.4189-69.751Q73.7305-73.1445 67.1875-73.1445Q61.0352-73.1445 56.8359-70.1416Q52.6367-67.1387 50.1953-62.5Q47.8027-67.1387 43.5791-70.1416Q39.3555-73.1445 33.2031-73.1445Q26.6602-73.1445 20.9717-69.751Q15.2832-66.3574 11.792-60.2051Q8.30078-54.0527 8.30078-45.6543Q8.30078-37.4023 12.6465-29.1992Q16.9922-20.9961 24.7559-13.2812Q32.5195-5.56641 42.7246 1.31836Q44.873 2.73438 46.8506 3.85742Q48.8281 4.98047 50.1953 4.98047Z"/>
  </g>
  <g id="Heavy-S" transform="matrix(1 0 0 1 2586.99 696)">
   <path class="multicolor-0:systemRedColor SFSymbolsPreviewFF3B30" d="M49.6994 4.20837Q50.9315 4.20837 52.6497 3.26385Q54.3678 2.31934 56.1218 1.13373Q66.5115-5.76248 74.3153-13.4598Q82.119-21.1571 86.4475-29.3316Q90.7761-37.5061 90.7761-45.7581Q90.7761-53.7994 87.4348-59.7557Q84.0935-65.712 78.5892-69.0132Q73.085-72.3145 66.6458-72.3145Q60.5972-72.3145 56.398-69.3405Q52.1988-66.3666 49.6994-61.6936Q47.2496-66.3551 43.0317-69.3348Q38.8138-72.3145 32.7538-72.3145Q26.3145-72.3145 20.816-69.0132Q15.3175-65.712 11.9705-59.7557Q8.6235-53.7994 8.6235-45.7581Q8.6235-37.5061 12.952-29.3316Q17.2806-21.1571 25.0843-13.4598Q32.888-5.76248 43.2777 1.13373Q45.0806 2.31934 46.793 3.26385Q48.5054 4.20837 49.6994 4.20837Z"/>
  </g>
  <g id="Bold-S" transform="matrix(1 0 0 1 2290.83 696)">
   <path class="multicolor-0:systemRedColor SFSymbolsPreviewFF3B30" d="M49.1455 3.34473Q50.1709 3.34473 51.5991 2.6001Q53.0273 1.85547 54.3945 0.927734Q64.9902-5.98145 72.8394-13.6597Q80.6885-21.3379 84.9976-29.48Q89.3066-37.6221 89.3066-45.874Q89.3066-53.5156 86.1328-59.2529Q82.959-64.9902 77.6611-68.1885Q72.3633-71.3867 66.04-71.3867Q60.1074-71.3867 55.9082-68.4448Q51.709-65.5029 49.1455-60.791Q46.6309-65.4785 42.4194-68.4326Q38.208-71.3867 32.251-71.3867Q25.9277-71.3867 20.6421-68.1885Q15.3564-64.9902 12.1704-59.2529Q8.98438-53.5156 8.98438-45.874Q8.98438-37.6221 13.2935-29.48Q17.6025-21.3379 25.4517-13.6597Q33.3008-5.98145 43.8965 0.927734Q45.3125 1.85547 46.7285 2.6001Q48.1445 3.34473 49.1455 3.34473Z"/>
  </g>
  <g id="Semibold-S" transform="matrix(1 0 0 1 1994.5 696)">
   <path class="multicolor-0:systemRedColor SFSymbolsPreviewFF3B30" d="M48.7633 2.74963Q49.6468 2.74963 50.8751 2.14272Q52.1034 1.5358 53.2036 0.785828Q63.9412-6.13251 71.8216-13.7974Q79.702-21.4622 83.9977-29.5822Q88.2935-37.7022 88.2935-45.9541Q88.2935-53.3203 85.2352-58.9066Q82.177-64.4928 77.0214-67.6197Q71.8658-70.7466 65.6227-70.7466Q59.7694-70.7466 55.5702-67.8272Q51.371-64.9078 48.7633-60.1692Q46.2044-64.8743 41.9975-67.8104Q37.7907-70.7466 31.9046-70.7466Q25.6615-70.7466 20.5223-67.6197Q15.3831-64.4928 12.3081-58.9066Q9.23309-53.3203 9.23309-45.9541Q9.23309-37.7022 13.5288-29.5822Q17.8246-21.4622 25.705-13.7974Q33.5854-6.13251 44.323 0.785828Q45.4727 1.5358 46.6843 2.14272Q47.8958 2.74963 48.7633 2.74963Z"/>
  </g>
  <g id="Medium-S" transform="matrix(1 0 0 1 1698.08 696)">
   <path class="multicolor-0:systemRedColor SFSymbolsPreviewFF3B30" d="M48.4734 2.29797Q49.2493 2.29797 50.3258 1.79558Q51.4023 1.29318 52.301 0.67749Q63.1462-6.24695 71.0503-13.9019Q78.9543-21.5569 83.2397-29.6597Q87.5252-37.7625 87.5252-46.0144Q87.5252-53.1715 84.5547-58.6433Q81.5842-64.1151 76.5362-67.1883Q71.4882-70.2614 65.3053-70.2614Q59.5139-70.2614 55.3146-67.3588Q51.1154-64.4562 48.4734-59.697Q45.8809-64.4157 41.6771-67.3386Q37.4733-70.2614 31.6414-70.2614Q25.4593-70.2614 20.4311-67.1883Q15.403-64.1151 12.4123-58.6433Q9.42154-53.1715 9.42154-46.0144Q9.42154-37.7625 13.7074-29.6597Q17.9932-21.5569 25.8968-13.9019Q33.8005-6.24695 44.6465 0.67749Q45.594 1.29318 46.6507 1.79558Q47.7074 2.29797 48.4734 2.29797Z"/>
  </g>
  <g id="Regular-S" transform="matrix(1 0 0 1 1401.75 696)">
   <path class="multicolor-0:systemRedColor SFSymbolsPreviewFF3B30" d="M48.0957 1.70898Q48.7305 1.70898 49.6094 1.34277Q50.4883 0.976562 51.123 0.537109Q62.1094-6.39648 70.0439-14.0381Q77.9785-21.6797 82.251-29.7607Q86.5234-37.8418 86.5234-46.0938Q86.5234-52.9785 83.667-58.3008Q80.8105-63.623 75.9033-66.626Q70.9961-69.6289 64.8926-69.6289Q59.1797-69.6289 54.9805-66.748Q50.7812-63.8672 48.0957-59.082Q45.459-63.8184 41.2598-66.7236Q37.0605-69.6289 31.2988-69.6289Q25.1953-69.6289 20.3125-66.626Q15.4297-63.623 12.5488-58.3008Q9.66797-52.9785 9.66797-46.0938Q9.66797-37.8418 13.9404-29.7607Q18.2129-21.6797 26.1475-14.0381Q34.082-6.39648 45.0684 0.537109Q45.752 0.976562 46.6064 1.34277Q47.4609 1.70898 48.0957 1.70898Z"/>
  </g>
  <g id="Light-S" transform="matrix(1 0 0 1 1106.28 696)">
   <path class="multicolor-0:systemRedColor SFSymbolsPreviewFF3B30" d="M46.8544 0.513458Q47.3984 0.513458 48.1335 0.215149Q48.8686-0.0831604 49.3973-0.447083Q60.0662-7.28989 67.9478-14.7724Q75.8293-22.2549 80.1548-30.1468Q84.4803-38.0386 84.4803-46.0938Q84.4803-52.7367 81.707-57.8697Q78.9337-63.0028 74.1627-65.9145Q69.3916-68.8263 63.4247-68.8263Q57.9536-68.8263 53.6713-65.9985Q49.3889-63.1706 46.8544-58.4465Q44.3542-63.1371 40.0715-65.9817Q35.7887-68.8263 30.2849-68.8263Q24.3172-68.8263 19.5633-65.9145Q14.8094-63.0028 12.0193-57.8697Q9.22928-52.7367 9.22928-46.0938Q9.22928-38.0386 13.5548-30.1468Q17.8802-22.2549 25.7618-14.7724Q33.6433-7.28989 44.3115-0.447083Q44.8738-0.0831604 45.5845 0.215149Q46.2952 0.513458 46.8544 0.513458Z"/>
  </g>
  <g id="Thin-S" transform="matrix(1 0 0 1 811.209 696)">
   <path class="multicolor-0:systemRedColor SFSymbolsPreviewFF3B30" d="M45.2133-1.06812Q45.6367-1.06812 46.1819-1.27602Q46.727-1.48392 47.1153-1.74789Q57.3631-8.47092 65.1749-15.7433Q72.9866-23.0156 77.3819-30.6572Q81.7772-38.2988 81.7772-46.0938Q81.7772-52.4162 79.1142-57.299Q76.4511-62.1819 71.8605-64.9738Q67.2699-67.7658 61.4822-67.7658Q56.3324-67.7658 51.9398-65.0078Q47.5471-62.2498 45.2133-57.6057Q42.8925-62.236 38.4998-65.0009Q34.1072-67.7658 28.9436-67.7658Q23.156-67.7658 18.5722-64.9738Q13.9885-62.1819 11.3186-57.299Q8.64868-52.4162 8.64868-46.0938Q8.64868-38.2988 13.044-30.6572Q17.4393-23.0156 25.251-15.7433Q33.0627-8.47092 43.3105-1.74789Q43.7126-1.48392 44.2333-1.27602Q44.754-1.06812 45.2133-1.06812Z"/>
  </g>
  <g id="Ultralight-S" transform="matrix(1 0 0 1 515.339 696)">
   <path class="multicolor-0:systemRedColor SFSymbolsPreviewFF3B30" d="M44.3718-1.87836Q44.7342-1.87836 45.1817-2.0401Q45.6291-2.20184 45.9465-2.4147Q55.9792-9.07593 63.7547-16.2407Q71.5302-23.4055 75.9617-30.9189Q80.3932-38.4323 80.3932-46.0938Q80.3932-52.2522 77.7866-57.0068Q75.1801-61.7615 70.6814-64.4917Q66.1827-67.2218 60.4881-67.2218Q55.5016-67.2218 51.0525-64.5Q46.6034-61.7783 44.3718-57.1747Q42.144-61.7752 37.6949-64.4985Q33.2458-67.2218 28.2562-67.2218Q22.5616-67.2218 18.0649-64.4917Q13.5681-61.7615 10.9596-57.0068Q8.35114-52.2522 8.35114-46.0938Q8.35114-38.4323 12.7827-30.9189Q17.2142-23.4055 24.9897-16.2407Q32.7652-9.07593 42.7979-2.4147Q43.1183-2.20184 43.5413-2.0401Q43.9644-1.87836 44.3718-1.87836Z"/>
  </g>
 </g>
</svg>
