<?xml version="1.0" encoding="UTF-8"?>
<!--Generator: Apple Native CoreSVG 149-->
<!DOCTYPE svg
PUBLIC "-//W3C//DTD SVG 1.1//EN"
       "http://www.w3.org/Graphics/SVG/1.1/DTD/svg11.dtd">
<svg version="1.1" xmlns="http://www.w3.org/2000/svg" xmlns:xlink="http://www.w3.org/1999/xlink" width="3300" height="2200">
 <!--glyph: "uni1008F5.medium", point size: 100.000000, font version: "Version 16.0d18e1", template writer version: "8"-->
 <g id="Notes">
  <rect height="2200" id="artboard" style="fill:white;opacity:1" width="3300" x="0" y="0"/>
  <line id="" style="fill:none;stroke:black;opacity:1;stroke-width:0.5;" x1="263" x2="3036" y1="292" y2="292"/>
  <text style="stroke:none;fill:black;font-family:-apple-system,&quot;SF Pro Display&quot;,&quot;SF Pro Text&quot;,Helvetica,sans-serif;font-weight:bold;" transform="matrix(1 0 0 1 263 322)">Weight/Scale Variations</text>
  <text style="stroke:none;fill:black;font-family:-apple-system,&quot;SF Pro Display&quot;,&quot;SF Pro Text&quot;,Helvetica,sans-serif;text-anchor:middle;" transform="matrix(1 0 0 1 559.711 322)">Ultralight</text>
  <text style="stroke:none;fill:black;font-family:-apple-system,&quot;SF Pro Display&quot;,&quot;SF Pro Text&quot;,Helvetica,sans-serif;text-anchor:middle;" transform="matrix(1 0 0 1 856.422 322)">Thin</text>
  <text style="stroke:none;fill:black;font-family:-apple-system,&quot;SF Pro Display&quot;,&quot;SF Pro Text&quot;,Helvetica,sans-serif;text-anchor:middle;" transform="matrix(1 0 0 1 1153.13 322)">Light</text>
  <text style="stroke:none;fill:black;font-family:-apple-system,&quot;SF Pro Display&quot;,&quot;SF Pro Text&quot;,Helvetica,sans-serif;text-anchor:middle;" transform="matrix(1 0 0 1 1449.84 322)">Regular</text>
  <text style="stroke:none;fill:black;font-family:-apple-system,&quot;SF Pro Display&quot;,&quot;SF Pro Text&quot;,Helvetica,sans-serif;text-anchor:middle;" transform="matrix(1 0 0 1 1746.56 322)">Medium</text>
  <text style="stroke:none;fill:black;font-family:-apple-system,&quot;SF Pro Display&quot;,&quot;SF Pro Text&quot;,Helvetica,sans-serif;text-anchor:middle;" transform="matrix(1 0 0 1 2043.27 322)">Semibold</text>
  <text style="stroke:none;fill:black;font-family:-apple-system,&quot;SF Pro Display&quot;,&quot;SF Pro Text&quot;,Helvetica,sans-serif;text-anchor:middle;" transform="matrix(1 0 0 1 2339.98 322)">Bold</text>
  <text style="stroke:none;fill:black;font-family:-apple-system,&quot;SF Pro Display&quot;,&quot;SF Pro Text&quot;,Helvetica,sans-serif;text-anchor:middle;" transform="matrix(1 0 0 1 2636.69 322)">Heavy</text>
  <text style="stroke:none;fill:black;font-family:-apple-system,&quot;SF Pro Display&quot;,&quot;SF Pro Text&quot;,Helvetica,sans-serif;text-anchor:middle;" transform="matrix(1 0 0 1 2933.4 322)">Black</text>
  <line id="" style="fill:none;stroke:black;opacity:1;stroke-width:0.5;" x1="263" x2="3036" y1="1903" y2="1903"/>
  <g id="" transform="matrix(1 0 0 1 263 1933)">
   <path d="M9.24805 0.830078C13.5547 0.830078 17.1387-2.74414 17.1387-7.05078C17.1387-11.3574 13.5449-14.9316 9.23828-14.9316C4.94141-14.9316 1.36719-11.3574 1.36719-7.05078C1.36719-2.74414 4.95117 0.830078 9.24805 0.830078ZM9.24805-0.654297C5.70312-0.654297 2.87109-3.49609 2.87109-7.05078C2.87109-10.6055 5.69336-13.4473 9.23828-13.4473C12.793-13.4473 15.6348-10.6055 15.6445-7.05078C15.6543-3.49609 12.8027-0.654297 9.24805-0.654297ZM6.39648-6.31836L8.50586-6.31836L8.50586-4.19922C8.50586-3.75977 8.79883-3.45703 9.22852-3.45703C9.67773-3.45703 9.9707-3.75977 9.9707-4.19922L9.9707-6.31836L12.0996-6.31836C12.5391-6.31836 12.8418-6.61133 12.8418-7.04102C12.8418-7.48047 12.5391-7.7832 12.0996-7.7832L9.9707-7.7832L9.9707-9.89258C9.9707-10.3418 9.67773-10.6445 9.22852-10.6445C8.79883-10.6445 8.50586-10.3418 8.50586-9.89258L8.50586-7.7832L6.39648-7.7832C5.94727-7.7832 5.64453-7.48047 5.64453-7.04102C5.64453-6.61133 5.94727-6.31836 6.39648-6.31836Z"/>
  </g>
  <g id="" transform="matrix(1 0 0 1 281.506 1933)">
   <path d="M11.709 2.91016C17.1582 2.91016 21.6699-1.61133 21.6699-7.05078C21.6699-12.5 17.1484-17.0117 11.6992-17.0117C6.25977-17.0117 1.74805-12.5 1.74805-7.05078C1.74805-1.61133 6.26953 2.91016 11.709 2.91016ZM11.709 1.25C7.09961 1.25 3.41797-2.44141 3.41797-7.05078C3.41797-11.6602 7.08984-15.3516 11.6992-15.3516C16.3086-15.3516 20-11.6602 20.0098-7.05078C20.0195-2.44141 16.3184 1.25 11.709 1.25ZM7.98828-6.23047L10.8789-6.23047L10.8789-3.32031C10.8789-2.83203 11.2109-2.5 11.6895-2.5C12.1777-2.5 12.5195-2.83203 12.5195-3.32031L12.5195-6.23047L15.4297-6.23047C15.918-6.23047 16.25-6.5625 16.25-7.04102C16.25-7.5293 15.918-7.87109 15.4297-7.87109L12.5195-7.87109L12.5195-10.7617C12.5195-11.2695 12.1777-11.6016 11.6895-11.6016C11.2109-11.6016 10.8789-11.2598 10.8789-10.7617L10.8789-7.87109L7.98828-7.87109C7.48047-7.87109 7.14844-7.5293 7.14844-7.04102C7.14844-6.5625 7.49023-6.23047 7.98828-6.23047Z"/>
  </g>
  <g id="" transform="matrix(1 0 0 1 304.924 1933)">
   <path d="M14.9707 5.66406C21.9336 5.66406 27.6953-0.0976562 27.6953-7.05078C27.6953-14.0137 21.9238-19.7754 14.9609-19.7754C8.00781-19.7754 2.25586-14.0137 2.25586-7.05078C2.25586-0.0976562 8.01758 5.66406 14.9707 5.66406ZM14.9707 3.84766C8.93555 3.84766 4.08203-1.01562 4.08203-7.05078C4.08203-13.0957 8.92578-17.9492 14.9609-17.9492C21.0059-17.9492 25.8594-13.0957 25.8691-7.05078C25.8789-1.01562 21.0156 3.84766 14.9707 3.84766ZM10.0586-6.14258L14.0625-6.14258L14.0625-2.12891C14.0625-1.5918 14.4336-1.2207 14.9512-1.2207C15.4883-1.2207 15.8594-1.5918 15.8594-2.12891L15.8594-6.14258L19.8828-6.14258C20.4102-6.14258 20.791-6.51367 20.791-7.03125C20.791-7.56836 20.4199-7.94922 19.8828-7.94922L15.8594-7.94922L15.8594-11.9531C15.8594-12.5098 15.4883-12.8809 14.9512-12.8809C14.4336-12.8809 14.0625-12.5 14.0625-11.9531L14.0625-7.94922L10.0586-7.94922C9.50195-7.94922 9.13086-7.56836 9.13086-7.03125C9.13086-6.51367 9.51172-6.14258 10.0586-6.14258Z"/>
  </g>
  <text style="stroke:none;fill:black;font-family:-apple-system,&quot;SF Pro Display&quot;,&quot;SF Pro Text&quot;,Helvetica,sans-serif;font-weight:bold;" transform="matrix(1 0 0 1 263 1953)">Design Variations</text>
  <text style="stroke:none;fill:black;font-family:-apple-system,&quot;SF Pro Display&quot;,&quot;SF Pro Text&quot;,Helvetica,sans-serif;" transform="matrix(1 0 0 1 263 1971)">Symbols are supported in up to nine weights and three scales.</text>
  <text style="stroke:none;fill:black;font-family:-apple-system,&quot;SF Pro Display&quot;,&quot;SF Pro Text&quot;,Helvetica,sans-serif;" transform="matrix(1 0 0 1 263 1989)">For optimal layout with text and other symbols, vertically align</text>
  <text style="stroke:none;fill:black;font-family:-apple-system,&quot;SF Pro Display&quot;,&quot;SF Pro Text&quot;,Helvetica,sans-serif;" transform="matrix(1 0 0 1 263 2007)">symbols with the adjacent text.</text>
  <line id="" style="fill:none;stroke:#00AEEF;stroke-width:0.5;opacity:1.0;" x1="776" x2="776" y1="1919" y2="1933"/>
  <g id="" transform="matrix(1 0 0 1 776 1933)">
   <path d="M3.31055 0.126953C3.82812 0.126953 4.08203-0.0683594 4.26758-0.605469L5.52734-4.0625L11.2891-4.0625L12.5488-0.605469C12.7344-0.0683594 12.9883 0.126953 13.4961 0.126953C14.0137 0.126953 14.3457-0.185547 14.3457-0.673828C14.3457-0.839844 14.3164-0.986328 14.2383-1.20117L9.6582-13.3887C9.43359-13.9941 9.0332-14.2871 8.4082-14.2871C7.80273-14.2871 7.39258-13.9941 7.17773-13.3984L2.59766-1.19141C2.51953-0.976562 2.49023-0.830078 2.49023-0.664062C2.49023-0.175781 2.80273 0.126953 3.31055 0.126953ZM6.00586-5.53711L8.37891-12.1094L8.42773-12.1094L10.8008-5.53711Z"/>
  </g>
  <line id="" style="fill:none;stroke:#00AEEF;stroke-width:0.5;opacity:1.0;" x1="792.836" x2="792.836" y1="1919" y2="1933"/>
  <text style="stroke:none;fill:black;font-family:-apple-system,&quot;SF Pro Display&quot;,&quot;SF Pro Text&quot;,Helvetica,sans-serif;font-weight:bold;" transform="matrix(1 0 0 1 776 1953)">Margins</text>
  <text style="stroke:none;fill:black;font-family:-apple-system,&quot;SF Pro Display&quot;,&quot;SF Pro Text&quot;,Helvetica,sans-serif;" transform="matrix(1 0 0 1 776 1971)">Leading and trailing margins on the left and right side of each symbol</text>
  <text style="stroke:none;fill:black;font-family:-apple-system,&quot;SF Pro Display&quot;,&quot;SF Pro Text&quot;,Helvetica,sans-serif;" transform="matrix(1 0 0 1 776 1989)">can be adjusted by modifying the x-location of the margin guidelines.</text>
  <text style="stroke:none;fill:black;font-family:-apple-system,&quot;SF Pro Display&quot;,&quot;SF Pro Text&quot;,Helvetica,sans-serif;" transform="matrix(1 0 0 1 776 2007)">Modifications are automatically applied proportionally to all</text>
  <text style="stroke:none;fill:black;font-family:-apple-system,&quot;SF Pro Display&quot;,&quot;SF Pro Text&quot;,Helvetica,sans-serif;" transform="matrix(1 0 0 1 776 2025)">scales and weights.</text>
  <g id="" transform="matrix(1 0 0 1 1289 1933)">
   <path d="M2.8418 1.86523L4.54102 3.57422C5.40039 4.44336 6.38672 4.38477 7.31445 3.35938L17.4902-7.85156C17.7539-7.76367 18.0273-7.7832 18.3398-7.8418L19.4043-8.03711L20.0684-7.36328L20.0293-6.80664C19.9902-6.30859 20.1172-5.92773 20.6055-5.44922L21.3672-4.70703C21.8457-4.22852 22.4609-4.19922 22.9297-4.66797L25.8398-7.58789C26.3086-8.05664 26.2891-8.65234 25.8105-9.13086L25.0391-9.89258C24.5605-10.3711 24.1895-10.5273 23.7109-10.4883L23.1348-10.4395L22.4902-11.0742L22.7344-12.1973C22.8613-12.7637 22.7051-13.2031 22.1191-13.7891L19.9219-15.9766C16.582-19.2969 12.1484-19.2188 9.25781-16.3281C8.83789-15.918 8.80859-15.3418 9.04297-14.9512C9.27734-14.5898 9.73633-14.3555 10.3809-14.5215C11.8457-14.8633 13.3691-14.9219 14.7949-13.9844L14.209-12.5293C14.0137-12.0508 13.9844-11.6504 14.1113-11.2891L3.04688-0.898438C2.06055 0.0195312 1.98242 0.996094 2.8418 1.86523ZM10.752-15.957C13.1836-17.7344 16.4746-17.4316 18.7012-15.2051L21.1328-12.793C21.3672-12.5586 21.4062-12.373 21.3379-12.0312L21.0156-10.5469L22.5195-9.0625L23.5059-9.12109C23.7598-9.13086 23.8379-9.11133 24.0332-8.91602L24.6094-8.33984L22.168-5.89844L21.5918-6.47461C21.3965-6.66992 21.3672-6.74805 21.377-7.01172L21.4453-7.98828L19.9512-9.47266L18.4277-9.21875C18.1055-9.15039 17.959-9.17969 17.7148-9.41406L15.7129-11.416C15.459-11.6504 15.4297-11.8164 15.5859-12.1875L16.4648-14.2773C14.9023-15.7324 12.8711-16.3574 10.8398-15.7617C10.6836-15.7227 10.625-15.8496 10.752-15.957ZM5.27344 2.30469L4.10156 1.14258C3.63281 0.683594 3.74023 0.341797 4.14062-0.0195312L14.9512-10.1953L16.416-8.71094L6.42578 2.27539C6.07422 2.67578 5.74219 2.77344 5.27344 2.30469Z"/>
  </g>
  <text style="stroke:none;fill:black;font-family:-apple-system,&quot;SF Pro Display&quot;,&quot;SF Pro Text&quot;,Helvetica,sans-serif;font-weight:bold;" transform="matrix(1 0 0 1 1289 1953)">Exporting</text>
  <text style="stroke:none;fill:black;font-family:-apple-system,&quot;SF Pro Display&quot;,&quot;SF Pro Text&quot;,Helvetica,sans-serif;" transform="matrix(1 0 0 1 1289 1971)">Symbols should be outlined when exporting to ensure the</text>
  <text style="stroke:none;fill:black;font-family:-apple-system,&quot;SF Pro Display&quot;,&quot;SF Pro Text&quot;,Helvetica,sans-serif;" transform="matrix(1 0 0 1 1289 1989)">design is preserved when submitting to Xcode.</text>
  <text id="template-version" style="stroke:none;fill:black;font-family:-apple-system,&quot;SF Pro Display&quot;,&quot;SF Pro Text&quot;,Helvetica,sans-serif;text-anchor:end;" transform="matrix(1 0 0 1 3036 1933)">Template v.2.0</text>
  <text style="stroke:none;fill:black;font-family:-apple-system,&quot;SF Pro Display&quot;,&quot;SF Pro Text&quot;,Helvetica,sans-serif;text-anchor:end;" transform="matrix(1 0 0 1 3036 1951)">Requires Xcode 12 or greater</text>
  <text style="stroke:none;fill:black;font-family:-apple-system,&quot;SF Pro Display&quot;,&quot;SF Pro Text&quot;,Helvetica,sans-serif;text-anchor:end;" transform="matrix(1 0 0 1 3036 1969)">Generated from photo.on.rectangle.angled</text>
  <text style="stroke:none;fill:black;font-family:-apple-system,&quot;SF Pro Display&quot;,&quot;SF Pro Text&quot;,Helvetica,sans-serif;text-anchor:end;" transform="matrix(1 0 0 1 3036 1987)">Typeset at 100 points</text>
  <text style="stroke:none;fill:black;font-family:-apple-system,&quot;SF Pro Display&quot;,&quot;SF Pro Text&quot;,Helvetica,sans-serif;" transform="matrix(1 0 0 1 263 726)">Small</text>
  <text style="stroke:none;fill:black;font-family:-apple-system,&quot;SF Pro Display&quot;,&quot;SF Pro Text&quot;,Helvetica,sans-serif;" transform="matrix(1 0 0 1 263 1156)">Medium</text>
  <text style="stroke:none;fill:black;font-family:-apple-system,&quot;SF Pro Display&quot;,&quot;SF Pro Text&quot;,Helvetica,sans-serif;" transform="matrix(1 0 0 1 263 1586)">Large</text>
 </g>
 <g id="Guides">
  <g id="H-reference" style="fill:#27AAE1;stroke:none;" transform="matrix(1 0 0 1 339 696)">
   <path d="M0.976562 0L3.66211 0L12.9883-24.4629L45.752-24.4629L55.127 0L57.7637 0L30.6152-70.459L28.125-70.459ZM29.3457-67.1387L29.4434-67.1387L44.873-26.709L13.8672-26.709Z"/>
  </g>
  <line id="Baseline-S" style="fill:none;stroke:#27AAE1;opacity:1;stroke-width:0.5;" x1="263" x2="3036" y1="696" y2="696"/>
  <line id="Capline-S" style="fill:none;stroke:#27AAE1;opacity:1;stroke-width:0.5;" x1="263" x2="3036" y1="625.541" y2="625.541"/>
  <g id="H-reference" style="fill:#27AAE1;stroke:none;" transform="matrix(1 0 0 1 339 1126)">
   <path d="M0.976562 0L3.66211 0L12.9883-24.4629L45.752-24.4629L55.127 0L57.7637 0L30.6152-70.459L28.125-70.459ZM29.3457-67.1387L29.4434-67.1387L44.873-26.709L13.8672-26.709Z"/>
  </g>
  <line id="Baseline-M" style="fill:none;stroke:#27AAE1;opacity:1;stroke-width:0.5;" x1="263" x2="3036" y1="1126" y2="1126"/>
  <line id="Capline-M" style="fill:none;stroke:#27AAE1;opacity:1;stroke-width:0.5;" x1="263" x2="3036" y1="1055.54" y2="1055.54"/>
  <g id="H-reference" style="fill:#27AAE1;stroke:none;" transform="matrix(1 0 0 1 339 1556)">
   <path d="M0.976562 0L3.66211 0L12.9883-24.4629L45.752-24.4629L55.127 0L57.7637 0L30.6152-70.459L28.125-70.459ZM29.3457-67.1387L29.4434-67.1387L44.873-26.709L13.8672-26.709Z"/>
  </g>
  <line id="Baseline-L" style="fill:none;stroke:#27AAE1;opacity:1;stroke-width:0.5;" x1="263" x2="3036" y1="1556" y2="1556"/>
  <line id="Capline-L" style="fill:none;stroke:#27AAE1;opacity:1;stroke-width:0.5;" x1="263" x2="3036" y1="1485.54" y2="1485.54"/>
  <line id="left-margin" style="fill:none;stroke:#00AEEF;stroke-width:0.5;opacity:1.0;" x1="1372.65" x2="1372.65" y1="1030.79" y2="1150.12"/>
  <line id="right-margin" style="fill:none;stroke:#00AEEF;stroke-width:0.5;opacity:1.0;" x1="1527.04" x2="1527.04" y1="1030.79" y2="1150.12"/>
 </g>
 <g id="Symbols">
  <g id="Black-L" transform="matrix(1 0 0 1 2826.81 1556)">
   <path d="M27.9785-7.12891C30.6152 7.8125 40.6738 14.7949 55.7129 12.1582L55.7129 14.1602C55.7129 29.3457 64.3555 37.9883 79.6387 37.9883L173.242 37.9883C188.477 37.9883 197.119 29.3457 197.119 14.1602L197.119-51.6602C197.119-66.8457 188.477-75.4883 173.242-75.4883L159.473-75.4883L155.811-96.5332C153.125-111.426 143.164-118.457 128.174-115.82L35.9863-99.6094C20.9473-96.9238 13.9648-86.9141 16.6016-71.9727ZM47.4609-13.4277L37.0117-72.6562C36.1816-77.1484 38.0371-79.3945 42.1875-80.127L128.955-95.459C133.105-96.1914 135.596-94.6777 136.426-90.1367L138.965-75.4883L79.6387-75.4883C64.3555-75.4883 55.7129-66.8457 55.7129-51.6602L55.7129-8.34961L54.8828-8.20312C50.7324-7.4707 48.2422-8.98438 47.4609-13.4277ZM75.9766-48.7793C75.9766-53.3691 78.125-55.2246 82.373-55.2246L170.508-55.2246C174.707-55.2246 176.904-53.3691 176.904-48.7793L176.904-0.878906L155.371-20.8496C153.027-22.998 150.244-24.0723 147.217-24.0723C144.287-24.0723 141.406-22.998 138.916-20.8496L113.574 1.61133L103.369-7.61719C101.123-9.61914 98.4863-10.6445 95.8984-10.6445C93.3594-10.6445 90.6738-9.66797 88.5742-7.71484L75.9766 3.66211ZM107.91-17.7246C115.625-17.7246 122.266-24.4141 122.266-31.9336C122.266-39.6973 115.625-46.3379 107.91-46.3379C100.439-46.3379 93.75-39.6973 93.75-31.9336C93.75-24.4141 100.439-17.7246 107.91-17.7246Z"/>
  </g>
  <g id="Heavy-L" transform="matrix(1 0 0 1 2532.05 1556)">
   <path d="M27.8809-7.03125C30.3711 7.27539 39.8438 13.8184 54.248 11.2793L54.4922 11.2305L54.4922 13.3789C54.4922 27.9297 62.5977 35.9863 77.2461 35.9863L170.459 35.9863C185.059 35.9863 193.213 27.8809 193.213 13.3789L193.213-51.9531C193.213-66.5039 185.059-74.6094 170.459-74.6094L156.836-74.6094L153.125-95.459C150.586-109.717 141.211-116.357 126.807-113.818L35.0586-97.6074C20.6055-95.0684 14.0625-85.6934 16.6016-71.3379ZM44.7754-12.3047L34.1797-72.168C33.3008-77.1973 35.4004-79.9316 40.1855-80.7617L127.783-96.2402C132.471-97.0703 135.4-95.2148 136.328-90.1367L139.062-74.6094L77.2461-74.6094C62.5977-74.6094 54.4922-66.5039 54.4922-51.9531L54.4922-6.49414L53.3203-6.29883C48.584-5.46875 45.6543-7.32422 44.7754-12.3047ZM72.0215-49.6582C72.0215-54.7852 74.5117-57.0801 79.3945-57.0801L168.311-57.0801C173.145-57.0801 175.684-54.7852 175.684-49.6582L175.684-0.927734L153.662-21.4355C151.221-23.6816 148.291-24.8047 145.166-24.8047C142.139-24.8047 139.209-23.7305 136.621-21.4844L110.742 1.46484L100.391-7.95898C98.0469-10.0098 95.3613-11.084 92.6758-11.084C90.0879-11.084 87.4512-10.1074 85.2051-8.00781L72.0215 3.80859ZM104.102-18.75C111.865-18.75 118.457-25.3906 118.457-33.0078C118.457-40.8203 111.865-47.4609 104.102-47.4609C96.4355-47.4609 89.7949-40.8203 89.7949-33.0078C89.7949-25.3906 96.4355-18.75 104.102-18.75Z"/>
  </g>
  <g id="Bold-L" transform="matrix(1 0 0 1 2237.54 1556)">
   <path d="M27.7832-6.93359C30.127 6.68945 38.8672 12.7441 52.6367 10.3027L53.125 10.2539L53.125 12.4512C53.125 26.2695 60.6445 33.7402 74.5605 33.7402L167.334 33.7402C181.25 33.7402 188.818 26.2695 188.818 12.4512L188.818-52.2949C188.818-66.1133 181.25-73.6328 167.334-73.6328L153.809-73.6328L150.146-94.2871C147.754-107.812 139.062-113.965 125.342-111.572L33.9844-95.4102C20.2637-93.0176 14.209-84.3262 16.5527-70.7031ZM41.748-11.084L31.0547-71.582C30.0293-77.2949 32.4707-80.5176 37.9395-81.4453L126.416-97.0703C131.787-98.0469 135.254-95.8496 136.23-90.0879L139.16-73.6328L74.5605-73.6328C60.6445-73.6328 53.125-66.1621 53.125-52.2949L53.125-4.44336L51.5625-4.15039C46.1426-3.17383 42.7734-5.41992 41.748-11.084ZM67.5781-50.6348C67.5781-56.4453 70.5078-59.1797 76.0254-59.1797L165.918-59.1797C171.387-59.1797 174.365-56.4453 174.365-50.6348L174.365-0.976562L151.758-22.1191C149.17-24.4629 146.143-25.6836 142.92-25.6836C139.697-25.6836 136.768-24.5117 134.082-22.168L107.568 1.26953L97.0215-8.30078C94.5801-10.4492 91.8945-11.5723 89.0625-11.5723C86.4258-11.5723 83.8379-10.5469 81.4453-8.34961L67.5781 4.00391ZM99.8047-19.8242C107.617-19.8242 114.16-26.4648 114.16-34.2285C114.16-42.0898 107.617-48.7305 99.8047-48.7305C91.9922-48.7305 85.4004-42.0898 85.4004-34.2285C85.4004-26.4648 91.9922-19.8242 99.8047-19.8242Z"/>
  </g>
  <g id="Semibold-L" transform="matrix(1 0 0 1 1942.34 1556)">
   <path d="M27.6855-6.88477C29.9805 6.25 38.2324 12.0117 51.5137 9.66797L52.1484 9.52148L52.1484 11.8164C52.1484 25.1465 59.2773 32.2266 72.7539 32.2266L165.234 32.2266C178.662 32.2266 185.791 25.1465 185.791 11.8164L185.791-52.5391C185.791-65.8691 178.662-72.9492 165.234-72.9492L151.758-72.9492L148.096-93.457C145.752-106.494 137.598-112.354 124.316-110.01L33.252-93.8965C19.9707-91.6016 14.2578-83.3984 16.5527-70.2148ZM39.6484-10.2051L28.9062-71.1914C27.832-77.2949 30.4688-80.9082 36.377-81.9336L125.488-97.7051C131.299-98.6816 135.107-96.2402 136.182-90.0879L139.209-72.9492L72.7539-72.9492C59.2773-72.9492 52.1484-65.8691 52.1484-52.5391L52.1484-2.97852L50.3418-2.68555C44.4824-1.61133 40.7715-4.10156 39.6484-10.2051ZM64.502-51.3184C64.502-57.5684 67.7246-60.5957 73.7305-60.5957L164.258-60.5957C170.166-60.5957 173.438-57.5684 173.438-51.3184L173.438-1.02539L150.391-22.5586C147.803-25 144.678-26.2695 141.357-26.2695C138.037-26.2695 135.107-25.0488 132.324-22.6562L105.42 1.17188L94.6777-8.54492C92.1875-10.791 89.502-11.9629 86.6211-11.9629C83.8867-11.9629 81.3477-10.8398 78.8574-8.59375L64.502 4.10156ZM96.8262-20.6055C104.688-20.6055 111.23-27.1973 111.23-35.0586C111.23-42.9688 104.688-49.6094 96.8262-49.6094C88.9648-49.6094 82.373-42.9688 82.373-35.0586C82.373-27.1973 88.9648-20.6055 96.8262-20.6055Z"/>
  </g>
  <g id="Medium-L" transform="matrix(1 0 0 1 1646.78 1556)">
   <path d="M27.6367-6.78711C29.8828 5.95703 37.7441 11.4746 50.6836 9.13086L51.4648 8.98438L51.4648 11.3281C51.4648 24.3164 58.252 31.0547 71.3379 31.0547L163.623 31.0547C176.66 31.0547 183.496 24.2676 183.496 11.3281L183.496-52.7344C183.496-65.625 176.66-72.4121 163.623-72.4121L150.195-72.4121L146.533-92.8223C144.287-105.518 136.475-111.084 123.535-108.838L32.7148-92.7734C19.7754-90.4785 14.3066-82.7148 16.5527-69.873ZM38.0859-9.57031L27.2949-70.8984C26.123-77.3438 28.9551-81.2012 35.2051-82.3242L124.805-98.1445C130.957-99.2188 135.01-96.582 136.182-90.0879L139.258-72.4121L71.3379-72.4121C58.252-72.4121 51.4648-65.7227 51.4648-52.7344L51.4648-1.9043L49.4629-1.5625C43.2129-0.390625 39.2578-3.125 38.0859-9.57031ZM62.207-51.8066C62.207-58.3984 65.625-61.7188 71.9727-61.7188L162.988-61.7188C169.238-61.7188 172.754-58.3984 172.754-51.8066L172.754-1.07422L149.414-22.9004C146.729-25.3906 143.555-26.709 140.186-26.709C136.816-26.709 133.838-25.4883 131.006-22.998L103.76 1.07422L92.9199-8.69141C90.3809-10.9863 87.6465-12.207 84.7168-12.207C81.9824-12.207 79.4434-11.084 76.9043-8.78906L62.207 4.19922ZM94.5801-21.1914C102.49-21.1914 109.033-27.7344 109.033-35.6934C109.033-43.6035 102.49-50.2441 94.5801-50.2441C86.6211-50.2441 80.0781-43.6035 80.0781-35.6934C80.0781-27.7344 86.6211-21.1914 94.5801-21.1914Z"/>
  </g>
  <g id="Regular-L" transform="matrix(1 0 0 1 1351.55 1556)">
   <path d="M27.5391-6.73828C29.6875 5.56641 37.1094 10.7422 49.6094 8.49609L50.4883 8.30078L50.4883 10.6934C50.4883 23.1934 56.8848 29.541 69.5312 29.541L161.475 29.541C174.072 29.541 180.518 23.1445 180.518 10.6934L180.518-52.9297C180.518-65.3809 174.072-71.7773 161.475-71.7773L148.145-71.7773L144.531-91.9922C142.334-104.248 134.961-109.473 122.559-107.275L31.9824-91.2598C19.5312-89.0625 14.4043-81.7871 16.5527-69.4336ZM36.0352-8.69141L25.1465-70.5566C23.9258-77.3926 26.9531-81.6406 33.6426-82.8125L123.877-98.7305C130.469-99.8535 134.863-96.9727 136.084-90.0391L139.307-71.7773L69.5312-71.7773C56.8848-71.7773 50.4883-65.4297 50.4883-52.9297L50.4883-0.488281L48.2422-0.0976562C41.5527 1.12305 37.2559-1.85547 36.0352-8.69141ZM59.1797-52.4902C59.1797-59.5215 62.8906-63.1348 69.6777-63.1348L161.328-63.1348C168.018-63.1348 171.826-59.5215 171.826-52.4902L171.826-1.12305L148.096-23.3887C145.361-25.9277 142.09-27.2461 138.672-27.2461C135.156-27.2461 132.178-26.0254 129.248-23.4375L101.562 0.927734L90.625-8.93555C88.0371-11.3281 85.3027-12.5488 82.2754-12.5488C79.4434-12.5488 76.9531-11.377 74.3652-9.0332L59.1797 4.3457ZM91.6504-21.9238C99.6094-21.9238 106.104-28.4668 106.104-36.5234C106.104-44.4824 99.6094-51.123 91.6504-51.123C83.5938-51.123 77.0996-44.4824 77.0996-36.5234C77.0996-28.4668 83.5938-21.9238 91.6504-21.9238Z"/>
  </g>
  <g id="Light-L" transform="matrix(1 0 0 1 1056.67 1556)">
   <path d="M27.5391-6.20117C29.541 5.37109 36.6211 10.4004 48.3398 8.25195L48.877 8.1543L48.877 9.96094C48.877 21.7285 54.9805 27.7832 66.8457 27.7832L158.887 27.7832C170.752 27.7832 176.855 21.6309 176.855 9.96094L176.855-53.6133C176.855-65.332 170.752-71.4844 158.887-71.4844L146.045-71.4844L142.578-91.0156C140.479-102.539 133.447-107.568 121.777-105.518L31.1035-89.502C19.3848-87.4512 14.4531-80.4199 16.5039-68.7988ZM33.9844-7.71484L23.0957-69.6289C21.7773-77.0996 25.0488-81.7383 32.4219-83.0566L122.754-98.9746C129.932-100.244 134.766-97.0703 136.133-89.5508L139.307-71.4844L66.8457-71.4844C54.9805-71.4844 48.877-65.4297 48.877-53.6133L48.877 1.41602L47.3633 1.66016C39.9902 3.02734 35.3516-0.244141 33.9844-7.71484ZM55.5176-53.2715C55.5176-60.8887 59.5215-64.8438 66.9922-64.8438L158.74-64.8438C166.064-64.8438 170.264-60.8887 170.264-53.2715L170.264-0.195312L145.166-23.4375C142.383-26.0254 139.209-27.4414 135.645-27.4414C132.08-27.4414 129.15-26.123 126.221-23.5352L98.877 0.341797L88.2812-9.32617C85.6934-11.7188 83.1055-12.9395 79.9805-12.9395C77.0996-12.9395 74.7559-11.7188 72.168-9.42383L55.5176 5.51758ZM89.2578-22.1191C97.1191-22.1191 103.516-28.6133 103.516-36.5723C103.516-44.3848 97.1191-50.9766 89.2578-50.9766C81.2988-50.9766 74.9023-44.3848 74.9023-36.5723C74.9023-28.6133 81.2988-22.1191 89.2578-22.1191Z"/>
  </g>
  <g id="Thin-L" transform="matrix(1 0 0 1 762.355 1556)">
   <path d="M27.4902-5.51758C29.3945 5.17578 35.9863 9.96094 46.7285 7.91016L46.7285 8.93555C46.7285 19.7754 52.4414 25.4883 63.3301 25.4883L155.469 25.4883C166.309 25.4883 172.07 19.6289 172.07 8.93555L172.07-54.4922C172.07-65.2344 166.309-71.0938 155.469-71.0938L143.262-71.0938L139.941-89.7461C138.037-100.293 131.445-105.078 120.703-103.174L29.9805-87.207C19.2383-85.3027 14.5996-78.6621 16.4551-67.9688ZM31.3477-6.39648L20.4102-68.457C18.8965-76.7578 22.5098-81.8848 30.8105-83.3496L121.24-99.2676C129.248-100.684 134.619-97.2168 136.133-88.8672L139.209-71.0938L63.3301-71.0938C52.4414-71.0938 46.7285-65.3809 46.7285-54.4922L46.7285 3.90625L46.1914 4.00391C37.9395 5.56641 32.8125 1.9043 31.3477-6.39648ZM50.6348-54.2969C50.6348-62.7441 55.0293-67.1387 63.4766-67.1387L155.273-67.1387C163.428-67.1387 168.115-62.7441 168.115-54.2969L168.115 0.976562L141.309-23.4863C138.477-26.1719 135.352-27.6367 131.641-27.6367C127.979-27.6367 125.195-26.2207 122.168-23.584L95.3125-0.488281L85.1562-9.81445C82.5684-12.207 80.2246-13.4766 77.002-13.4766C73.9746-13.4766 71.8262-12.207 69.2871-9.91211L50.6348 7.17773ZM86.1328-22.4121C93.7988-22.4121 100.098-28.8086 100.098-36.6211C100.098-44.2871 93.7988-50.7812 86.1328-50.7812C78.3203-50.7812 72.0215-44.2871 72.0215-36.6211C72.0215-28.8086 78.3203-22.4121 86.1328-22.4121Z"/>
  </g>
  <g id="Ultralight-L" transform="matrix(1 0 0 1 466.889 1556)">
   <path d="M27.4902-5.17578C29.248 4.93164 35.5469 9.66797 45.6055 7.8125L45.6055 8.39844C45.6055 18.75 51.123 24.3164 61.5234 24.3164L153.711 24.3164C164.062 24.3164 169.58 18.6035 169.58 8.39844L169.58-54.9316C169.58-65.1855 164.062-70.8984 153.711-70.8984L141.846-70.8984L138.623-89.0625C136.816-99.1211 130.42-103.809 120.215-102.002L29.3457-85.9863C19.1406-84.1797 14.6484-77.7832 16.4551-67.5781ZM29.9805-5.76172L18.9941-67.8711C17.4316-76.6113 21.2402-81.9336 29.9805-83.4961L120.459-99.4629C128.857-100.928 134.57-97.3145 136.133-88.4766L139.16-70.8984L61.5234-70.8984C51.123-70.8984 45.6055-65.332 45.6055-54.9316L45.6055 5.17578C36.8652 6.83594 31.543 2.97852 29.9805-5.76172ZM48.1445-54.834C48.1445-63.7207 52.7344-68.3105 61.6699-68.3105L153.516-68.3105C162.109-68.3105 167.041-63.7207 167.041-54.834L167.041 1.51367L139.355-23.5352C136.426-26.2207 133.398-27.7832 129.59-27.7832C125.879-27.7832 123.145-26.2695 120.068-23.6328L93.5059-0.878906L83.5449-10.0586C81.0059-12.5 78.7109-13.7695 75.4883-13.7695C72.4121-13.7695 70.3613-12.4512 67.7734-10.1562L48.1445 8.05664ZM84.5215-22.5586C92.1387-22.5586 98.3887-28.8574 98.3887-36.6699C98.3887-44.2383 92.1387-50.6836 84.5215-50.6836C76.7578-50.6836 70.5078-44.2383 70.5078-36.6699C70.5078-28.8574 76.7578-22.5586 84.5215-22.5586Z"/>
  </g>
  <g id="Black-M" transform="matrix(1 0 0 1 2849.12 1126)">
   <path d="M21.7773-13.3301C23.877-1.41602 32.1777 4.49219 43.9941 2.58789L43.9941 3.75977C43.9941 16.0156 51.2695 23.291 63.5254 23.291L136.621 23.291C148.828 23.291 156.104 16.0156 156.104 3.75977L156.104-47.9004C156.104-60.1562 148.828-67.4316 136.621-67.4316L126.123-67.4316L123.291-83.6426C121.143-95.6543 112.744-101.611 100.684-99.4629L28.7109-86.8164C16.6504-84.7168 10.7422-76.2207 12.8906-64.1602ZM39.3066-19.3359L31.3477-64.4531C30.8105-67.5293 31.9824-68.7988 34.7168-69.2871L100.977-81.0059C103.711-81.4941 105.273-80.6641 105.811-77.5391L107.568-67.4316L63.5254-67.4316C51.2695-67.4316 43.9941-60.1562 43.9941-47.9004L43.9941-15.918C41.4062-15.4785 39.8926-16.3086 39.3066-19.3359ZM62.2559-44.9707C62.2559-48.0469 63.623-49.1699 66.4551-49.1699L133.643-49.1699C136.475-49.1699 137.842-48.0469 137.842-44.9707L137.842-8.00781L121.191-23.291C119.482-24.8535 117.48-25.6348 115.186-25.6348C113.086-25.6348 110.889-24.8535 109.082-23.291L90.4297-6.78711L82.9102-13.623C81.2988-15.0391 79.3945-15.7715 77.4414-15.7715C75.5371-15.7715 73.4863-15.0879 71.9727-13.6719L62.2559-4.63867ZM87.5488-20.459C93.4082-20.459 98.4863-25.6348 98.4863-31.2012C98.4863-37.1094 93.4082-42.2363 87.5488-42.2363C81.9824-42.2363 76.8066-37.1094 76.8066-31.2012C76.8066-25.6348 81.9824-20.459 87.5488-20.459Z"/>
  </g>
  <g id="Heavy-M" transform="matrix(1 0 0 1 2554.07 1126)">
   <path d="M21.6797-13.3301C23.7305-1.80664 31.543 3.66211 43.0664 1.66016L43.0664 3.07617C43.0664 14.7949 49.8047 21.5332 61.5723 21.5332L134.229 21.5332C145.996 21.5332 152.783 14.7949 152.783 3.07617L152.783-48.0469C152.783-59.8145 145.996-66.5527 134.229-66.5527L123.73-66.5527L120.898-82.7148C118.848-94.2383 111.035-99.7559 99.4629-97.7051L27.9297-85.1074C16.3086-83.1055 10.8398-75.2441 12.8906-63.6719ZM36.9141-18.3594L28.8086-64.1113C28.1738-67.627 29.5898-69.3359 32.8613-69.9219L99.9512-81.7871C103.174-82.3242 105.078-81.2012 105.713-77.6855L107.666-66.5527L61.5723-66.5527C49.8047-66.5527 43.0664-59.8145 43.0664-48.0469L43.0664-14.3555L42.6758-14.3066C39.4531-13.7207 37.5488-14.8926 36.9141-18.3594ZM58.8867-45.752C58.8867-49.2676 60.5469-50.7324 63.8672-50.7324L131.982-50.7324C135.254-50.7324 136.963-49.2676 136.963-45.752L136.963-8.34961L120.068-23.9258C118.262-25.5859 116.113-26.416 113.77-26.416C111.523-26.416 109.326-25.5859 107.422-23.9258L88.0371-6.78711L80.2246-13.8672C78.5156-15.3809 76.5137-16.1621 74.5117-16.1621C72.5586-16.1621 70.5078-15.4297 68.8965-13.916L58.8867-4.78516ZM83.9844-21.4844C89.8926-21.4844 95.0195-26.6602 95.0195-32.373C95.0195-38.3789 89.8926-43.5059 83.9844-43.5059C78.2227-43.5059 73.0469-38.3789 73.0469-32.373C73.0469-26.6602 78.2227-21.4844 83.9844-21.4844Z"/>
  </g>
  <g id="Bold-M" transform="matrix(1 0 0 1 2259.24 1126)">
   <path d="M21.582-13.3789C23.5352-2.39258 30.7129 2.63672 41.7969 0.634766L42.041 0.634766L42.041 2.29492C42.041 13.4277 48.1934 19.6289 59.4727 19.6289L131.592 19.6289C142.822 19.6289 149.023 13.4277 149.023 2.29492L149.023-48.2422C149.023-59.4238 142.822-65.5762 131.592-65.5762L121.045-65.5762L118.213-81.7383C116.26-92.6758 109.131-97.7051 98.0469-95.752L27.002-83.252C15.918-81.2988 10.9375-74.1211 12.8418-63.1348ZM34.1797-17.2852L26.0254-63.7695C25.293-67.7734 26.9531-69.9707 30.7617-70.6055L98.8281-82.666C102.588-83.3008 104.932-81.8359 105.664-77.7832L107.812-65.5762L59.4727-65.5762C48.1934-65.5762 42.041-59.4238 42.041-48.2422L42.041-12.6465L41.0156-12.4512C37.2559-11.8164 34.9121-13.2812 34.1797-17.2852ZM55.127-46.582C55.127-50.6348 57.1289-52.4902 60.9863-52.4902L130.078-52.4902C133.887-52.4902 135.986-50.6348 135.986-46.582L135.986-8.69141L118.799-24.6582C116.895-26.416 114.6-27.2949 112.158-27.2949C109.766-27.2949 107.52-26.416 105.518-24.707L85.3516-6.83594L77.2461-14.1113C75.4395-15.7715 73.3398-16.6016 71.2402-16.6016C69.2383-16.6016 67.1875-15.8203 65.4297-14.209L55.127-4.93164ZM79.9805-22.6562C85.9863-22.6562 91.1133-27.7832 91.1133-33.7402C91.1133-39.7949 85.9863-44.9219 79.9805-44.9219C74.0234-44.9219 68.8965-39.7949 68.8965-33.7402C68.8965-27.7832 74.0234-22.6562 79.9805-22.6562Z"/>
  </g>
  <g id="Semibold-M" transform="matrix(1 0 0 1 1963.82 1126)">
   <path d="M21.5332-13.3789C23.3398-2.7832 30.0781 1.85547 40.8203-0.0488281L41.3086-0.0976562L41.3086 1.75781C41.3086 12.5 47.1191 18.2617 57.959 18.2617L129.785 18.2617C140.625 18.2617 146.436 12.5 146.436 1.75781L146.436-48.3887C146.436-59.1309 140.625-64.8926 129.785-64.8926L119.189-64.8926L116.357-81.0059C114.453-91.5527 107.764-96.2891 97.0703-94.4336L26.3672-81.9336C15.6738-80.0293 10.9863-73.3887 12.8418-62.7441ZM32.3242-16.5039L24.0723-63.5254C23.291-67.8711 25.1465-70.3613 29.2969-71.0938L98.0469-83.252C102.148-83.9844 104.785-82.2754 105.566-77.8809L107.861-64.8926L57.959-64.8926C47.1191-64.8926 41.3086-59.1309 41.3086-48.3887L41.3086-11.4746L39.8926-11.1816C35.7422-10.4492 33.1055-12.207 32.3242-16.5039ZM52.4902-47.168C52.4902-51.6113 54.7852-53.7109 58.9844-53.7109L128.76-53.7109C132.959-53.7109 135.303-51.6113 135.303-47.168L135.303-8.93555L117.92-25.1465C115.967-27.002 113.574-27.9297 111.084-27.9297C108.594-27.9297 106.299-27.002 104.199-25.1953L83.4961-6.83594L75.1953-14.3066C73.291-16.0156 71.1914-16.8945 68.9941-16.8945C66.9434-16.8945 64.8926-16.0645 63.0371-14.4043L52.4902-5.0293ZM77.1973-23.4375C83.3008-23.4375 88.4277-28.5645 88.4277-34.6191C88.4277-40.7715 83.3008-45.8984 77.1973-45.8984C71.1426-45.8984 66.0156-40.7715 66.0156-34.6191C66.0156-28.5645 71.1426-23.4375 77.1973-23.4375Z"/>
  </g>
  <g id="Medium-M" transform="matrix(1 0 0 1 1668.09 1126)">
   <path d="M21.4355-13.4277C23.2422-3.125 29.6387 1.31836 40.0879-0.537109L40.7715-0.683594L40.7715 1.36719C40.7715 11.8164 46.2891 17.2852 56.8359 17.2852L128.418 17.2852C138.965 17.2852 144.482 11.8164 144.482 1.36719L144.482-48.4863C144.482-58.9355 138.965-64.4043 128.418-64.4043L117.822-64.4043L114.941-80.4688C113.135-90.7227 106.787-95.2148 96.3867-93.4082L25.9277-80.957C15.4785-79.1016 11.0352-72.8027 12.8418-62.4512ZM30.9082-15.9668L22.5586-63.3301C21.7285-67.9688 23.7793-70.7031 28.2227-71.4844L97.4121-83.6914C101.807-84.4727 104.688-82.5684 105.518-77.9297L107.91-64.4043L56.8359-64.4043C46.2891-64.4043 40.7715-58.9355 40.7715-48.4863L40.7715-10.5469L39.0137-10.2539C34.5703-9.42383 31.7383-11.377 30.9082-15.9668ZM50.5371-47.6074C50.5371-52.2949 52.9785-54.6387 57.4707-54.6387L127.783-54.6387C132.275-54.6387 134.766-52.2949 134.766-47.6074L134.766-9.08203L117.285-25.5371C115.234-27.3926 112.793-28.3691 110.254-28.3691C107.666-28.3691 105.371-27.4414 103.223-25.5859L82.0801-6.83594L73.6328-14.4531C71.6797-16.2109 69.5312-17.1387 67.2852-17.1387C65.1855-17.1387 63.1836-16.2598 61.2305-14.5508L50.5371-5.12695ZM75.0977-24.0234C81.25-24.0234 86.377-29.1504 86.377-35.3027C86.377-41.5039 81.25-46.6309 75.0977-46.6309C68.9453-46.6309 63.8184-41.5039 63.8184-35.3027C63.8184-29.1504 68.9453-24.0234 75.0977-24.0234Z"/>
  </g>
  <g id="Regular-M" transform="matrix(1 0 0 1 1372.65 1126)">
   <path d="M21.3867-13.4277C23.0957-3.51562 29.0039 0.585938 39.1113-1.2207L40.0879-1.36719L40.0879 0.830078C40.0879 10.8887 45.166 15.9668 55.4199 15.9668L126.611 15.9668C136.816 15.9668 141.943 10.8887 141.943 0.830078L141.943-48.584C141.943-58.6426 136.816-63.7207 126.611-63.7207L116.016-63.7207L113.135-79.7852C111.377-89.6484 105.469-93.8477 95.4102-92.041L25.293-79.6387C15.1855-77.8809 11.1328-72.0703 12.8418-62.1094ZM29.0527-15.2344L20.6543-63.0859C19.7754-68.0176 21.9727-71.0938 26.8066-71.9727L96.6797-84.2773C101.416-85.1074 104.59-83.0078 105.469-78.0273L108.008-63.7207L55.4199-63.7207C45.166-63.7207 40.0879-58.6914 40.0879-48.584L40.0879-9.375L37.8906-8.98438C33.1055-8.10547 29.9805-10.2539 29.0527-15.2344ZM47.9492-48.1445C47.9492-53.2227 50.6348-55.8594 55.5176-55.8594L126.514-55.8594C131.348-55.8594 134.082-53.2227 134.082-48.1445L134.082-9.32617L116.406-26.0254C114.307-27.9785 111.768-28.9551 109.18-28.9551C106.494-28.9551 104.15-28.0273 101.904-26.0742L80.2734-6.83594L71.582-14.6484C69.5312-16.4551 67.334-17.4316 65.0391-17.4316C62.9395-17.4316 60.8887-16.5039 58.8867-14.6973L47.9492-5.22461ZM72.3633-24.8047C78.6133-24.8047 83.6914-29.9316 83.6914-36.2305C83.6914-42.4316 78.6133-47.6074 72.3633-47.6074C66.1133-47.6074 60.9863-42.4316 60.9863-36.2305C60.9863-29.9316 66.1133-24.8047 72.3633-24.8047Z"/>
  </g>
  <g id="Light-M" transform="matrix(1 0 0 1 1077.57 1126)">
   <path d="M21.3379-12.9883C22.998-3.66211 28.6133 0.292969 38.0371-1.41602L38.623-1.5625L38.623 0.0976562C38.623 9.57031 43.457 14.4043 53.0273 14.4043L124.316 14.4043C133.838 14.4043 138.672 9.52148 138.672 0.0976562L138.672-49.1699C138.672-58.5938 133.838-63.4277 124.316-63.4277L114.111-63.4277L111.377-78.9062C109.717-88.1348 104.102-92.1387 94.7266-90.4785L24.5117-78.0762C15.0879-76.416 11.1816-70.8496 12.793-61.5234ZM27.2461-14.3555L18.7988-62.3047C17.8223-67.8223 20.2637-71.1914 25.6836-72.168L95.6543-84.5215C100.928-85.4492 104.492-83.1055 105.469-77.5391L107.959-63.4277L53.0273-63.4277C43.457-63.4277 38.623-58.6426 38.623-49.1699L38.623-7.66602L37.1094-7.42188C31.6895-6.44531 28.2715-8.83789 27.2461-14.3555ZM44.6289-48.877C44.6289-54.4922 47.6074-57.4219 53.125-57.4219L124.17-57.4219C129.541-57.4219 132.666-54.4922 132.666-48.877L132.666-8.49609L113.818-26.0742C111.67-28.0762 109.18-29.1016 106.445-29.1016C103.711-29.1016 101.465-28.125 99.1699-26.123L77.832-7.42188L69.4824-14.9902C67.4316-16.8457 65.3809-17.7734 63.0371-17.7734C60.791-17.7734 58.9355-16.8457 56.8848-15.0391L44.6289-4.19922ZM70.2637-25C76.3672-25 81.3965-30.0293 81.3965-36.2793C81.3965-42.3828 76.3672-47.4609 70.2637-47.4609C64.0625-47.4609 59.0332-42.3828 59.0332-36.2793C59.0332-30.0293 64.0625-25 70.2637-25Z"/>
  </g>
  <g id="Thin-M" transform="matrix(1 0 0 1 783.009 1126)">
   <path d="M21.3379-12.3535C22.8027-3.85742 28.0273-0.0976562 36.5723-1.70898L36.6699-1.75781L36.6699-0.78125C36.6699 7.8125 41.2109 12.3047 49.8535 12.3047L121.24 12.3047C129.883 12.3047 134.375 7.71484 134.375-0.78125L134.375-49.9512C134.375-58.4961 129.883-63.0859 121.24-63.0859L111.621-63.0859L109.033-77.7344C107.52-86.1328 102.295-89.8926 93.7988-88.4277L23.4863-76.0254C14.9414-74.5117 11.2793-69.2871 12.793-60.791ZM24.8535-13.1836L16.4062-61.2305C15.2832-67.4805 18.0176-71.3379 24.2188-72.4609L94.2871-84.8145C100.293-85.8398 104.395-83.252 105.518-76.9531L107.91-63.0859L49.8535-63.0859C41.2109-63.0859 36.6699-58.5938 36.6699-49.9512L36.6699-5.41992L36.084-5.32227C29.834-4.15039 25.9766-6.93359 24.8535-13.1836ZM40.2832-49.8047C40.2832-56.1523 43.6035-59.4727 49.9512-59.4727L121.094-59.4727C127.246-59.4727 130.762-56.1523 130.762-49.8047L130.762-7.42188L110.352-26.123C108.154-28.1738 105.762-29.2969 102.881-29.2969C100.049-29.2969 97.9004-28.2227 95.5566-26.1719L74.6582-8.10547L66.6992-15.4297C64.6973-17.2852 62.793-18.2617 60.3516-18.2617C58.0078-18.2617 56.2988-17.2852 54.2969-15.4785L40.2832-2.73438ZM67.4316-25.2441C73.4375-25.2441 78.3203-30.2246 78.3203-36.2793C78.3203-42.2852 73.4375-47.3145 67.4316-47.3145C61.3281-47.3145 56.4453-42.2852 56.4453-36.2793C56.4453-30.2246 61.3281-25.2441 67.4316-25.2441Z"/>
  </g>
  <g id="Ultralight-M" transform="matrix(1 0 0 1 487.397 1126)">
   <path d="M21.2891-12.0605C22.7051-4.05273 27.6855-0.341797 35.6934-1.85547L35.6934-1.26953C35.6934 6.93359 40.0391 11.2793 48.1934 11.2793L119.629 11.2793C127.832 11.2793 132.178 6.78711 132.178-1.26953L132.178-50.3906C132.178-58.4473 127.832-62.9395 119.629-62.9395L110.352-62.9395L107.812-77.1484C106.396-85.1074 101.367-88.7695 93.3105-87.3535L22.9492-74.9512C14.8926-73.4863 11.3281-68.457 12.7441-60.4004ZM23.6328-12.5977L15.1367-60.6934C13.9648-67.334 16.8457-71.4355 23.4863-72.6074L93.6035-84.9609C100-86.084 104.297-83.3008 105.518-76.6113L107.861-62.9395L48.1934-62.9395C40.0391-62.9395 35.6934-58.5449 35.6934-50.3906L35.6934-4.29688L35.5469-4.24805C28.9062-3.02734 24.8047-5.95703 23.6328-12.5977ZM38.0859-50.2441C38.0859-57.0312 41.5527-60.5469 48.3398-60.5469L119.531-60.5469C126.025-60.5469 129.785-57.0312 129.785-50.2441L129.785-6.88477L108.594-26.1719C106.348-28.2227 104.004-29.3945 101.074-29.3945C98.1934-29.3945 96.0449-28.2715 93.7012-26.2207L72.998-8.49609L65.2344-15.625C63.2324-17.5293 61.4746-18.5059 58.9355-18.5059C56.5918-18.5059 54.9805-17.5293 52.9785-15.7227L38.0859-1.95312ZM66.0156-25.3418C71.9238-25.3418 76.7578-30.2734 76.7578-36.3281C76.7578-42.2363 71.9238-47.2168 66.0156-47.2168C59.9609-47.2168 55.0781-42.2363 55.0781-36.3281C55.0781-30.2734 59.9609-25.3418 66.0156-25.3418Z"/>
  </g>
  <g id="Black-S" transform="matrix(1 0 0 1 2867.46 696)">
   <path d="M17.0898-18.0664C18.7012-8.74023 25.1953-4.15039 34.4238-5.66406L34.4238-4.73633C34.4238 4.83398 40.0879 10.498 49.6582 10.498L106.885 10.498C116.455 10.498 122.119 4.83398 122.119-4.73633L122.119-45.166C122.119-54.7363 116.455-60.4004 106.885-60.4004L98.6328-60.4004L96.4355-73.0957C94.7754-82.4707 88.2324-87.1094 78.8086-85.4492L22.4609-75.5371C13.0371-73.877 8.44727-67.2852 10.1074-57.8613ZM30.6641-22.7051L24.4141-58.1055C23.9746-60.5469 24.9023-61.5723 27.0996-61.9629L79.0527-71.1426C81.25-71.5332 82.4707-70.8496 82.9102-68.4082L84.3262-60.4004L49.6582-60.4004C40.0879-60.4004 34.4238-54.7363 34.4238-45.166L34.4238-20.0195C32.3242-19.6289 31.1035-20.3125 30.6641-22.7051ZM48.584-42.9199C48.584-45.3613 49.6582-46.2402 51.9043-46.2402L104.639-46.2402C106.885-46.2402 107.959-45.3613 107.959-42.9199L107.959-13.9648L94.9219-25.9277C93.5547-27.1484 91.9922-27.7832 90.1855-27.7832C88.5254-27.7832 86.8164-27.1484 85.4004-25.9277L70.7031-12.9395L64.7949-18.3105C63.5254-19.4336 62.0117-20.0195 60.498-20.0195C58.9844-20.0195 57.373-19.4824 56.2012-18.3594L48.584-11.2793ZM68.3594-23.7305C72.9492-23.7305 76.9531-27.7832 76.9531-32.1777C76.9531-36.8164 72.9492-40.8203 68.3594-40.8203C63.9648-40.8203 59.9121-36.8164 59.9121-32.1777C59.9121-27.7832 63.9648-23.7305 68.3594-23.7305Z"/>
  </g>
  <g id="Heavy-S" transform="matrix(1 0 0 1 2571.85 696)">
   <path d="M16.9922-18.1641C18.6035-9.0332 24.7559-4.78516 33.8867-6.34766L33.8867-5.17578C33.8867 4.05273 39.1602 9.32617 48.4375 9.32617L105.322 9.32617C114.6 9.32617 119.922 4.05273 119.922-5.17578L119.922-45.2148C119.922-54.4922 114.6-59.7656 105.322-59.7656L97.0215-59.7656L94.7754-72.5098C93.1641-81.543 87.0605-85.8887 77.9297-84.2773L21.9238-74.4141C12.793-72.8027 8.49609-66.6504 10.1074-57.5684ZM29.0039-22.0703L22.6562-57.959C22.168-60.6445 23.291-61.9629 25.7812-62.4023L78.3691-71.7285C80.8594-72.168 82.373-71.2891 82.8613-68.5547L84.375-59.7656L48.4375-59.7656C39.1602-59.7656 33.8867-54.4922 33.8867-45.2148L33.8867-18.9941L33.4473-18.9453C30.957-18.5059 29.4922-19.3848 29.0039-22.0703ZM46.3379-43.4082C46.3379-46.1426 47.6562-47.2656 50.1953-47.2656L103.613-47.2656C106.152-47.2656 107.422-46.1426 107.422-43.4082L107.422-14.2578L94.3359-26.416C92.9199-27.6855 91.2598-28.3691 89.4043-28.3691C87.6465-28.3691 85.8887-27.7344 84.4238-26.416L69.1406-12.8906L62.9883-18.457C61.6211-19.6777 60.0586-20.2637 58.4961-20.2637C56.9336-20.2637 55.3223-19.6777 54.0527-18.5059L46.3379-11.5234ZM65.8691-24.5117C70.5078-24.5117 74.5117-28.5645 74.5117-33.0566C74.5117-37.793 70.5078-41.7969 65.8691-41.7969C61.3281-41.7969 57.2754-37.793 57.2754-33.0566C57.2754-28.5645 61.3281-24.5117 65.8691-24.5117Z"/>
  </g>
  <g id="Bold-S" transform="matrix(1 0 0 1 2276.38 696)">
   <path d="M16.9434-18.2129C18.457-9.47266 24.1211-5.51758 32.959-7.08008L33.252-7.12891L33.252-5.71289C33.252 3.17383 38.1348 8.05664 47.1191 8.05664L103.613 8.05664C112.549 8.05664 117.432 3.17383 117.432-5.71289L117.432-45.2637C117.432-54.1504 112.549-59.0332 103.613-59.0332L95.2148-59.0332L92.9688-71.8262C91.4062-80.5664 85.7422-84.5215 76.9531-83.0078L21.3379-73.1934C12.5-71.6309 8.54492-65.9668 10.1074-57.2266ZM27.1484-21.3379L20.752-57.7637C20.2148-60.791 21.4844-62.4512 24.3164-62.9395L77.6367-72.3633C80.4688-72.8516 82.2266-71.7285 82.7637-68.7012L84.4727-59.0332L47.1191-59.0332C38.1348-59.0332 33.252-54.1504 33.252-45.2637L33.252-17.9199L32.2754-17.7246C29.4434-17.2363 27.6855-18.3594 27.1484-21.3379ZM43.8477-43.9941C43.8477-47.0703 45.4102-48.4375 48.291-48.4375L102.441-48.4375C105.322-48.4375 106.836-47.0703 106.836-43.9941L106.836-14.6484L93.7012-26.9531C92.1875-28.3203 90.4297-29.0039 88.5254-29.0039C86.6699-29.0039 84.8633-28.3691 83.3008-27.002L67.3828-12.8418L60.9375-18.6523C59.5215-19.9219 57.8613-20.5566 56.2012-20.5566C54.6387-20.5566 53.0273-19.9707 51.6602-18.7012L43.8477-11.7676ZM63.0371-25.3418C67.8223-25.3418 71.8262-29.3945 71.8262-34.082C71.8262-38.8672 67.8223-42.9199 63.0371-42.9199C58.3496-42.9199 54.3457-38.8672 54.3457-34.082C54.3457-29.3945 58.3496-25.3418 63.0371-25.3418Z"/>
  </g>
  <g id="Semibold-S" transform="matrix(1 0 0 1 1980.5 696)">
   <path d="M16.8457-18.2617C18.3594-9.81445 23.7305-6.10352 32.3242-7.61719L32.8613-7.71484L32.8613-6.05469C32.8613 2.58789 37.4512 7.17773 46.1914 7.17773L102.441 7.17773C111.133 7.17773 115.771 2.58789 115.771-6.05469L115.771-45.3125C115.771-53.9551 111.133-58.5449 102.441-58.5449L93.9941-58.5449L91.6992-71.3867C90.1855-79.834 84.8633-83.5938 76.2695-82.0801L20.9473-72.3145C12.3047-70.8008 8.59375-65.4785 10.1074-56.9824ZM25.8789-20.8496L19.3848-57.666C18.7988-60.8887 20.2148-62.7441 23.291-63.2812L77.1484-72.8027C80.1758-73.3398 82.1289-72.0703 82.7148-68.7988L84.5215-58.5449L46.1914-58.5449C37.4512-58.5449 32.8613-53.9551 32.8613-45.3125L32.8613-17.1387L31.4941-16.8945C28.418-16.3574 26.4648-17.627 25.8789-20.8496ZM42.1387-44.3359C42.1387-47.6562 43.8477-49.2188 46.9727-49.2188L101.66-49.2188C104.736-49.2188 106.445-47.6562 106.445-44.3359L106.445-14.8926L93.2617-27.3438C91.6992-28.7598 89.8438-29.4434 87.8906-29.4434C85.9863-29.4434 84.1309-28.8086 82.5195-27.3438L66.1621-12.793L59.5703-18.75C58.0566-20.0684 56.3477-20.752 54.6875-20.752C53.0762-20.752 51.4648-20.1172 50-18.7988L42.1387-11.9141ZM61.1328-25.9277C65.918-25.9277 69.9707-29.9805 69.9707-34.7656C69.9707-39.5996 65.918-43.6523 61.1328-43.6523C56.3477-43.6523 52.2949-39.5996 52.2949-34.7656C52.2949-29.9805 56.3477-25.9277 61.1328-25.9277Z"/>
  </g>
  <g id="Medium-S" transform="matrix(1 0 0 1 1684.45 696)">
   <path d="M16.8457-18.3105C18.2617-10.0098 23.3887-6.49414 31.8359-7.95898L32.5195-8.10547L32.5195-6.29883C32.5195 2.14844 36.9141 6.49414 45.5078 6.49414L101.514 6.49414C110.059 6.49414 114.453 2.14844 114.453-6.29883L114.453-45.3613C114.453-53.8086 110.059-58.1543 101.514-58.1543L93.0176-58.1543L90.7227-71.0449C89.2578-79.2969 84.1797-82.9102 75.7812-81.3965L20.6055-71.6309C12.1582-70.166 8.64258-65.1367 10.0586-56.7871ZM24.9023-20.459L18.4082-57.5684C17.7734-60.9375 19.2871-62.9883 22.5098-63.5742L76.7578-73.1445C79.9805-73.6816 82.0801-72.3145 82.666-68.8477L84.5703-58.1543L45.5078-58.1543C36.9141-58.1543 32.5195-53.8086 32.5195-45.3613L32.5195-16.5527L30.8594-16.2598C27.6367-15.6738 25.5371-17.0898 24.9023-20.459ZM40.8691-44.6289C40.8691-48.1445 42.6758-49.8535 45.9961-49.8535L101.025-49.8535C104.297-49.8535 106.152-48.1445 106.152-44.6289L106.152-15.0879L92.9199-27.6367C91.3574-29.1016 89.4043-29.7852 87.4512-29.7852C85.4492-29.7852 83.5938-29.1016 81.9336-27.6367L65.2344-12.793L58.4961-18.8477C56.9336-20.2148 55.2246-20.8984 53.5156-20.8984C51.9043-20.8984 50.2441-20.2637 48.7305-18.8965L40.8691-12.0605ZM59.668-26.416C64.502-26.416 68.5547-30.4199 68.5547-35.3027C68.5547-40.1855 64.502-44.2383 59.668-44.2383C54.7852-44.2383 50.7324-40.1855 50.7324-35.3027C50.7324-30.4199 54.7852-26.416 59.668-26.416Z"/>
  </g>
  <g id="Regular-S" transform="matrix(1 0 0 1 1388.57 696)">
   <path d="M16.748-18.4082C18.1641-10.3027 22.9492-7.03125 31.2012-8.49609L32.1289-8.64258L32.1289-6.64062C32.1289 1.5625 36.2305 5.61523 44.5801 5.61523L100.342 5.61523C108.643 5.61523 112.793 1.5625 112.793-6.64062L112.793-45.4102C112.793-53.6133 108.643-57.666 100.342-57.666L91.7969-57.666L89.502-70.5566C88.0371-78.6133 83.3008-81.9824 75.0977-80.5176L20.2148-70.8008C11.9629-69.3359 8.69141-64.6484 10.0586-56.543ZM23.6816-19.9707L17.0898-57.4219C16.4062-61.0352 18.0664-63.2812 21.5332-63.916L76.2207-73.584C79.6875-74.1699 81.9824-72.6074 82.666-68.9941L84.668-57.666L44.5801-57.666C36.2305-57.666 32.1289-53.6133 32.1289-45.4102L32.1289-15.7715L30.0781-15.4297C26.6113-14.8438 24.3164-16.3574 23.6816-19.9707ZM39.1602-45.0195C39.1602-48.7305 41.1621-50.6348 44.6777-50.6348L100.244-50.6348C103.76-50.6348 105.762-48.7305 105.762-45.0195L105.762-15.3809L92.4805-27.9785C90.8691-29.4922 88.8184-30.2246 86.8652-30.2246C84.8145-30.2246 82.9102-29.541 81.2012-28.0273L64.0625-12.7441L57.1289-18.9453C55.5176-20.3613 53.7109-21.0938 51.9531-21.0938C50.3418-21.0938 48.6816-20.4102 47.0703-18.9941L39.1602-12.207ZM57.7637-27.002C62.6465-27.002 66.6992-31.0059 66.6992-35.9863C66.6992-40.918 62.6465-45.0195 57.7637-45.0195C52.7832-45.0195 48.7305-40.918 48.7305-35.9863C48.7305-31.0059 52.7832-27.002 57.7637-27.002Z"/>
  </g>
  <g id="Light-S" transform="matrix(1 0 0 1 1093.29 696)">
   <path d="M16.748-17.9688C18.0664-10.4492 22.5586-7.27539 30.2246-8.69141L30.8105-8.78906L30.8105-7.27539C30.8105 0.390625 34.7168 4.24805 42.4316 4.24805L98.291 4.24805C106.006 4.24805 109.912 0.341797 109.912-7.27539L109.912-45.9473C109.912-53.5645 106.006-57.4219 98.291-57.4219L90.1367-57.4219L87.9395-69.7754C86.5723-77.2949 82.0801-80.4688 74.4629-79.1016L19.5312-69.3848C11.8652-68.0664 8.74023-63.623 10.0586-56.0547ZM22.0703-19.1895L15.4297-56.7383C14.6973-60.8398 16.5527-63.3789 20.5566-64.1113L75.3418-73.7793C79.248-74.4629 81.9336-72.7051 82.666-68.5547L84.6191-57.4219L42.4316-57.4219C34.7168-57.4219 30.8105-53.5645 30.8105-45.9473L30.8105-14.3066L29.3945-14.0137C25.3906-13.3301 22.8027-15.0879 22.0703-19.1895ZM36.2305-45.6543C36.2305-49.8535 38.4766-52.002 42.5293-52.002L98.1934-52.002C102.197-52.002 104.492-49.8535 104.492-45.6543L104.492-14.5996L90.1855-28.0273C88.5254-29.5898 86.5234-30.3711 84.4727-30.3711C82.3242-30.3711 80.5176-29.6387 78.7598-28.0762L61.9141-13.2324L55.2246-19.2383C53.6621-20.6543 52.002-21.4355 50.1465-21.4355C48.4375-21.4355 46.9238-20.7031 45.3613-19.2871L36.2305-11.3281ZM55.8594-27.1484C60.6934-27.1484 64.6484-31.1035 64.6484-36.0352C64.6484-40.8691 60.6934-44.873 55.8594-44.873C50.9766-44.873 47.0215-40.8691 47.0215-36.0352C47.0215-31.1035 50.9766-27.1484 55.8594-27.1484Z"/>
  </g>
  <g id="Thin-S" transform="matrix(1 0 0 1 798.488 696)">
   <path d="M16.6992-17.4316C17.9199-10.6445 22.0703-7.61719 28.9551-8.93555L29.1016-8.93555L29.1016-8.05664C29.1016-1.17188 32.7148 2.44141 39.6484 2.44141L95.5566 2.44141C102.49 2.44141 106.104-1.2207 106.104-8.05664L106.104-46.6309C106.104-53.4668 102.49-57.1289 95.5566-57.1289L87.9395-57.1289L85.8887-68.75C84.668-75.4883 80.5176-78.5156 73.6816-77.2949L18.6035-67.5781C11.7676-66.3574 8.83789-62.207 10.0098-55.4199ZM19.9219-18.1641L13.3301-55.8105C12.4512-60.5957 14.5508-63.4766 19.2871-64.3555L74.1211-74.0234C78.7109-74.8047 81.7871-72.8027 82.666-68.0176L84.5703-57.1289L39.6484-57.1289C32.7148-57.1289 29.1016-53.5645 29.1016-46.6309L29.1016-12.3047L28.4668-12.207C23.7305-11.3281 20.8008-13.4277 19.9219-18.1641ZM32.4219-46.4355C32.4219-51.3184 34.9609-53.8086 39.7461-53.8086L95.459-53.8086C100.146-53.8086 102.832-51.3184 102.832-46.4355L102.832-13.623L87.1094-28.0762C85.4004-29.6875 83.4961-30.5664 81.2988-30.5664C79.1016-30.5664 77.3926-29.7363 75.5371-28.125L59.082-13.8672L52.7832-19.6289C51.2207-21.0938 49.707-21.8262 47.8027-21.8262C45.9961-21.8262 44.6289-21.0938 43.0664-19.6777L32.4219-10.0586ZM53.3691-27.3438C58.1055-27.3438 61.9629-31.25 61.9629-36.0352C61.9629-40.7715 58.1055-44.7266 53.3691-44.7266C48.584-44.7266 44.7266-40.7715 44.7266-36.0352C44.7266-31.25 48.584-27.3438 53.3691-27.3438Z"/>
  </g>
  <g id="Ultralight-S" transform="matrix(1 0 0 1 502.753 696)">
   <path d="M16.6992-17.1387C17.8223-10.7422 21.8262-7.8125 28.2227-9.0332L28.2227-8.49609C28.2227-1.95312 31.6895 1.46484 38.2324 1.46484L94.1895 1.46484C100.684 1.46484 104.15-2.05078 104.15-8.49609L104.15-46.9727C104.15-53.418 100.684-56.9824 94.1895-56.9824L86.8164-56.9824L84.8145-68.2129C83.6914-74.5605 79.6875-77.4902 73.2422-76.3184L18.1152-66.6016C11.6699-65.4785 8.88672-61.4746 10.0098-55.0781ZM18.8477-17.627L12.207-55.3223C11.2793-60.4492 13.5254-63.5742 18.6035-64.4531L73.5352-74.1211C78.418-75 81.7383-72.9004 82.666-67.7246L84.5215-56.9824L38.2324-56.9824C31.6895-56.9824 28.2227-53.5156 28.2227-46.9727L28.2227-11.2793L27.9785-11.2305C22.9004-10.3027 19.7754-12.5488 18.8477-17.627ZM30.4199-46.875C30.4199-52.0508 33.1543-54.7852 38.3301-54.7852L94.0918-54.7852C99.0723-54.7852 101.953-52.0508 101.953-46.875L101.953-13.1836L85.5469-28.125C83.7891-29.7363 81.9336-30.6641 79.6875-30.6641C77.4414-30.6641 75.7812-29.7852 73.9258-28.1738L57.666-14.1602L51.5137-19.8242C49.9512-21.2891 48.5352-22.0703 46.582-22.0703C44.7266-22.0703 43.457-21.2891 41.8945-19.873L30.4199-9.375ZM52.0996-27.4414C56.7383-27.4414 60.5957-31.3477 60.5957-36.084C60.5957-40.7227 56.7383-44.6289 52.0996-44.6289C47.3633-44.6289 43.5547-40.7227 43.5547-36.084C43.5547-31.3477 47.3633-27.4414 52.0996-27.4414Z"/>
  </g>
 </g>
</svg>
