<?xml version="1.0" encoding="UTF-8"?>
<!--Generator: Apple Native CoreSVG 175-->
<!DOCTYPE svg
PUBLIC "-//W3C//DTD SVG 1.1//EN"
       "http://www.w3.org/Graphics/SVG/1.1/DTD/svg11.dtd">
<svg version="1.1" xmlns="http://www.w3.org/2000/svg" xmlns:xlink="http://www.w3.org/1999/xlink" width="3300" height="2200">
 <!--glyph: "uni10020E.medium", point size: 100.0, font version: "17.0d12e1", template writer version: "65.1"-->
 <g id="Notes">
  <rect height="2200" id="artboard" style="fill:white;opacity:1" width="3300" x="0" y="0"/>
  <line style="fill:none;stroke:black;opacity:1;stroke-width:0.5;" x1="263" x2="3036" y1="292" y2="292"/>
  <text style="stroke:none;fill:black;font-family:sans-serif;font-size:13;font-weight:bold;" transform="matrix(1 0 0 1 263 322)">Weight/Scale Variations</text>
  <text style="stroke:none;fill:black;font-family:sans-serif;font-size:13;text-anchor:middle;" transform="matrix(1 0 0 1 559.711 322)">Ultralight</text>
  <text style="stroke:none;fill:black;font-family:sans-serif;font-size:13;text-anchor:middle;" transform="matrix(1 0 0 1 856.422 322)">Thin</text>
  <text style="stroke:none;fill:black;font-family:sans-serif;font-size:13;text-anchor:middle;" transform="matrix(1 0 0 1 1153.13 322)">Light</text>
  <text style="stroke:none;fill:black;font-family:sans-serif;font-size:13;text-anchor:middle;" transform="matrix(1 0 0 1 1449.84 322)">Regular</text>
  <text style="stroke:none;fill:black;font-family:sans-serif;font-size:13;text-anchor:middle;" transform="matrix(1 0 0 1 1746.56 322)">Medium</text>
  <text style="stroke:none;fill:black;font-family:sans-serif;font-size:13;text-anchor:middle;" transform="matrix(1 0 0 1 2043.27 322)">Semibold</text>
  <text style="stroke:none;fill:black;font-family:sans-serif;font-size:13;text-anchor:middle;" transform="matrix(1 0 0 1 2339.98 322)">Bold</text>
  <text style="stroke:none;fill:black;font-family:sans-serif;font-size:13;text-anchor:middle;" transform="matrix(1 0 0 1 2636.69 322)">Heavy</text>
  <text style="stroke:none;fill:black;font-family:sans-serif;font-size:13;text-anchor:middle;" transform="matrix(1 0 0 1 2933.4 322)">Black</text>
  <line style="fill:none;stroke:black;opacity:1;stroke-width:0.5;" x1="263" x2="3036" y1="1903" y2="1903"/>
  <g transform="matrix(1 0 0 1 263 1933)">
   <path d="M9.24805 0.830078Q10.8691 0.830078 12.2949 0.214844Q13.7207-0.400391 14.8096-1.49414Q15.8984-2.58789 16.5186-4.01367Q17.1387-5.43945 17.1387-7.05078Q17.1387-8.66211 16.5186-10.0879Q15.8984-11.5137 14.8047-12.6074Q13.7109-13.7012 12.2852-14.3164Q10.8594-14.9316 9.23828-14.9316Q7.62695-14.9316 6.20117-14.3164Q4.77539-13.7012 3.69141-12.6074Q2.60742-11.5137 1.9873-10.0879Q1.36719-8.66211 1.36719-7.05078Q1.36719-5.43945 1.9873-4.01367Q2.60742-2.58789 3.69629-1.49414Q4.78516-0.400391 6.21094 0.214844Q7.63672 0.830078 9.24805 0.830078ZM9.24805-0.654297Q7.91992-0.654297 6.7627-1.14746Q5.60547-1.64062 4.73145-2.51953Q3.85742-3.39844 3.36426-4.56055Q2.87109-5.72266 2.87109-7.05078Q2.87109-8.37891 3.35938-9.54102Q3.84766-10.7031 4.72168-11.582Q5.5957-12.4609 6.75293-12.9541Q7.91016-13.4473 9.23828-13.4473Q10.5762-13.4473 11.7334-12.9541Q12.8906-12.4609 13.7695-11.582Q14.6484-10.7031 15.1465-9.54102Q15.6445-8.37891 15.6445-7.05078Q15.6445-5.72266 15.1514-4.56055Q14.6582-3.39844 13.7842-2.51953Q12.9102-1.64062 11.748-1.14746Q10.5859-0.654297 9.24805-0.654297ZM5.6543-7.05078Q5.6543-6.72852 5.85938-6.52832Q6.06445-6.32812 6.40625-6.32812L8.51562-6.32812L8.51562-4.20898Q8.51562-3.88672 8.71094-3.67676Q8.90625-3.4668 9.23828-3.4668Q9.56055-3.4668 9.77051-3.67676Q9.98047-3.88672 9.98047-4.20898L9.98047-6.32812L12.0898-6.32812Q12.4219-6.32812 12.627-6.52832Q12.832-6.72852 12.832-7.05078Q12.832-7.38281 12.627-7.58789Q12.4219-7.79297 12.0898-7.79297L9.98047-7.79297L9.98047-9.90234Q9.98047-10.2344 9.77051-10.4443Q9.56055-10.6543 9.23828-10.6543Q8.90625-10.6543 8.71094-10.4443Q8.51562-10.2344 8.51562-9.90234L8.51562-7.79297L6.40625-7.79297Q6.06445-7.79297 5.85938-7.58789Q5.6543-7.38281 5.6543-7.05078Z"/>
  </g>
  <g transform="matrix(1 0 0 1 281.867 1933)">
   <path d="M11.709 2.91016Q13.75 2.91016 15.5518 2.12891Q17.3535 1.34766 18.7305-0.0292969Q20.1074-1.40625 20.8887-3.20801Q21.6699-5.00977 21.6699-7.05078Q21.6699-9.0918 20.8887-10.8936Q20.1074-12.6953 18.7305-14.0723Q17.3535-15.4492 15.5469-16.2305Q13.7402-17.0117 11.6992-17.0117Q9.6582-17.0117 7.85645-16.2305Q6.05469-15.4492 4.68262-14.0723Q3.31055-12.6953 2.5293-10.8936Q1.74805-9.0918 1.74805-7.05078Q1.74805-5.00977 2.5293-3.20801Q3.31055-1.40625 4.6875-0.0292969Q6.06445 1.34766 7.86621 2.12891Q9.66797 2.91016 11.709 2.91016ZM11.709 1.25Q9.98047 1.25 8.47656 0.605469Q6.97266-0.0390625 5.83496-1.17676Q4.69727-2.31445 4.05762-3.81836Q3.41797-5.32227 3.41797-7.05078Q3.41797-8.7793 4.05762-10.2832Q4.69727-11.7871 5.83008-12.9297Q6.96289-14.0723 8.4668-14.7119Q9.9707-15.3516 11.6992-15.3516Q13.4277-15.3516 14.9316-14.7119Q16.4355-14.0723 17.5781-12.9297Q18.7207-11.7871 19.3652-10.2832Q20.0098-8.7793 20.0098-7.05078Q20.0098-5.32227 19.3701-3.81836Q18.7305-2.31445 17.5928-1.17676Q16.4551-0.0390625 14.9463 0.605469Q13.4375 1.25 11.709 1.25ZM7.17773-7.05078Q7.17773-6.69922 7.41211-6.47461Q7.64648-6.25 8.01758-6.25L10.8887-6.25L10.8887-3.36914Q10.8887-2.99805 11.1133-2.76855Q11.3379-2.53906 11.6895-2.53906Q12.0605-2.53906 12.29-2.76855Q12.5195-2.99805 12.5195-3.36914L12.5195-6.25L15.4004-6.25Q15.7715-6.25 16.001-6.47461Q16.2305-6.69922 16.2305-7.05078Q16.2305-7.42188 16.001-7.65137Q15.7715-7.88086 15.4004-7.88086L12.5195-7.88086L12.5195-10.752Q12.5195-11.1328 12.29-11.3623Q12.0605-11.5918 11.6895-11.5918Q11.3379-11.5918 11.1133-11.3574Q10.8887-11.123 10.8887-10.752L10.8887-7.88086L8.01758-7.88086Q7.63672-7.88086 7.40723-7.65137Q7.17773-7.42188 7.17773-7.05078Z"/>
  </g>
  <g transform="matrix(1 0 0 1 305.646 1933)">
   <path d="M14.9707 5.66406Q17.0605 5.66406 18.96 5.01465Q20.8594 4.36523 22.4512 3.19336Q24.043 2.02148 25.2197 0.429688Q26.3965-1.16211 27.0459-3.06641Q27.6953-4.9707 27.6953-7.05078Q27.6953-9.14062 27.0459-11.04Q26.3965-12.9395 25.2197-14.5312Q24.043-16.123 22.4512-17.2998Q20.8594-18.4766 18.9551-19.126Q17.0508-19.7754 14.9609-19.7754Q12.8711-19.7754 10.9717-19.126Q9.07227-18.4766 7.48535-17.2998Q5.89844-16.123 4.72168-14.5312Q3.54492-12.9395 2.90039-11.04Q2.25586-9.14062 2.25586-7.05078Q2.25586-4.9707 2.90527-3.06641Q3.55469-1.16211 4.72656 0.429688Q5.89844 2.02148 7.49023 3.19336Q9.08203 4.36523 10.9814 5.01465Q12.8809 5.66406 14.9707 5.66406ZM14.9707 3.84766Q13.1641 3.84766 11.5283 3.2959Q9.89258 2.74414 8.53516 1.74805Q7.17773 0.751953 6.17676-0.610352Q5.17578-1.97266 4.62891-3.6084Q4.08203-5.24414 4.08203-7.05078Q4.08203-8.86719 4.62891-10.5029Q5.17578-12.1387 6.17188-13.501Q7.16797-14.8633 8.52539-15.8594Q9.88281-16.8555 11.5186-17.4023Q13.1543-17.9492 14.9609-17.9492Q16.7773-17.9492 18.4131-17.4023Q20.0488-16.8555 21.4111-15.8594Q22.7734-14.8633 23.7695-13.501Q24.7656-12.1387 25.3174-10.5029Q25.8691-8.86719 25.8691-7.05078Q25.8789-5.24414 25.332-3.6084Q24.7852-1.97266 23.7842-0.610352Q22.7832 0.751953 21.4209 1.74805Q20.0586 2.74414 18.4229 3.2959Q16.7871 3.84766 14.9707 3.84766ZM9.19922-7.05078Q9.19922-6.66992 9.45801-6.4209Q9.7168-6.17188 10.1172-6.17188L14.0625-6.17188L14.0625-2.2168Q14.0625-1.81641 14.3115-1.55762Q14.5605-1.29883 14.9512-1.29883Q15.3516-1.29883 15.6104-1.55273Q15.8691-1.80664 15.8691-2.2168L15.8691-6.17188L19.8242-6.17188Q20.2246-6.17188 20.4785-6.4209Q20.7324-6.66992 20.7324-7.05078Q20.7324-7.46094 20.4785-7.71484Q20.2246-7.96875 19.8242-7.96875L15.8691-7.96875L15.8691-11.9141Q15.8691-12.3242 15.6104-12.583Q15.3516-12.8418 14.9512-12.8418Q14.5605-12.8418 14.3115-12.583Q14.0625-12.3242 14.0625-11.9141L14.0625-7.96875L10.1172-7.96875Q9.70703-7.96875 9.45312-7.71484Q9.19922-7.46094 9.19922-7.05078Z"/>
  </g>
  <text style="stroke:none;fill:black;font-family:sans-serif;font-size:13;font-weight:bold;" transform="matrix(1 0 0 1 263 1953)">Design Variations</text>
  <text style="stroke:none;fill:black;font-family:sans-serif;font-size:13;" transform="matrix(1 0 0 1 263 1971)">Symbols are supported in up to nine weights and three scales.</text>
  <text style="stroke:none;fill:black;font-family:sans-serif;font-size:13;" transform="matrix(1 0 0 1 263 1989)">For optimal layout with text and other symbols, vertically align</text>
  <text style="stroke:none;fill:black;font-family:sans-serif;font-size:13;" transform="matrix(1 0 0 1 263 2007)">symbols with the adjacent text.</text>
  <line style="fill:none;stroke:#00AEEF;stroke-width:0.5;opacity:1.0;" x1="776" x2="776" y1="1919" y2="1933"/>
  <g transform="matrix(1 0 0 1 776 1933)">
   <path d="M3.31055 0.15625Q3.70117 0.15625 3.91602-0.00976562Q4.13086-0.175781 4.26758-0.585938L5.52734-4.0332L11.2891-4.0332L12.5488-0.585938Q12.6855-0.175781 12.9004-0.00976562Q13.1152 0.15625 13.4961 0.15625Q13.8867 0.15625 14.1162-0.0585938Q14.3457-0.273438 14.3457-0.644531Q14.3457-0.869141 14.2383-1.17188L9.6582-13.3691Q9.48242-13.8184 9.17969-14.043Q8.87695-14.2676 8.4082-14.2676Q7.5-14.2676 7.17773-13.3789L2.59766-1.16211Q2.49023-0.859375 2.49023-0.634766Q2.49023-0.263672 2.70996-0.0537109Q2.92969 0.15625 3.31055 0.15625ZM6.00586-5.51758L8.37891-12.0898L8.42773-12.0898L10.8008-5.51758Z"/>
  </g>
  <line style="fill:none;stroke:#00AEEF;stroke-width:0.5;opacity:1.0;" x1="793.197" x2="793.197" y1="1919" y2="1933"/>
  <text style="stroke:none;fill:black;font-family:sans-serif;font-size:13;font-weight:bold;" transform="matrix(1 0 0 1 776 1953)">Margins</text>
  <text style="stroke:none;fill:black;font-family:sans-serif;font-size:13;" transform="matrix(1 0 0 1 776 1971)">Leading and trailing margins on the left and right side of each symbol</text>
  <text style="stroke:none;fill:black;font-family:sans-serif;font-size:13;" transform="matrix(1 0 0 1 776 1989)">can be adjusted by modifying the x-location of the margin guidelines.</text>
  <text style="stroke:none;fill:black;font-family:sans-serif;font-size:13;" transform="matrix(1 0 0 1 776 2007)">Modifications are automatically applied proportionally to all</text>
  <text style="stroke:none;fill:black;font-family:sans-serif;font-size:13;" transform="matrix(1 0 0 1 776 2025)">scales and weights.</text>
  <g transform="matrix(1 0 0 1 1289 1933)">
   <path d="M2.8418 1.86523L4.54102 3.57422Q5.18555 4.22852 5.90332 4.17969Q6.62109 4.13086 7.31445 3.35938L18.0078-8.42773L17.041-9.4043L6.42578 2.27539Q6.16211 2.57812 5.89355 2.61719Q5.625 2.65625 5.27344 2.30469L4.10156 1.14258Q3.75 0.791016 3.79395 0.522461Q3.83789 0.253906 4.14062-0.0195312L15.6152-10.8203L14.6387-11.7871L3.04688-0.898438Q2.30469-0.214844 2.25098 0.498047Q2.19727 1.21094 2.8418 1.86523ZM9.25781-16.3281Q8.94531-16.0254 8.90625-15.6348Q8.86719-15.2441 9.04297-14.9512Q9.21875-14.6777 9.55566-14.541Q9.89258-14.4043 10.3809-14.5215Q11.4746-14.7754 12.5977-14.7314Q13.7207-14.6875 14.7949-13.9844L14.209-12.5293Q13.9551-11.9043 14.0674-11.4404Q14.1797-10.9766 14.5801-10.5664L16.875-8.25195Q17.2363-7.88086 17.5781-7.82227Q17.9199-7.76367 18.3398-7.8418L19.4043-8.03711L20.0684-7.36328L20.0293-6.80664Q20-6.43555 20.1221-6.12305Q20.2441-5.81055 20.6055-5.44922L21.3672-4.70703Q21.7285-4.3457 22.1533-4.33105Q22.5781-4.31641 22.9297-4.66797L25.8398-7.58789Q26.1914-7.93945 26.1816-8.35449Q26.1719-8.76953 25.8105-9.13086L25.0391-9.89258Q24.6875-10.2539 24.3799-10.3857Q24.0723-10.5176 23.7109-10.4883L23.1348-10.4395L22.4902-11.0742L22.7344-12.1973Q22.832-12.6172 22.6953-12.9834Q22.5586-13.3496 22.1191-13.7891L19.9219-15.9766Q18.6719-17.2168 17.2607-17.8369Q15.8496-18.457 14.4189-18.4814Q12.9883-18.5059 11.665-17.959Q10.3418-17.4121 9.25781-16.3281ZM10.752-15.957Q11.6602-16.6211 12.7002-16.9043Q13.7402-17.1875 14.8047-17.085Q15.8691-16.9824 16.8701-16.5137Q17.8711-16.0449 18.7012-15.2051L21.1328-12.793Q21.3086-12.6172 21.3525-12.4512Q21.3965-12.2852 21.3379-12.0312L21.0156-10.5469L22.5195-9.0625L23.5059-9.12109Q23.6914-9.13086 23.7891-9.09668Q23.8867-9.0625 24.0332-8.91602L24.6094-8.33984L22.168-5.89844L21.5918-6.47461Q21.4453-6.62109 21.4062-6.71875Q21.3672-6.81641 21.377-7.01172L21.4453-7.98828L19.9512-9.47266L18.4277-9.21875Q18.1836-9.16992 18.042-9.2041Q17.9004-9.23828 17.7148-9.41406L15.7129-11.416Q15.5176-11.5918 15.4932-11.7529Q15.4688-11.9141 15.5859-12.1875L16.4648-14.2773Q15.293-15.3711 13.8281-15.791Q12.3633-16.2109 10.8398-15.7617Q10.7227-15.7324 10.6885-15.8057Q10.6543-15.8789 10.752-15.957Z"/>
  </g>
  <text style="stroke:none;fill:black;font-family:sans-serif;font-size:13;font-weight:bold;" transform="matrix(1 0 0 1 1289 1953)">Exporting</text>
  <text style="stroke:none;fill:black;font-family:sans-serif;font-size:13;" transform="matrix(1 0 0 1 1289 1971)">Symbols should be outlined when exporting to ensure the</text>
  <text style="stroke:none;fill:black;font-family:sans-serif;font-size:13;" transform="matrix(1 0 0 1 1289 1989)">design is preserved when submitting to Xcode.</text>
  <text id="template-version" style="stroke:none;fill:black;font-family:sans-serif;font-size:13;text-anchor:end;" transform="matrix(1 0 0 1 3036 1933)">Template v.3.0</text>
  <text style="stroke:none;fill:black;font-family:sans-serif;font-size:13;text-anchor:end;" transform="matrix(1 0 0 1 3036 1951)">Requires Xcode 13 or greater</text>
  <text id="descriptive-name" style="stroke:none;fill:black;font-family:sans-serif;font-size:13;text-anchor:end;" transform="matrix(1 0 0 1 3036 1969)">Generated from square.and.pencil</text>
  <text style="stroke:none;fill:black;font-family:sans-serif;font-size:13;text-anchor:end;" transform="matrix(1 0 0 1 3036 1987)">Typeset at 100 points</text>
  <text style="stroke:none;fill:black;font-family:sans-serif;font-size:13;" transform="matrix(1 0 0 1 263 726)">Small</text>
  <text style="stroke:none;fill:black;font-family:sans-serif;font-size:13;" transform="matrix(1 0 0 1 263 1156)">Medium</text>
  <text style="stroke:none;fill:black;font-family:sans-serif;font-size:13;" transform="matrix(1 0 0 1 263 1586)">Large</text>
 </g>
 <g id="Guides">
  <g id="H-reference" style="fill:#27AAE1;stroke:none;" transform="matrix(1 0 0 1 339 696)">
   <path d="M0.993347 0L3.6377 0L29.3282-67.1326L30.0301-67.1326L30.0301-70.459L28.1227-70.459ZM11.6882-24.4797L46.9818-24.4797L46.2311-26.7288L12.4382-26.7288ZM55.1193 0L57.7637 0L30.6381-70.459L29.4327-70.459L29.4327-67.1326Z"/>
  </g>
  <line id="Baseline-S" style="fill:none;stroke:#27AAE1;opacity:1;stroke-width:0.5;" x1="263" x2="3036" y1="696" y2="696"/>
  <line id="Capline-S" style="fill:none;stroke:#27AAE1;opacity:1;stroke-width:0.5;" x1="263" x2="3036" y1="625.541" y2="625.541"/>
  <g id="H-reference" style="fill:#27AAE1;stroke:none;" transform="matrix(1 0 0 1 339 1126)">
   <path d="M0.993347 0L3.6377 0L29.3282-67.1326L30.0301-67.1326L30.0301-70.459L28.1227-70.459ZM11.6882-24.4797L46.9818-24.4797L46.2311-26.7288L12.4382-26.7288ZM55.1193 0L57.7637 0L30.6381-70.459L29.4327-70.459L29.4327-67.1326Z"/>
  </g>
  <line id="Baseline-M" style="fill:none;stroke:#27AAE1;opacity:1;stroke-width:0.5;" x1="263" x2="3036" y1="1126" y2="1126"/>
  <line id="Capline-M" style="fill:none;stroke:#27AAE1;opacity:1;stroke-width:0.5;" x1="263" x2="3036" y1="1055.54" y2="1055.54"/>
  <g id="H-reference" style="fill:#27AAE1;stroke:none;" transform="matrix(1 0 0 1 339 1556)">
   <path d="M0.993347 0L3.6377 0L29.3282-67.1326L30.0301-67.1326L30.0301-70.459L28.1227-70.459ZM11.6882-24.4797L46.9818-24.4797L46.2311-26.7288L12.4382-26.7288ZM55.1193 0L57.7637 0L30.6381-70.459L29.4327-70.459L29.4327-67.1326Z"/>
  </g>
  <line id="Baseline-L" style="fill:none;stroke:#27AAE1;opacity:1;stroke-width:0.5;" x1="263" x2="3036" y1="1556" y2="1556"/>
  <line id="Capline-L" style="fill:none;stroke:#27AAE1;opacity:1;stroke-width:0.5;" x1="263" x2="3036" y1="1485.54" y2="1485.54"/>
  <line id="left-margin-Regular-M" style="fill:none;stroke:#00AEEF;stroke-width:0.5;opacity:1.0;" x1="1389.1" x2="1389.1" y1="1030.79" y2="1150.12"/>
  <line id="right-margin-Regular-M" style="fill:none;stroke:#00AEEF;stroke-width:0.5;opacity:1.0;" x1="1510.59" x2="1510.59" y1="1030.79" y2="1150.12"/>
 </g>
 <g id="Symbols">
  <g id="Black-L" transform="matrix(1 0 0 1 2852.25 1556)">
   <path d="M45.6543 26.5137L117.285 26.5137Q128.271 26.5137 134.399 20.3125Q140.527 14.1113 140.527 2.68555L140.527-61.3281L120.312-41.0645L120.312-0.146484Q120.312 3.27148 118.774 4.78516Q117.236 6.29883 114.551 6.29883L48.3887 6.29883Q45.2148 6.29883 43.6035 4.78516Q41.9922 3.27148 41.9922-0.146484L41.9922-65.625Q41.9922-69.043 43.6035-70.5566Q45.2148-72.0703 48.3887-72.0703L89.7461-72.0703L110.01-92.2852L45.6543-92.2852Q34.2285-92.2852 27.9785-86.084Q21.7285-79.8828 21.7285-68.457L21.7285 2.68555Q21.7285 14.1113 27.9785 20.3125Q34.2285 26.5137 45.6543 26.5137ZM72.1191-19.6289L87.0117-25.3906L139.209-77.5879L126.025-90.7227L73.877-38.5254L68.0176-23.7793Q67.2852-21.7773 68.8232-20.3857Q70.3613-18.9941 72.1191-19.6289ZM143.604-81.9824L149.17-87.8906Q151.562-90.4297 151.782-93.75Q152.002-97.0703 149.658-99.5605L147.363-101.953Q145.312-104.053 142.017-103.613Q138.721-103.174 136.279-100.781L130.469-95.166Z"/>
  </g>
  <g id="Heavy-L" transform="matrix(1 0 0 1 2556.34 1556)">
   <path d="M44.7205 25.4303L116.813 25.4303Q127.188 25.4303 132.947 19.5747Q138.706 13.7192 138.706 2.78931L138.706-61.9965L121.223-44.4756L121.223 0.510406Q121.223 4.3663 119.443 6.15654Q117.663 7.94678 114.689 7.94678L46.8445 7.94678Q43.2213 7.94678 41.3506 6.15654Q39.4798 4.3663 39.4798 0.510406L39.4798-66.4085Q39.4798-70.2644 41.3506-72.0547Q43.2213-73.8449 46.8445-73.8449L92.3042-73.8449L109.837-91.3284L44.7205-91.3284Q33.7677-91.3284 27.8633-85.4733Q21.9589-79.6181 21.9589-68.676L21.9589 2.78931Q21.9589 13.7314 27.8633 19.5808Q33.7677 25.4303 44.7205 25.4303ZM70.6093-19.5946L84.6603-25.1831L138.403-78.9246L126.498-90.7806L72.805-37.0384L67.0723-23.1804Q66.4322-21.489 67.757-20.2587Q69.0819-19.0285 70.6093-19.5946ZM142.809-83.3076L148.064-88.8588Q150.249-91.1674 150.422-94.1479Q150.596-97.1283 148.46-99.3759L146.418-101.492Q144.529-103.419 141.567-103.054Q138.605-102.69 136.395-100.517L130.941-95.224Z"/>
  </g>
  <g id="Bold-L" transform="matrix(1 0 0 1 2260.52 1556)">
   <path d="M43.6768 24.2188L116.284 24.2188Q125.977 24.2188 131.323 18.75Q136.67 13.2812 136.67 2.90527L136.67-62.7441L122.241-48.291L122.241 1.24512Q122.241 5.59082 120.19 7.69043Q118.14 9.79004 114.844 9.79004L45.1172 9.79004Q40.9912 9.79004 38.8306 7.69043Q36.6699 5.59082 36.6699 1.24512L36.6699-67.2852Q36.6699-71.6309 38.8306-73.7305Q40.9912-75.8301 45.1172-75.8301L95.166-75.8301L109.644-90.2588L43.6768-90.2588Q33.252-90.2588 27.7344-84.79Q22.2168-79.3213 22.2168-68.9209L22.2168 2.90527Q22.2168 13.3057 27.7344 18.7622Q33.252 24.2188 43.6768 24.2188ZM68.9209-19.5557L82.0312-24.9512L137.5-80.4199L127.026-90.8447L71.6064-35.376L66.0156-22.5098Q65.4785-21.167 66.5649-20.1172Q67.6514-19.0674 68.9209-19.5557ZM141.919-84.79L146.826-89.9414Q148.779-91.9922 148.901-94.5923Q149.023-97.1924 147.119-99.1699L145.361-100.977Q143.652-102.71 141.064-102.429Q138.477-102.148 136.523-100.22L131.47-95.2881Z"/>
  </g>
  <g id="Semibold-L" transform="matrix(1 0 0 1 1964.43 1556)">
   <path d="M42.9565 23.3833L115.919 23.3833Q125.141 23.3833 130.204 18.1812Q135.266 12.9791 135.266 2.98538L135.266-63.2599L122.943-50.9216L122.943 1.75171Q122.943 6.43539 120.706 8.74825Q118.468 11.0611 114.951 11.0611L43.9262 11.0611Q39.4539 11.0611 37.0934 8.74825Q34.7328 6.43539 34.7328 1.75171L34.7328-67.8894Q34.7328-72.5731 37.0934-74.8859Q39.4539-77.1988 43.9262-77.1988L97.139-77.1988L109.51-89.521L42.9565-89.521Q32.8964-89.521 27.6455-84.3189Q22.3946-79.1168 22.3946-69.0895L22.3946 2.98538Q22.3946 13.0127 27.6455 18.198Q32.8964 23.3833 42.9565 23.3833ZM67.7567-19.529L80.2185-24.791L136.878-81.4507L127.391-90.889L70.7802-34.2293L65.287-22.0474Q64.8209-20.945 65.7429-20.0195Q66.6649-19.0941 67.7567-19.529ZM141.306-85.8124L145.973-90.6876Q147.766-92.5613 147.853-94.899Q147.939-97.2366 146.195-99.028L144.633-100.621Q143.048-102.221 140.718-101.998Q138.388-101.775 136.612-100.015L131.834-95.3323Z"/>
  </g>
  <g id="Medium-L" transform="matrix(1 0 0 1 1668.19 1556)">
   <path d="M42.411 22.7501L115.643 22.7501Q124.508 22.7501 129.354 17.7502Q134.201 12.7502 134.201 3.04565L134.201-63.6505L123.476-52.916L123.476 2.13547Q123.476 7.0755 121.097 9.55009Q118.718 12.0247 115.031 12.0247L43.0237 12.0247Q38.2881 12.0247 35.7758 9.55009Q33.2634 7.0755 33.2634 2.13547L33.2634-68.3479Q33.2634-73.2872 35.7758-75.7618Q38.2881-78.2364 43.0237-78.2364L98.6351-78.2364L109.409-88.9618L42.411-88.9618Q32.6271-88.9618 27.5784-83.9619Q22.5296-78.9619 22.5296-69.2177L22.5296 3.04565Q22.5296 12.7899 27.5784 17.77Q32.6271 22.7501 42.411 22.7501ZM66.8739-19.5091L78.8437-24.6696L136.406-82.2327L127.667-90.9225L70.153-33.3603L64.7346-21.6972Q64.3219-20.7764 65.1196-19.9451Q65.9172-19.1139 66.8739-19.5091ZM140.841-86.5868L145.326-91.2537Q146.998-92.9924 147.057-95.1313Q147.117-97.2702 145.494-98.9197L144.08-100.352Q142.59-101.851 140.455-101.672Q138.32-101.492 136.68-99.8604L132.111-95.3659Z"/>
  </g>
  <g id="Regular-L" transform="matrix(1 0 0 1 1372.09 1556)">
   <path d="M41.6992 21.9238L115.283 21.9238Q123.682 21.9238 128.247 17.1875Q132.812 12.4512 132.812 3.125L132.812-64.1602L124.17-55.5176L124.17 2.63672Q124.17 7.91016 121.606 10.5957Q119.043 13.2812 115.137 13.2812L41.8457 13.2812Q36.7676 13.2812 34.0576 10.5957Q31.3477 7.91016 31.3477 2.63672L31.3477-68.9453Q31.3477-74.2188 34.0576-76.9043Q36.7676-79.5898 41.8457-79.5898L100.586-79.5898L109.277-88.2324L41.6992-88.2324Q32.2754-88.2324 27.4902-83.4961Q22.7051-78.7598 22.7051-69.3848L22.7051 3.125Q22.7051 12.5 27.4902 17.2119Q32.2754 21.9238 41.6992 21.9238ZM65.7227-19.4824L77.0508-24.5117L135.791-83.252L128.027-90.9668L69.3359-32.2266L64.0137-21.2402Q63.6719-20.5566 64.3066-19.8486Q64.9414-19.1406 65.7227-19.4824ZM140.234-87.5977L144.482-91.9922Q145.996-93.5547 146.021-95.4346Q146.045-97.3145 144.58-98.7793L143.359-100Q141.992-101.367 140.112-101.245Q138.232-101.123 136.768-99.6582L132.471-95.4102Z"/>
  </g>
  <g id="Light-L" transform="matrix(1 0 0 1 1076.24 1556)">
   <path d="M40.8058 20.9251L113.876 20.9251Q122.123 20.9251 126.529 16.3929Q130.936 11.8607 130.936 3.07922L130.936-64.0846L124.321-57.4852L124.321 2.71225Q124.321 8.4549 121.424 11.3827Q118.528 14.3105 113.729 14.3105L40.9676 14.3105Q35.3447 14.3105 32.4001 11.3827Q29.4556 8.4549 29.4556 2.71225L29.4556-68.9758Q29.4556-74.7185 32.4001-77.6463Q35.3447-80.574 40.9676-80.574L101.555-80.574L108.202-87.188L40.8058-87.188Q31.9427-87.188 27.3922-82.6786Q22.8416-78.1693 22.8416-69.3245L22.8416 3.07922Q22.8416 11.9247 27.3922 16.4249Q31.9427 20.9251 40.8058 20.9251ZM66.3132-21.2379L76.3542-25.8591L135.019-84.5238L128.421-91.1331L69.7746-32.4684L64.9216-22.6631Q64.6103-22.0856 65.139-21.5214Q65.6677-20.9572 66.3132-21.2379ZM139.099-88.5056L142.969-92.4614Q144.407-93.9331 144.447-95.5555Q144.486-97.1779 143.112-98.5519L142.284-99.3645Q141.023-100.626 139.37-100.511Q137.717-100.397 136.359-99.0379L132.471-95.1683Z"/>
  </g>
  <g id="Thin-L" transform="matrix(1 0 0 1 780.685 1556)">
   <path d="M39.6248 19.6037L112.014 19.6037Q120.061 19.6037 124.257 15.3419Q128.453 11.0802 128.453 3.01971L128.453-63.9847L124.522-60.0876L124.522 2.81219Q124.522 9.17587 121.185 12.4237Q117.847 15.6715 111.868 15.6715L39.8064 15.6715Q33.4633 15.6715 30.2082 12.4237Q26.9531 9.17587 26.9531 2.81219L26.9531-69.0155Q26.9531-75.3792 30.2082-78.627Q33.4633-81.8748 39.8064-81.8748L102.836-81.8748L106.781-85.807L39.6248-85.807Q31.5018-85.807 27.2617-81.5979Q23.0217-77.3888 23.0217-69.2444L23.0217 3.01971Q23.0217 11.1641 27.2617 15.3839Q31.5018 19.6037 39.6248 19.6037ZM67.0937-23.5603L75.4333-27.6405L133.998-86.2053L128.941-91.3536L70.3552-32.7888L66.1232-24.5445Q65.8516-24.1074 66.2403-23.7331Q66.629-23.3589 67.0937-23.5603ZM137.598-89.7072L140.967-93.0817Q142.305-94.4336 142.365-95.7157Q142.424-96.9978 141.17-98.2521L140.863-98.5237Q139.742-99.6445 138.39-99.5399Q137.037-99.4354 135.818-98.217L132.471-94.8479Z"/>
  </g>
  <g id="Ultralight-L" transform="matrix(1 0 0 1 484.563 1556)">
   <path d="M39.0198 18.927L111.06 18.927Q119.004 18.927 123.093 14.8037Q127.182 10.6804 127.182 2.98843L127.182-63.9328L124.624-61.4212L124.624 2.86407Q124.624 9.54514 121.061 12.957Q117.499 16.3689 110.914 16.3689L39.212 16.3689Q32.4989 16.3689 29.0852 12.957Q25.6714 9.54514 25.6714 2.86407L25.6714-69.0361Q25.6714-75.7172 29.0852-79.1294Q32.4989-82.5417 39.212-82.5417L103.492-82.5417L106.053-85.099L39.0198-85.099Q31.2767-85.099 27.1954-81.044Q23.114-76.989 23.114-69.2032L23.114 2.98843Q23.114 10.7742 27.1954 14.8506Q31.2767 18.927 39.0198 18.927ZM67.4934-24.7498L74.9619-28.553L133.475-87.0667L129.208-91.4665L70.6528-32.9529L66.7381-25.5089Q66.4871-25.1427 66.8041-24.8661Q67.1211-24.5895 67.4934-24.7498ZM136.829-90.3221L139.941-93.3998Q141.228-94.6899 141.298-95.7977Q141.367-96.9055 140.176-98.098L140.135-98.0927Q139.086-99.1425 137.887-99.0429Q136.688-98.9433 135.542-97.7966L132.471-94.6838Z"/>
  </g>
  <g id="Black-M" transform="matrix(1 0 0 1 2870.12 1126)">
   <path d="M35.8887 13.2324L90.8203 13.2324Q99.8047 13.2324 104.834 8.17871Q109.863 3.125 109.863-5.9082L109.863-54.834L92.4805-37.5L92.4805-8.59375Q92.4805-6.15234 91.4062-5.12695Q90.332-4.10156 88.1836-4.10156L38.4766-4.10156Q36.2793-4.10156 35.1562-5.12695Q34.0332-6.15234 34.0332-8.59375L34.0332-58.1055Q34.0332-60.5469 35.1562-61.5723Q36.2793-62.5977 38.4766-62.5977L67.7246-62.5977L85.0586-79.9316L35.8887-79.9316Q26.8066-79.9316 21.7529-74.8779Q16.6992-69.8242 16.6992-60.791L16.6992-5.9082Q16.6992 3.125 21.7529 8.17871Q26.8066 13.2324 35.8887 13.2324ZM57.373-23.7793L69.1895-28.2227L108.301-67.3828L97.4121-78.2715L58.3008-39.1602L53.8574-27.3438Q53.1738-25.5859 54.5166-24.4141Q55.8594-23.2422 57.373-23.7793ZM111.621-70.6543L116.064-75.3906Q118.018-77.4902 118.262-80.2734Q118.506-83.0566 116.504-85.1562L114.648-87.1094Q112.988-88.8672 110.205-88.4521Q107.422-88.0371 105.371-86.0352L100.684-81.543Z"/>
  </g>
  <g id="Heavy-M" transform="matrix(1 0 0 1 2574.01 1126)">
   <path d="M35.1624 12.3795L90.6593 12.3795Q99.0784 12.3795 103.779 7.62558Q108.48 2.8717 108.48-5.81589L108.48-55.5138L93.3449-40.416L93.3449-7.95975Q93.3449-5.19562 92.0979-3.95699Q90.8508-2.71835 88.6215-2.71835L37.1742-2.71835Q34.6313-2.71835 33.3065-3.95699Q31.9817-5.19562 31.9817-7.95975L31.9817-58.8661Q31.9817-61.6302 33.3065-62.8746Q34.6313-64.119 37.1742-64.119L70.018-64.119L85.1166-79.2168L35.1624-79.2168Q26.4267-79.2168 21.6553-74.4629Q16.8839-69.709 16.8839-61.0214L16.8839-5.81589Q16.8839 2.8717 21.6553 7.62558Q26.4267 12.3795 35.1624 12.3795ZM55.7709-23.3643L67.0456-27.739L107.69-68.4082L97.7921-78.2829L57.1602-37.6503L52.7283-26.4565Q52.137-24.9634 53.2951-23.9243Q54.4533-22.8851 55.7709-23.3643ZM111.079-71.7491L115.304-76.2207Q117.084-78.1357 117.276-80.6366Q117.469-83.1375 115.639-85.0296L113.957-86.7981Q112.424-88.4064 109.923-88.0661Q107.422-87.7258 105.567-85.92L101.144-81.6582Z"/>
  </g>
  <g id="Bold-M" transform="matrix(1 0 0 1 2277.97 1126)">
   <path d="M34.3506 11.4258L90.4785 11.4258Q98.2666 11.4258 102.6 7.00684Q106.934 2.58789 106.934-5.71289L106.934-56.2744L94.3115-43.6768L94.3115-7.25098Q94.3115-4.12598 92.8711-2.64893Q91.4307-1.17188 89.1113-1.17188L35.7178-1.17188Q32.7881-1.17188 31.2378-2.64893Q29.6875-4.12598 29.6875-7.25098L29.6875-59.7168Q29.6875-62.8418 31.2378-64.3311Q32.7881-65.8203 35.7178-65.8203L72.583-65.8203L85.1807-78.418L34.3506-78.418Q26.001-78.418 21.5454-73.999Q17.0898-69.5801 17.0898-61.2793L17.0898-5.71289Q17.0898 2.58789 21.5454 7.00684Q26.001 11.4258 34.3506 11.4258ZM53.9795-22.9004L64.6484-27.1973L107.007-69.5557L98.2178-78.2959L55.8838-35.9619L51.4648-25.4639Q50.9766-24.2676 51.9287-23.3765Q52.8809-22.4854 53.9795-22.9004ZM110.474-72.9736L114.453-77.1484Q116.04-78.8574 116.174-81.0425Q116.309-83.2275 114.673-84.8877L113.184-86.4502Q111.792-87.8906 109.607-87.6343Q107.422-87.3779 105.786-85.791L101.66-81.7871Z"/>
  </g>
  <g id="Semibold-M" transform="matrix(1 0 0 1 1981.72 1126)">
   <path d="M33.7906 10.7681L90.3542 10.7681Q97.7066 10.7681 101.787 6.58035Q105.867 2.39258 105.867-5.64194L105.867-56.7986L94.9783-45.9251L94.9783-6.76193Q94.9783-3.38821 93.4044-1.74675Q91.8304-0.105286 89.4493-0.105286L34.7137-0.105286Q31.517-0.105286 29.8115-1.74675Q28.1059-3.38821 28.1059-6.76193L28.1059-60.3035Q28.1059-63.6772 29.8115-65.3355Q31.517-66.9937 34.7137-66.9937L74.3515-66.9937L85.2249-77.8671L33.7906-77.8671Q25.708-77.8671 21.4699-73.6794Q17.2318-69.4916 17.2318-61.4571L17.2318-5.64194Q17.2318 2.39258 21.4699 6.58035Q25.708 10.7681 33.7906 10.7681ZM52.7443-22.5807L62.9951-26.8242L106.536-70.3468L98.5107-78.3051L55.0041-34.7977L50.5936-24.7795Q50.177-23.7877 50.9869-22.9988Q51.7967-22.2099 52.7443-22.5807ZM110.056-73.8182L113.866-77.7885Q115.32-79.3549 115.414-81.3225Q115.509-83.2901 114.006-84.79L112.65-86.2099Q111.356-87.5351 109.389-87.3363Q107.422-87.1376 105.937-85.7025L102.016-81.8756Z"/>
  </g>
  <g id="Medium-M" transform="matrix(1 0 0 1 1685.36 1126)">
   <path d="M33.3664 10.2692L90.2596 10.2692Q97.2824 10.2692 101.17 6.25648Q105.058 2.2438 105.058-5.58777L105.058-57.196L95.4834-47.6303L95.4834-6.39191Q95.4834-2.82898 93.8087-1.06277Q92.1341 0.70343 89.7049 0.70343L33.9523 0.70343Q30.5534 0.70343 28.7296-1.06277Q26.9058-2.82898 26.9058-6.39191L26.9058-60.7483Q26.9058-64.3105 28.7296-66.0965Q30.5534-67.8825 33.9523-67.8825L75.6927-67.8825L85.2585-77.449L33.3664-77.449Q25.4852-77.449 21.4127-73.4364Q17.3401-69.4237 17.3401-61.5921L17.3401-5.58777Q17.3401 2.2438 21.4127 6.25648Q25.4852 10.2692 33.3664 10.2692ZM51.8074-22.3381L61.7424-26.5411L106.179-70.9465L98.7335-78.3112L54.3365-33.9149L49.9336-24.2607Q49.5705-23.4238 50.2724-22.7123Q50.9743-22.0009 51.8074-22.3381ZM109.739-74.4583L113.422-78.2738Q114.774-79.7325 114.838-81.5346Q114.902-83.3366 113.501-84.716L112.246-86.0283Q111.026-87.2658 109.224-87.1109Q107.422-86.956 106.052-85.6346L102.285-81.9435Z"/>
  </g>
  <g id="Regular-M" transform="matrix(1 0 0 1 1389.1 1126)">
   <path d="M32.8125 9.61914L90.1367 9.61914Q96.7285 9.61914 100.366 5.83496Q104.004 2.05078 104.004-5.51758L104.004-57.7148L96.1426-49.8535L96.1426-5.9082Q96.1426-2.09961 94.3359-0.170898Q92.5293 1.75781 90.0391 1.75781L32.959 1.75781Q29.2969 1.75781 27.3193-0.170898Q25.3418-2.09961 25.3418-5.9082L25.3418-61.3281Q25.3418-65.1367 27.3193-67.0898Q29.2969-69.043 32.959-69.043L77.4414-69.043L85.3027-76.9043L32.8125-76.9043Q25.1953-76.9043 21.3379-73.1201Q17.4805-69.3359 17.4805-61.7676L17.4805-5.51758Q17.4805 2.05078 21.3379 5.83496Q25.1953 9.61914 32.8125 9.61914ZM50.5859-22.0215L60.1074-26.1719L105.713-71.7285L99.0234-78.3203L53.4668-32.7637L49.0723-23.584Q48.7793-22.9492 49.3408-22.3389Q49.9023-21.7285 50.5859-22.0215ZM109.326-75.293L112.842-78.9062Q114.062-80.2246 114.087-81.8115Q114.111-83.3984 112.842-84.6191L111.719-85.791Q110.596-86.9141 109.009-86.8164Q107.422-86.7188 106.201-85.5469L102.637-82.0312Z"/>
  </g>
  <g id="Light-M" transform="matrix(1 0 0 1 1093.16 1126)">
   <path d="M32.0251 8.72574L88.8802 8.72574Q95.3362 8.72574 98.8224 5.12352Q102.309 1.5213 102.309-5.5481L102.309-57.6393L96.2791-51.609L96.2791-5.84793Q96.2791-1.61514 94.1772 0.540543Q92.0753 2.69623 88.7825 2.69623L32.1564 2.69623Q28.0251 2.69623 25.8434 0.540543Q23.6618-1.61514 23.6618-5.84793L23.6618-61.3586Q23.6618-65.5907 25.8434-67.7635Q28.0251-69.9364 32.1564-69.9364L78.3043-69.9364L84.3338-75.9659L32.0251-75.9659Q24.8924-75.9659 21.2547-72.3785Q17.617-68.7912 17.617-61.692L17.617-5.5481Q17.617 1.55106 21.2547 5.1384Q24.8924 8.72574 32.0251 8.72574ZM51.1154-23.5954L59.4872-27.3674L105.016-72.8638L99.3713-78.4714L53.8757-32.9758L49.8894-24.8558Q49.6269-24.3263 50.09-23.8373Q50.5531-23.3482 51.1154-23.5954ZM108.312-76.1101L111.479-79.3449Q112.624-80.5573 112.656-81.9172Q112.688-83.2771 111.54-84.407L110.75-85.231Q109.733-86.248 108.35-86.158Q106.968-86.068 105.838-84.9716L102.637-81.8039Z"/>
  </g>
  <g id="Thin-M" transform="matrix(1 0 0 1 797.473 1126)">
   <path d="M30.9845 7.54471L87.2192 7.54471Q93.4944 7.54471 96.7804 4.18243Q100.066 0.82016 100.066-5.58777L100.066-57.5394L96.4592-53.9314L96.4592-5.76782Q96.4592-0.975037 93.9671 1.48125Q91.4749 3.93753 87.1216 3.93753L31.0959 3.93753Q26.3435 3.93753 23.8914 1.48125Q21.4394-0.975037 21.4394-5.76782L21.4394-61.3983Q21.4394-66.1911 23.8914-68.6543Q26.3435-71.1174 31.0959-71.1174L79.4449-71.1174L83.0528-74.7246L30.9845-74.7246Q24.4919-74.7246 21.1445-71.3974Q17.7971-68.0702 17.7971-61.5921L17.7971-5.58777Q17.7971 0.89035 21.1445 4.21753Q24.4919 7.54471 30.9845 7.54471ZM51.8166-25.6775L58.6662-28.949L104.095-74.3652L99.8322-78.672L54.4159-33.2558L50.9705-26.5373Q50.7477-26.1482 51.0807-25.819Q51.4137-25.4898 51.8166-25.6775ZM106.971-77.1912L109.678-79.9255Q110.723-80.9982 110.765-82.0576Q110.807-83.1169 109.818-84.127L109.469-84.4902Q108.592-85.3676 107.48-85.2875Q106.367-85.2074 105.357-84.211L102.637-81.5041Z"/>
  </g>
  <g id="Ultralight-M" transform="matrix(1 0 0 1 501.285 1126)">
   <path d="M30.4512 6.9397L86.3678 6.9397Q92.5507 6.9397 95.7344 3.70064Q98.9182 0.461578 98.9182-5.60837L98.9182-57.4875L96.5515-55.1208L96.5515-5.72662Q96.5515-0.64621 93.8591 1.96342Q91.1667 4.57306 86.2701 4.57306L30.5519 4.57306Q25.4822 4.57306 22.8916 1.96342Q20.3011-0.64621 20.3011-5.72662L20.3011-61.4189Q20.3011-66.4993 22.8916-69.1109Q25.4822-71.7224 30.5519-71.7224L80.0301-71.7224L82.3967-74.0891L30.4512-74.0891Q24.2874-74.0891 21.0884-70.895Q17.8894-67.701 17.8894-61.5402L17.8894-5.60837Q17.8894 0.552368 21.0884 3.74603Q24.2874 6.9397 30.4512 6.9397ZM52.1751-26.7441L58.2458-29.7592L103.624-75.1343L100.068-78.7743L54.6928-33.3992L51.5244-27.3987Q51.3222-27.0813 51.5884-26.8345Q51.8547-26.5877 52.1751-26.7441ZM106.284-77.7451L108.755-80.2231Q109.749-81.2233 109.796-82.1293Q109.843-83.0353 108.936-83.9836L108.813-84.111Q108.007-84.9159 107.033-84.8412Q106.059-84.7664 105.112-83.8211L102.637-81.3499Z"/>
  </g>
  <g id="Black-S" transform="matrix(1 0 0 1 2883.69 696)">
   <path d="M28.2715 2.92969L71.1426 2.92969Q78.3203 2.92969 82.3486-1.09863Q86.377-5.12695 86.377-12.3047L86.377-50.3906L72.2168-36.2305L72.2168-14.5508Q72.2168-12.7441 71.4111-11.9873Q70.6055-11.2305 68.8965-11.2305L30.5176-11.2305Q28.8574-11.2305 28.0273-11.9873Q27.1973-12.7441 27.1973-14.5508L27.1973-52.9297Q27.1973-54.7852 28.0273-55.5176Q28.8574-56.25 30.5176-56.25L52.3926-56.25L66.5527-70.4102L28.2715-70.4102Q21.0938-70.4102 17.0654-66.3818Q13.0371-62.3535 13.0371-55.1758L13.0371-12.3047Q13.0371-5.12695 17.0654-1.09863Q21.0938 2.92969 28.2715 2.92969ZM45.459-26.4648L54.834-29.9805L85.0098-60.1562L76.2207-68.9453L46.0449-38.7695L42.5781-29.3945Q42.041-27.9297 43.1396-26.9775Q44.2383-26.0254 45.459-26.4648ZM87.5488-62.6953L91.0645-66.4551Q92.6758-68.1641 92.8711-70.4346Q93.0664-72.7051 91.4551-74.3652L89.9902-75.9277Q88.623-77.3438 86.4014-77.002Q84.1797-76.6602 82.4707-75.0488L78.7598-71.4844Z"/>
  </g>
  <g id="Heavy-S" transform="matrix(1 0 0 1 2587.39 696)">
   <path d="M27.7527 2.31857L71.1655 2.31857Q77.8824 2.31857 81.6513-1.47896Q85.4202-5.27649 85.4202-12.2124L85.4202-50.9781L72.9317-38.501L72.9317-14.0205Q72.9317-11.9835 72.0222-11.071Q71.1128-10.1585 69.4267-10.1585L29.4922-10.1585Q27.6016-10.1585 26.6331-11.071Q25.6645-11.9835 25.6645-14.0205L25.6645-53.5751Q25.6645-55.6496 26.6331-56.5434Q27.6016-57.4371 29.4922-57.4371L54.248-57.4371L66.7259-69.9142L27.7527-69.9142Q20.8054-69.9142 16.9903-66.1167Q13.1752-62.3192 13.1752-55.3833L13.1752-12.2124Q13.1752-5.27649 16.9903-1.47896Q20.8054 2.31857 27.7527 2.31857ZM44.03-25.9117L53.0823-29.4044L84.5718-60.894L76.4977-68.9339L45.0195-37.4557L41.5176-28.4729Q41.0385-27.227 41.993-26.3725Q42.9474-25.518 44.03-25.9117ZM87.2147-63.5368L90.5922-67.112Q92.0532-68.6714 92.2085-70.7287Q92.3637-72.7859 90.8905-74.2844L89.518-75.7317Q88.2545-77.0325 86.24-76.754Q84.2255-76.4755 82.6897-75.0145L79.1519-71.5996Z"/>
  </g>
  <g id="Bold-S" transform="matrix(1 0 0 1 2291.14 696)">
   <path d="M27.1729 1.63574L71.1914 1.63574Q77.3926 1.63574 80.8716-1.9043Q84.3506-5.44434 84.3506-12.1094L84.3506-51.6357L73.7305-41.04L73.7305-13.4277Q73.7305-11.1328 72.7051-10.0464Q71.6797-8.95996 70.0195-8.95996L28.3447-8.95996Q26.1963-8.95996 25.0732-10.0464Q23.9502-11.1328 23.9502-13.4277L23.9502-54.2969Q23.9502-56.6162 25.0732-57.6904Q26.1963-58.7646 28.3447-58.7646L56.3232-58.7646L66.9189-69.3604L27.1729-69.3604Q20.4834-69.3604 16.9067-65.8203Q13.3301-62.2803 13.3301-55.6152L13.3301-12.1094Q13.3301-5.44434 16.9067-1.9043Q20.4834 1.63574 27.1729 1.63574ZM42.4316-25.293L51.123-28.7598L84.082-61.7188L76.8066-68.9209L43.8721-35.9863L40.332-27.4414Q39.917-26.4404 40.7104-25.6958Q41.5039-24.9512 42.4316-25.293ZM86.8408-64.4775L90.0635-67.8467Q91.3574-69.2383 91.4673-71.0571Q91.5771-72.876 90.2588-74.1943L88.9893-75.5127Q87.8418-76.6846 86.0596-76.4771Q84.2773-76.2695 82.9346-74.9756L79.5898-71.7285Z"/>
  </g>
  <g id="Semibold-S" transform="matrix(1 0 0 1 1994.74 696)">
   <path d="M26.7731 1.16501L71.209 1.16501Q77.0546 1.16501 80.3337-2.19727Q83.6128-5.55954 83.6128-12.0384L83.6128-52.0889L74.2813-42.791L74.2813-13.0188Q74.2813-10.5461 73.1762-9.3399Q72.0711-8.1337 70.4285-8.1337L27.5536-8.1337Q25.2274-8.1337 23.9979-9.3399Q22.7684-10.5461 22.7684-13.0188L22.7684-54.7943Q22.7684-57.283 23.9979-58.4816Q25.2274-59.6802 27.5536-59.6802L57.7538-59.6802L67.0525-68.9781L26.7731-68.9781Q20.2614-68.9781 16.8491-65.6158Q13.4369-62.2536 13.4369-55.7755L13.4369-12.0384Q13.4369-5.55954 16.8491-2.19727Q20.2614 1.16501 26.7731 1.16501ZM41.33-24.8665L49.7719-28.3157L83.744-62.2879L77.0203-68.9117L43.0809-34.9731L39.5142-26.7303Q39.1441-25.898 39.8262-25.2289Q40.5083-24.5598 41.33-24.8665ZM86.5829-65.126L89.6988-68.3533Q90.8775-69.6297 90.9561-71.2841Q91.0347-72.9385 89.8232-74.1318L88.6246-75.3616Q87.5572-76.4442 85.9352-76.2859Q84.3132-76.1276 83.1032-74.9489L79.892-71.817Z"/>
  </g>
  <g id="Medium-S" transform="matrix(1 0 0 1 1698.27 696)">
   <path d="M26.4694 0.807953L71.2227 0.807953Q76.799 0.807953 79.9263-2.41966Q83.0536-5.64728 83.0536-11.9843L83.0536-52.433L74.6994-44.1185L74.6994-12.709Q74.6994-10.1013 73.5332-8.80394Q72.3671-7.50656 70.7382-7.50656L26.9539-7.50656Q24.4934-7.50656 23.1827-8.80394Q21.8719-10.1013 21.8719-12.709L21.8719-55.172Q21.8719-57.7881 23.1827-59.0809Q24.4934-60.3737 26.9539-60.3737L58.8387-60.3737L67.1532-68.6882L26.4694-68.6882Q20.0928-68.6882 16.8053-65.461Q13.5178-62.2337 13.5178-55.8968L13.5178-11.9843Q13.5178-5.64728 16.8053-2.41966Q20.0928 0.807953 26.4694 0.807953ZM40.4938-24.543L48.748-27.9785L83.4885-62.719L77.182-68.9056L42.4812-34.2049L38.8947-26.1917Q38.5574-25.4875 39.1556-24.8756Q39.7537-24.2638 40.4938-24.543ZM86.3876-65.6181L89.4226-68.737Q90.5136-69.9257 90.5689-71.4554Q90.6242-72.9851 89.4928-74.0852L88.3484-75.2472Q87.3421-76.2627 85.841-76.141Q84.3399-76.0193 83.2314-74.929L80.1208-71.8849Z"/>
  </g>
  <g id="Regular-S" transform="matrix(1 0 0 1 1401.87 696)">
   <path d="M26.0742 0.341797L71.2402 0.341797Q76.4648 0.341797 79.3945-2.70996Q82.3242-5.76172 82.3242-11.9141L82.3242-52.8809L75.2441-45.8496L75.2441-12.3047Q75.2441-9.52148 73.999-8.10547Q72.7539-6.68945 71.1426-6.68945L26.1719-6.68945Q23.5352-6.68945 22.1191-8.10547Q20.7031-9.52148 20.7031-12.3047L20.7031-55.6641Q20.7031-58.4473 22.1191-59.8633Q23.5352-61.2793 26.1719-61.2793L60.2539-61.2793L67.2852-68.3105L26.0742-68.3105Q19.873-68.3105 16.748-65.2588Q13.623-62.207 13.623-56.0547L13.623-11.9141Q13.623-5.76172 16.748-2.70996Q19.873 0.341797 26.0742 0.341797ZM39.4043-24.1211L47.4121-27.5391L83.1543-63.2812L77.3926-68.8965L41.6992-33.2031L38.0859-25.4883Q37.793-24.9512 38.2812-24.4141Q38.7695-23.877 39.4043-24.1211ZM86.1328-66.2598L89.0625-69.2383Q90.0391-70.3125 90.0635-71.6797Q90.0879-73.0469 89.0625-74.0234L87.9883-75.0977Q87.0605-76.0254 85.7178-75.9521Q84.375-75.8789 83.3984-74.9023L80.4199-71.9727Z"/>
  </g>
  <g id="Light-S" transform="matrix(1 0 0 1 1105.85 696)">
   <path d="M25.3777-0.445557L70.1202-0.445557Q75.2235-0.445557 78.0247-3.33824Q80.8258-6.23093 80.8258-11.9446L80.8258-52.8206L75.3654-47.3938L75.3654-12.2444Q75.3654-9.08279 73.8476-7.47757Q72.3297-5.87234 70.0226-5.87234L25.4753-5.87234Q22.4152-5.87234 20.8099-7.47757Q19.2047-9.08279 19.2047-12.2444L19.2047-55.6946Q19.2047-58.8562 20.8099-60.4614Q22.4152-62.0667 25.4753-62.0667L61.0107-62.0667L66.4375-67.4934L25.3777-67.4934Q19.6159-67.4934 16.6801-64.608Q13.7444-61.7226 13.7444-55.9944L13.7444-11.9446Q13.7444-6.21567 16.6801-3.33061Q19.6159-0.445557 25.3777-0.445557ZM39.8735-25.5135L46.8521-28.614L82.534-64.2799L77.6955-69.0331L42.0624-33.3847L38.797-26.6235Q38.5498-26.162 38.9549-25.7385Q39.36-25.3151 39.8735-25.5135ZM85.2394-66.9708L87.8517-69.632Q88.7825-70.6154 88.8069-71.7781Q88.8313-72.9408 87.8967-73.8419L87.1407-74.5979Q86.2885-75.4501 85.1273-75.3769Q83.9661-75.3036 83.0803-74.4026L80.4199-71.7911Z"/>
  </g>
  <g id="Thin-S" transform="matrix(1 0 0 1 810.048 696)">
   <path d="M24.4568-1.48621L68.6386-1.48621Q73.5825-1.48621 76.2131-4.1687Q78.8437-6.8512 78.8437-11.9843L78.8437-52.7405L75.5257-49.4354L75.5257-12.1643Q75.5257-8.5022 73.6477-6.64673Q71.7697-4.79126 68.541-4.79126L24.5544-4.79126Q20.9335-4.79126 19.0781-6.64673Q17.2226-8.5022 17.2226-12.1643L17.2226-55.7343Q17.2226-59.3964 19.0781-61.2518Q20.9335-63.1073 24.5544-63.1073L62.0117-63.1073L65.3168-66.4124L24.4568-66.4124Q19.2757-66.4124 16.5901-63.7474Q13.9046-61.0825 13.9046-55.9143L13.9046-11.9843Q13.9046-6.8161 16.5901-4.15115Q19.2757-1.48621 24.4568-1.48621ZM40.4938-27.3552L46.1113-30.0354L81.7131-65.6013L78.096-69.2131L42.543-33.625L39.7385-28.125Q39.5508-27.7634 39.8457-27.4899Q40.1405-27.2163 40.4938-27.3552ZM84.0584-67.9123L86.2503-70.1523Q87.1216-71.0159 87.146-71.9082Q87.1704-72.8004 86.3556-73.6015L86.0199-73.9372Q85.2676-74.6895 84.3468-74.6162Q83.4259-74.543 82.6599-73.7419L80.4199-71.5508Z"/>
  </g>
  <g id="Ultralight-S" transform="matrix(1 0 0 1 513.804 696)">
   <path d="M23.9853-2.0195L67.8802-2.0195Q72.7409-2.0195 75.285-4.59442Q77.829-7.16934 77.829-12.0049L77.829-52.6993L75.6073-50.4814L75.6073-12.1231Q75.6073-8.20465 73.5447-6.22101Q71.4821-4.23737 67.7826-4.23737L24.0829-4.23737Q20.1752-4.23737 18.1915-6.22101Q16.2079-8.20465 16.2079-12.1231L16.2079-55.7549Q16.2079-59.6733 18.1915-61.657Q20.1752-63.6406 24.0829-63.6406L62.5244-63.6406L64.7423-65.8585L23.9853-65.8585Q19.101-65.8585 16.5436-63.306Q13.9862-60.7536 13.9862-55.8731L13.9862-12.0049Q13.9862-7.12433 16.5436-4.57191Q19.101-2.0195 23.9853-2.0195ZM40.8119-28.299L45.7321-30.7632L81.2927-66.2781L78.3005-69.3054L42.7887-33.7479L40.2199-28.894Q40.0635-28.5843 40.3019-28.3875Q40.5403-28.1906 40.8119-28.299ZM83.4534-68.3937L85.4294-70.4193Q86.2701-71.2204 86.2946-71.9746Q86.319-72.7287 85.5659-73.4787L85.4454-73.5992Q84.745-74.2996 83.947-74.2264Q83.149-74.1531 82.4448-73.4039L80.4199-71.4279Z"/>
  </g>
 </g>
</svg>
